%TF.GenerationSoftware,KiCad,Pcbnew,9.0.3*%
%TF.CreationDate,2025-08-15T22:36:12-07:00*%
%TF.ProjectId,keyboardpls,6b657962-6f61-4726-9470-6c732e6b6963,rev?*%
%TF.SameCoordinates,Original*%
%TF.FileFunction,Soldermask,Top*%
%TF.FilePolarity,Negative*%
%FSLAX46Y46*%
G04 Gerber Fmt 4.6, Leading zero omitted, Abs format (unit mm)*
G04 Created by KiCad (PCBNEW 9.0.3) date 2025-08-15 22:36:12*
%MOMM*%
%LPD*%
G01*
G04 APERTURE LIST*
%ADD10C,1.700000*%
%ADD11R,1.700000X1.700000*%
G04 APERTURE END LIST*
D10*
%TO.C,U4*%
X72112500Y-80350000D03*
X74652500Y-80350000D03*
X77192500Y-80350000D03*
X79732500Y-80350000D03*
X82272500Y-80350000D03*
X84812500Y-80350000D03*
X87352500Y-80350000D03*
X89892500Y-80350000D03*
X92432500Y-80350000D03*
X94972500Y-80350000D03*
X97512500Y-80350000D03*
X100052500Y-80350000D03*
X102592500Y-80350000D03*
X105132500Y-80350000D03*
X107672500Y-80350000D03*
X110212500Y-80350000D03*
X112752500Y-80350000D03*
X115292500Y-80350000D03*
X117832500Y-80350000D03*
X120372500Y-80350000D03*
X120372500Y-95590000D03*
X117832500Y-95590000D03*
X115292500Y-95590000D03*
X112752500Y-95590000D03*
X110212500Y-95590000D03*
X107672500Y-95590000D03*
X105132500Y-95590000D03*
X102592500Y-95590000D03*
X100052500Y-95590000D03*
X97512500Y-95590000D03*
X94972500Y-95590000D03*
X92432500Y-95590000D03*
X89892500Y-95590000D03*
X87352500Y-95590000D03*
X84812500Y-95590000D03*
X82272500Y-95590000D03*
X79732500Y-95590000D03*
X77192500Y-95590000D03*
X74652500Y-95590000D03*
D11*
X72112500Y-95590000D03*
%TD*%
M02*
