M48
; DRILL file {KiCad 9.0.3} date 2025-08-15T22:36:12-0700
; FORMAT={-:-/ absolute / inch / decimal}
; #@! TF.CreationDate,2025-08-15T22:36:12-07:00
; #@! TF.GenerationSoftware,Kicad,Pcbnew,9.0.3
; #@! TF.FileFunction,Plated,1,2,PTH
FMAT,2
INCH
; #@! TA.AperFunction,Plated,PTH,ComponentDrill
T1C0.0394
; #@! TA.AperFunction,Plated,PTH,ComponentDrill
T2C0.0600
; #@! TA.AperFunction,Plated,PTH,ComponentDrill
T3C0.1200
; #@! TA.AperFunction,Plated,PTH,ViaDrill
T4C0.1260
%
G90
G05
T1
X2.8391Y-3.1634
X2.8391Y-3.7634
X2.9391Y-3.1634
X2.9391Y-3.7634
X3.0391Y-3.1634
X3.0391Y-3.7634
X3.1391Y-3.1634
X3.1391Y-3.7634
X3.2391Y-3.1634
X3.2391Y-3.7634
X3.3391Y-3.1634
X3.3391Y-3.7634
X3.4391Y-3.1634
X3.4391Y-3.7634
X3.5391Y-3.1634
X3.5391Y-3.7634
X3.6391Y-3.1634
X3.6391Y-3.7634
X3.7391Y-3.1634
X3.7391Y-3.7634
X3.8391Y-3.1634
X3.8391Y-3.7634
X3.9391Y-3.1634
X3.9391Y-3.7634
X4.0391Y-3.1634
X4.0391Y-3.7634
X4.1391Y-3.1634
X4.1391Y-3.7634
X4.2391Y-3.1634
X4.2391Y-3.7634
X4.3391Y-3.1634
X4.3391Y-3.7634
X4.4391Y-3.1634
X4.4391Y-3.7634
X4.5391Y-3.1634
X4.5391Y-3.7634
X4.6391Y-3.1634
X4.6391Y-3.7634
X4.7391Y-3.1634
X4.7391Y-3.7634
T2
X3.0094Y-4.5893
X3.1032Y-7.5893
X3.1969Y-5.3393
X3.2594Y-4.4893
X3.2907Y-6.0893
X3.3532Y-7.4893
X3.4469Y-5.2393
X3.4782Y-6.8393
X3.5407Y-5.9893
X3.7282Y-6.7393
X3.7594Y-4.5893
X4.0094Y-4.4893
X4.0407Y-7.5893
X4.1344Y-5.3393
X4.2907Y-7.4893
X4.3219Y-6.0893
X4.3844Y-5.2393
X4.5094Y-4.5893
X4.5719Y-5.9893
X4.6969Y-6.8393
X4.7594Y-4.4893
X4.8844Y-5.3393
X4.9469Y-6.7393
X4.9782Y-7.5893
X5.0719Y-6.0893
X5.1344Y-5.2393
X5.2282Y-7.4893
X5.2594Y-4.5893
X5.3219Y-5.9893
X5.4469Y-6.8393
X5.5094Y-4.4893
X5.6344Y-5.3393
X5.6969Y-6.7393
X5.8219Y-6.0893
X5.8844Y-5.2393
X6.0094Y-4.5893
X6.0719Y-5.9893
X6.1969Y-6.8393
X6.2594Y-4.4893
X6.3844Y-5.3393
X6.4469Y-6.7393
X6.5719Y-6.0893
X6.6344Y-5.2393
X6.7594Y-4.5893
X6.8219Y-5.9893
X6.9469Y-6.8393
X7.0094Y-4.4893
X7.1344Y-5.3393
X7.1969Y-6.7393
X7.3219Y-6.0893
X7.3844Y-5.2393
X7.5094Y-4.5893
X7.5719Y-5.9893
X7.6969Y-6.8393
X7.7594Y-4.4893
X7.7907Y-7.5893
X7.8844Y-5.3393
X7.9469Y-6.7393
X8.0407Y-7.4893
X8.0719Y-6.0893
X8.1344Y-5.2393
X8.2594Y-4.5893
X8.3219Y-5.9893
X8.4469Y-6.8393
X8.5094Y-4.4893
X8.6344Y-5.3393
X8.6969Y-6.7393
X8.8219Y-6.0893
X8.8844Y-5.2393
X9.0094Y-4.5893
X9.0719Y-5.9893
X9.1969Y-6.8393
X9.2594Y-4.4893
X9.3844Y-5.3393
X9.4469Y-6.7393
X9.5719Y-6.0893
X9.6344Y-5.2393
X9.7594Y-4.5893
X9.8219Y-5.9893
X9.9469Y-6.8393
X10.0094Y-4.4893
X10.1344Y-5.3393
X10.1969Y-6.7393
X10.3219Y-6.0893
X10.3844Y-5.2393
X10.5094Y-4.5893
X10.5719Y-5.9893
X10.6032Y-7.5893
X10.6969Y-6.8393
X10.7594Y-4.4893
X10.8532Y-7.4893
X10.8844Y-5.3393
X10.9469Y-6.7393
X11.0719Y-6.0893
X11.1344Y-5.2393
X11.2594Y-4.5893
X11.3219Y-5.9893
X11.4469Y-6.8393
X11.5094Y-4.4893
X11.5407Y-7.5893
X11.6344Y-5.3393
X11.6969Y-6.7393
X11.7907Y-7.4893
X11.8219Y-6.0893
X11.8844Y-5.2393
X12.0094Y-4.5893
X12.0719Y-5.9893
X12.2594Y-4.4893
X12.3844Y-5.3393
X12.4782Y-7.5893
X12.6344Y-5.2393
X12.7282Y-7.4893
X12.8532Y-6.8393
X13.0407Y-6.0893
X13.1032Y-6.7393
X13.1344Y-4.5893
X13.2907Y-5.9893
X13.3219Y-5.3393
X13.3844Y-4.4893
X13.4157Y-7.5893
X13.5719Y-5.2393
X13.6657Y-7.4893
T3
X3.154Y-7.2083
X4.0915Y-7.2083
X5.9667Y-7.9583
X9.9042Y-7.9583
X12.5336Y-7.218
X12.7172Y-6.4645
X12.8173Y-4.9581
X13.4711Y-7.218
X13.6547Y-6.4645
X13.7548Y-4.9581
T4
X2.2784Y-2.8579
X2.2784Y-8.1728
X14.5422Y-2.8579
X14.5422Y-8.1728
M30
