M48
; DRILL file {KiCad 9.0.3} date 2025-08-15T22:36:12-0700
; FORMAT={-:-/ absolute / inch / decimal}
; #@! TF.CreationDate,2025-08-15T22:36:12-07:00
; #@! TF.GenerationSoftware,Kicad,Pcbnew,9.0.3
; #@! TF.FileFunction,NonPlated,1,2,NPTH
FMAT,2
INCH
; #@! TA.AperFunction,NonPlated,NPTH,ComponentDrill
T1C0.0689
; #@! TA.AperFunction,NonPlated,NPTH,ComponentDrill
T2C0.1570
%
G90
G05
T1
X2.9594Y-4.6893
X3.0532Y-7.6893
X3.1469Y-5.4393
X3.2407Y-6.1893
X3.3594Y-4.6893
X3.4282Y-6.9393
X3.4532Y-7.6893
X3.5469Y-5.4393
X3.6407Y-6.1893
X3.7094Y-4.6893
X3.8282Y-6.9393
X3.9907Y-7.6893
X4.0844Y-5.4393
X4.1094Y-4.6893
X4.2719Y-6.1893
X4.3907Y-7.6893
X4.4594Y-4.6893
X4.4844Y-5.4393
X4.6469Y-6.9393
X4.6719Y-6.1893
X4.8344Y-5.4393
X4.8594Y-4.6893
X4.9282Y-7.6893
X5.0219Y-6.1893
X5.0469Y-6.9393
X5.2094Y-4.6893
X5.2344Y-5.4393
X5.3282Y-7.6893
X5.3969Y-6.9393
X5.4219Y-6.1893
X5.5844Y-5.4393
X5.6094Y-4.6893
X5.7719Y-6.1893
X5.7969Y-6.9393
X5.9594Y-4.6893
X5.9844Y-5.4393
X6.1469Y-6.9393
X6.1719Y-6.1893
X6.3344Y-5.4393
X6.3594Y-4.6893
X6.5219Y-6.1893
X6.5469Y-6.9393
X6.7094Y-4.6893
X6.7344Y-5.4393
X6.8969Y-6.9393
X6.9219Y-6.1893
X7.0844Y-5.4393
X7.1094Y-4.6893
X7.2719Y-6.1893
X7.2969Y-6.9393
X7.4594Y-4.6893
X7.4844Y-5.4393
X7.6469Y-6.9393
X7.6719Y-6.1893
X7.7407Y-7.6893
X7.8344Y-5.4393
X7.8594Y-4.6893
X8.0219Y-6.1893
X8.0469Y-6.9393
X8.1407Y-7.6893
X8.2094Y-4.6893
X8.2344Y-5.4393
X8.3969Y-6.9393
X8.4219Y-6.1893
X8.5844Y-5.4393
X8.6094Y-4.6893
X8.7719Y-6.1893
X8.7969Y-6.9393
X8.9594Y-4.6893
X8.9844Y-5.4393
X9.1469Y-6.9393
X9.1719Y-6.1893
X9.3344Y-5.4393
X9.3594Y-4.6893
X9.5219Y-6.1893
X9.5469Y-6.9393
X9.7094Y-4.6893
X9.7344Y-5.4393
X9.8969Y-6.9393
X9.9219Y-6.1893
X10.0844Y-5.4393
X10.1094Y-4.6893
X10.2719Y-6.1893
X10.2969Y-6.9393
X10.4594Y-4.6893
X10.4844Y-5.4393
X10.5532Y-7.6893
X10.6469Y-6.9393
X10.6719Y-6.1893
X10.8344Y-5.4393
X10.8594Y-4.6893
X10.9532Y-7.6893
X11.0219Y-6.1893
X11.0469Y-6.9393
X11.2094Y-4.6893
X11.2344Y-5.4393
X11.3969Y-6.9393
X11.4219Y-6.1893
X11.4907Y-7.6893
X11.5844Y-5.4393
X11.6094Y-4.6893
X11.7719Y-6.1893
X11.7969Y-6.9393
X11.8907Y-7.6893
X11.9594Y-4.6893
X11.9844Y-5.4393
X12.1719Y-6.1893
X12.3344Y-5.4393
X12.3594Y-4.6893
X12.4282Y-7.6893
X12.7344Y-5.4393
X12.8032Y-6.9393
X12.8282Y-7.6893
X12.9907Y-6.1893
X13.0844Y-4.6893
X13.2032Y-6.9393
X13.2719Y-5.4393
X13.3657Y-7.6893
X13.3907Y-6.1893
X13.4844Y-4.6893
X13.6719Y-5.4393
X13.7657Y-7.6893
T2
X3.154Y-6.6083
X3.1594Y-4.6893
X3.2532Y-7.6893
X3.3469Y-5.4393
X3.4407Y-6.1893
X3.6282Y-6.9393
X3.9094Y-4.6893
X4.0915Y-6.6083
X4.1907Y-7.6893
X4.2844Y-5.4393
X4.4719Y-6.1893
X4.6594Y-4.6893
X4.8469Y-6.9393
X5.0344Y-5.4393
X5.1282Y-7.6893
X5.2219Y-6.1893
X5.4094Y-4.6893
X5.5969Y-6.9393
X5.7844Y-5.4393
X5.9667Y-7.3583
X5.9719Y-6.1893
X6.1594Y-4.6893
X6.3469Y-6.9393
X6.5344Y-5.4393
X6.7219Y-6.1893
X6.9094Y-4.6893
X7.0969Y-6.9393
X7.2844Y-5.4393
X7.4719Y-6.1893
X7.6594Y-4.6893
X7.8469Y-6.9393
X7.9407Y-7.6893
X8.0344Y-5.4393
X8.2219Y-6.1893
X8.4094Y-4.6893
X8.5969Y-6.9393
X8.7844Y-5.4393
X8.9719Y-6.1893
X9.1594Y-4.6893
X9.3469Y-6.9393
X9.5344Y-5.4393
X9.7219Y-6.1893
X9.9042Y-7.3583
X9.9094Y-4.6893
X10.0969Y-6.9393
X10.2844Y-5.4393
X10.4719Y-6.1893
X10.6594Y-4.6893
X10.7532Y-7.6893
X10.8469Y-6.9393
X11.0344Y-5.4393
X11.2219Y-6.1893
X11.4094Y-4.6893
X11.5969Y-6.9393
X11.6907Y-7.6893
X11.7844Y-5.4393
X11.9719Y-6.1893
X12.1594Y-4.6893
X12.5336Y-6.618
X12.5344Y-5.4393
X12.6282Y-7.6893
X12.7172Y-5.8645
X12.8173Y-4.3581
X13.0032Y-6.9393
X13.1907Y-6.1893
X13.2844Y-4.6893
X13.4711Y-6.618
X13.4719Y-5.4393
X13.5657Y-7.6893
X13.6547Y-5.8645
X13.7548Y-4.3581
M30
