%TF.GenerationSoftware,KiCad,Pcbnew,9.0.3*%
%TF.CreationDate,2025-08-13T20:15:07-07:00*%
%TF.ProjectId,keyboardpls,6b657962-6f61-4726-9470-6c732e6b6963,rev?*%
%TF.SameCoordinates,Original*%
%TF.FileFunction,Soldermask,Top*%
%TF.FilePolarity,Negative*%
%FSLAX46Y46*%
G04 Gerber Fmt 4.6, Leading zero omitted, Abs format (unit mm)*
G04 Created by KiCad (PCBNEW 9.0.3) date 2025-08-13 20:15:07*
%MOMM*%
%LPD*%
G01*
G04 APERTURE LIST*
%ADD10C,1.750000*%
%ADD11C,3.987800*%
%ADD12R,1.700000X1.700000*%
%ADD13C,1.700000*%
G04 APERTURE END LIST*
D10*
%TO.C,MX41*%
X329962650Y-157207700D03*
D11*
X335042650Y-157207700D03*
D10*
X340122650Y-157207700D03*
%TD*%
%TO.C,MX23*%
X237093900Y-138157700D03*
D11*
X242173900Y-138157700D03*
D10*
X247253900Y-138157700D03*
%TD*%
%TO.C,MX36*%
X222806400Y-157207700D03*
D11*
X227886400Y-157207700D03*
D10*
X232966400Y-157207700D03*
%TD*%
%TO.C,MX3*%
X113268900Y-119107700D03*
D11*
X118348900Y-119107700D03*
D10*
X123428900Y-119107700D03*
%TD*%
%TO.C,MX37*%
X241856400Y-157207700D03*
D11*
X246936400Y-157207700D03*
D10*
X252016400Y-157207700D03*
%TD*%
%TO.C,MX14*%
X332343900Y-119107700D03*
D11*
X337423900Y-119107700D03*
D10*
X342503900Y-119107700D03*
%TD*%
%TO.C,MX53*%
X325200150Y-176257700D03*
D11*
X330280150Y-176257700D03*
D10*
X335360150Y-176257700D03*
%TD*%
%TO.C,MX56*%
X125175150Y-195307700D03*
D11*
X130255150Y-195307700D03*
D10*
X135335150Y-195307700D03*
%TD*%
%TO.C,MX40*%
X299006400Y-157207700D03*
D11*
X304086400Y-157207700D03*
D10*
X309166400Y-157207700D03*
%TD*%
%TO.C,MX33*%
X165656400Y-157207700D03*
D11*
X170736400Y-157207700D03*
D10*
X175816400Y-157207700D03*
%TD*%
%TO.C,MX47*%
X194231400Y-176257700D03*
D11*
X199311400Y-176257700D03*
D10*
X204391400Y-176257700D03*
%TD*%
%TO.C,MX16*%
X103743900Y-138157700D03*
D11*
X108823900Y-138157700D03*
D10*
X113903900Y-138157700D03*
%TD*%
%TO.C,MX59*%
X291862650Y-195307700D03*
D11*
X296942650Y-195307700D03*
D10*
X302022650Y-195307700D03*
%TD*%
D11*
%TO.C,RightShiftStab1*%
X342166400Y-168097700D03*
X318353900Y-168097700D03*
%TD*%
D10*
%TO.C,MX18*%
X141843900Y-138157700D03*
D11*
X146923900Y-138157700D03*
D10*
X152003900Y-138157700D03*
%TD*%
D11*
%TO.C,BackSpaceStab1*%
X346829000Y-148957200D03*
X323016500Y-148957200D03*
%TD*%
%TO.C,LeftShiftStab1*%
X103924700Y-167850600D03*
X80112200Y-167850600D03*
%TD*%
D10*
%TO.C,MX11*%
X265668900Y-119107700D03*
D11*
X270748900Y-119107700D03*
D10*
X275828900Y-119107700D03*
%TD*%
%TO.C,MX12*%
X284718900Y-119107700D03*
D11*
X289798900Y-119107700D03*
D10*
X294878900Y-119107700D03*
%TD*%
%TO.C,MX31*%
X127556400Y-157207700D03*
D11*
X132636400Y-157207700D03*
D10*
X137716400Y-157207700D03*
%TD*%
%TO.C,MX30*%
X108506400Y-157207700D03*
D11*
X113586400Y-157207700D03*
D10*
X118666400Y-157207700D03*
%TD*%
%TO.C,MX49*%
X232331400Y-176257700D03*
D11*
X237411400Y-176257700D03*
D10*
X242491400Y-176257700D03*
%TD*%
%TO.C,MX57*%
X196612650Y-195307700D03*
D11*
X201692650Y-195307700D03*
D10*
X206772650Y-195307700D03*
%TD*%
%TO.C,MX52*%
X289481400Y-176257700D03*
D11*
X294561400Y-176257700D03*
D10*
X299641400Y-176257700D03*
%TD*%
D11*
%TO.C,SpaceStab1*%
X251566700Y-186901800D03*
X151554200Y-186901800D03*
%TD*%
D10*
%TO.C,MX10*%
X246618900Y-119107700D03*
D11*
X251698900Y-119107700D03*
D10*
X256778900Y-119107700D03*
%TD*%
%TO.C,MX54*%
X77550150Y-195307700D03*
D11*
X82630150Y-195307700D03*
D10*
X87710150Y-195307700D03*
%TD*%
%TO.C,MX35*%
X203756400Y-157207700D03*
D11*
X208836400Y-157207700D03*
D10*
X213916400Y-157207700D03*
%TD*%
%TO.C,MX9*%
X227568900Y-119107700D03*
D11*
X232648900Y-119107700D03*
D10*
X237728900Y-119107700D03*
%TD*%
%TO.C,MX32*%
X146606400Y-157207700D03*
D11*
X151686400Y-157207700D03*
D10*
X156766400Y-157207700D03*
%TD*%
%TO.C,MX19*%
X160893900Y-138157700D03*
D11*
X165973900Y-138157700D03*
D10*
X171053900Y-138157700D03*
%TD*%
%TO.C,MX43*%
X118031400Y-176257700D03*
D11*
X123111400Y-176257700D03*
D10*
X128191400Y-176257700D03*
%TD*%
D11*
%TO.C,EnterStab1*%
X351685000Y-110697000D03*
X327872500Y-110697000D03*
%TD*%
D10*
%TO.C,MX2*%
X94218900Y-119107700D03*
D11*
X99298900Y-119107700D03*
D10*
X104378900Y-119107700D03*
%TD*%
%TO.C,MX42*%
X87075150Y-176257700D03*
D11*
X92155150Y-176257700D03*
D10*
X97235150Y-176257700D03*
%TD*%
%TO.C,MX60*%
X315675150Y-195307700D03*
D11*
X320755150Y-195307700D03*
D10*
X325835150Y-195307700D03*
%TD*%
%TO.C,MX21*%
X198993900Y-138157700D03*
D11*
X204073900Y-138157700D03*
D10*
X209153900Y-138157700D03*
%TD*%
%TO.C,MX34*%
X184706400Y-157207700D03*
D11*
X189786400Y-157207700D03*
D10*
X194866400Y-157207700D03*
%TD*%
%TO.C,MX27*%
X313293900Y-138157700D03*
D11*
X318373900Y-138157700D03*
D10*
X323453900Y-138157700D03*
%TD*%
%TO.C,MX28*%
X337106400Y-138157700D03*
D11*
X342186400Y-138157700D03*
D10*
X347266400Y-138157700D03*
%TD*%
%TO.C,MX58*%
X268050150Y-195307700D03*
D11*
X273130150Y-195307700D03*
D10*
X278210150Y-195307700D03*
%TD*%
%TO.C,MX5*%
X151368900Y-119107700D03*
D11*
X156448900Y-119107700D03*
D10*
X161528900Y-119107700D03*
%TD*%
%TO.C,MX38*%
X260906400Y-157207700D03*
D11*
X265986400Y-157207700D03*
D10*
X271066400Y-157207700D03*
%TD*%
%TO.C,MX61*%
X339487650Y-195307700D03*
D11*
X344567650Y-195307700D03*
D10*
X349647650Y-195307700D03*
%TD*%
%TO.C,MX24*%
X256143900Y-138157700D03*
D11*
X261223900Y-138157700D03*
D10*
X266303900Y-138157700D03*
%TD*%
%TO.C,MX48*%
X213281400Y-176257700D03*
D11*
X218361400Y-176257700D03*
D10*
X223441400Y-176257700D03*
%TD*%
%TO.C,MX44*%
X137081400Y-176257700D03*
D11*
X142161400Y-176257700D03*
D10*
X147241400Y-176257700D03*
%TD*%
%TO.C,MX1*%
X75168900Y-119107700D03*
D11*
X80248900Y-119107700D03*
D10*
X85328900Y-119107700D03*
%TD*%
%TO.C,MX20*%
X179943900Y-138157700D03*
D11*
X185023900Y-138157700D03*
D10*
X190103900Y-138157700D03*
%TD*%
%TO.C,MX4*%
X132318900Y-119107700D03*
D11*
X137398900Y-119107700D03*
D10*
X142478900Y-119107700D03*
%TD*%
%TO.C,MX8*%
X208518900Y-119107700D03*
D11*
X213598900Y-119107700D03*
D10*
X218678900Y-119107700D03*
%TD*%
%TO.C,MX55*%
X101362650Y-195307700D03*
D11*
X106442650Y-195307700D03*
D10*
X111522650Y-195307700D03*
%TD*%
%TO.C,MX7*%
X189468900Y-119107700D03*
D11*
X194548900Y-119107700D03*
D10*
X199628900Y-119107700D03*
%TD*%
%TO.C,MX22*%
X218043900Y-138157700D03*
D11*
X223123900Y-138157700D03*
D10*
X228203900Y-138157700D03*
%TD*%
%TO.C,MX13*%
X303768900Y-119107700D03*
D11*
X308848900Y-119107700D03*
D10*
X313928900Y-119107700D03*
%TD*%
%TO.C,MX51*%
X270431400Y-176257700D03*
D11*
X275511400Y-176257700D03*
D10*
X280591400Y-176257700D03*
%TD*%
%TO.C,MX50*%
X251381400Y-176257700D03*
D11*
X256461400Y-176257700D03*
D10*
X261541400Y-176257700D03*
%TD*%
%TO.C,MX29*%
X82312650Y-157207700D03*
D11*
X87392650Y-157207700D03*
D10*
X92472650Y-157207700D03*
%TD*%
%TO.C,MX39*%
X279956400Y-157207700D03*
D11*
X285036400Y-157207700D03*
D10*
X290116400Y-157207700D03*
%TD*%
%TO.C,MX15*%
X79931400Y-138157700D03*
D11*
X85011400Y-138157700D03*
D10*
X90091400Y-138157700D03*
%TD*%
%TO.C,MX45*%
X156131400Y-176257700D03*
D11*
X161211400Y-176257700D03*
D10*
X166291400Y-176257700D03*
%TD*%
%TO.C,MX17*%
X122793900Y-138157700D03*
D11*
X127873900Y-138157700D03*
D10*
X132953900Y-138157700D03*
%TD*%
%TO.C,MX6*%
X170418900Y-119107700D03*
D11*
X175498900Y-119107700D03*
D10*
X180578900Y-119107700D03*
%TD*%
%TO.C,MX26*%
X294243900Y-138157700D03*
D11*
X299323900Y-138157700D03*
D10*
X304403900Y-138157700D03*
%TD*%
%TO.C,MX46*%
X175181400Y-176257700D03*
D11*
X180261400Y-176257700D03*
D10*
X185341400Y-176257700D03*
%TD*%
%TO.C,MX25*%
X275193900Y-138157700D03*
D11*
X280273900Y-138157700D03*
D10*
X285353900Y-138157700D03*
%TD*%
D12*
%TO.C,U4*%
X72112500Y-95590000D03*
D13*
X74652500Y-95590000D03*
X77192500Y-95590000D03*
X79732500Y-95590000D03*
X82272500Y-95590000D03*
X84812500Y-95590000D03*
X87352500Y-95590000D03*
X89892500Y-95590000D03*
X92432500Y-95590000D03*
X94972500Y-95590000D03*
X97512500Y-95590000D03*
X100052500Y-95590000D03*
X102592500Y-95590000D03*
X105132500Y-95590000D03*
X107672500Y-95590000D03*
X110212500Y-95590000D03*
X112752500Y-95590000D03*
X115292500Y-95590000D03*
X117832500Y-95590000D03*
X120372500Y-95590000D03*
X120372500Y-80350000D03*
X117832500Y-80350000D03*
X115292500Y-80350000D03*
X112752500Y-80350000D03*
X110212500Y-80350000D03*
X107672500Y-80350000D03*
X105132500Y-80350000D03*
X102592500Y-80350000D03*
X100052500Y-80350000D03*
X97512500Y-80350000D03*
X94972500Y-80350000D03*
X92432500Y-80350000D03*
X89892500Y-80350000D03*
X87352500Y-80350000D03*
X84812500Y-80350000D03*
X82272500Y-80350000D03*
X79732500Y-80350000D03*
X77192500Y-80350000D03*
X74652500Y-80350000D03*
X72112500Y-80350000D03*
%TD*%
M02*
