%TF.GenerationSoftware,KiCad,Pcbnew,9.0.3*%
%TF.CreationDate,2025-08-13T20:15:07-07:00*%
%TF.ProjectId,keyboardpls,6b657962-6f61-4726-9470-6c732e6b6963,rev?*%
%TF.SameCoordinates,Original*%
%TF.FileFunction,Legend,Bot*%
%TF.FilePolarity,Positive*%
%FSLAX46Y46*%
G04 Gerber Fmt 4.6, Leading zero omitted, Abs format (unit mm)*
G04 Created by KiCad (PCBNEW 9.0.3) date 2025-08-13 20:15:07*
%MOMM*%
%LPD*%
G01*
G04 APERTURE LIST*
%ADD10C,0.150000*%
%ADD11C,0.120000*%
G04 APERTURE END LIST*
D10*
X343053919Y-121068614D02*
X342053919Y-121068614D01*
X342053919Y-121068614D02*
X342053919Y-121306709D01*
X342053919Y-121306709D02*
X342101538Y-121449566D01*
X342101538Y-121449566D02*
X342196776Y-121544804D01*
X342196776Y-121544804D02*
X342292014Y-121592423D01*
X342292014Y-121592423D02*
X342482490Y-121640042D01*
X342482490Y-121640042D02*
X342625347Y-121640042D01*
X342625347Y-121640042D02*
X342815823Y-121592423D01*
X342815823Y-121592423D02*
X342911061Y-121544804D01*
X342911061Y-121544804D02*
X343006300Y-121449566D01*
X343006300Y-121449566D02*
X343053919Y-121306709D01*
X343053919Y-121306709D02*
X343053919Y-121068614D01*
X343053919Y-122592423D02*
X343053919Y-122020995D01*
X343053919Y-122306709D02*
X342053919Y-122306709D01*
X342053919Y-122306709D02*
X342196776Y-122211471D01*
X342196776Y-122211471D02*
X342292014Y-122116233D01*
X342292014Y-122116233D02*
X342339633Y-122020995D01*
X342387252Y-123449566D02*
X343053919Y-123449566D01*
X342006300Y-123211471D02*
X342720585Y-122973376D01*
X342720585Y-122973376D02*
X342720585Y-123592423D01*
X335910169Y-178218614D02*
X334910169Y-178218614D01*
X334910169Y-178218614D02*
X334910169Y-178456709D01*
X334910169Y-178456709D02*
X334957788Y-178599566D01*
X334957788Y-178599566D02*
X335053026Y-178694804D01*
X335053026Y-178694804D02*
X335148264Y-178742423D01*
X335148264Y-178742423D02*
X335338740Y-178790042D01*
X335338740Y-178790042D02*
X335481597Y-178790042D01*
X335481597Y-178790042D02*
X335672073Y-178742423D01*
X335672073Y-178742423D02*
X335767311Y-178694804D01*
X335767311Y-178694804D02*
X335862550Y-178599566D01*
X335862550Y-178599566D02*
X335910169Y-178456709D01*
X335910169Y-178456709D02*
X335910169Y-178218614D01*
X334910169Y-179694804D02*
X334910169Y-179218614D01*
X334910169Y-179218614D02*
X335386359Y-179170995D01*
X335386359Y-179170995D02*
X335338740Y-179218614D01*
X335338740Y-179218614D02*
X335291121Y-179313852D01*
X335291121Y-179313852D02*
X335291121Y-179551947D01*
X335291121Y-179551947D02*
X335338740Y-179647185D01*
X335338740Y-179647185D02*
X335386359Y-179694804D01*
X335386359Y-179694804D02*
X335481597Y-179742423D01*
X335481597Y-179742423D02*
X335719692Y-179742423D01*
X335719692Y-179742423D02*
X335814930Y-179694804D01*
X335814930Y-179694804D02*
X335862550Y-179647185D01*
X335862550Y-179647185D02*
X335910169Y-179551947D01*
X335910169Y-179551947D02*
X335910169Y-179313852D01*
X335910169Y-179313852D02*
X335862550Y-179218614D01*
X335862550Y-179218614D02*
X335814930Y-179170995D01*
X334910169Y-180075757D02*
X334910169Y-180694804D01*
X334910169Y-180694804D02*
X335291121Y-180361471D01*
X335291121Y-180361471D02*
X335291121Y-180504328D01*
X335291121Y-180504328D02*
X335338740Y-180599566D01*
X335338740Y-180599566D02*
X335386359Y-180647185D01*
X335386359Y-180647185D02*
X335481597Y-180694804D01*
X335481597Y-180694804D02*
X335719692Y-180694804D01*
X335719692Y-180694804D02*
X335814930Y-180647185D01*
X335814930Y-180647185D02*
X335862550Y-180599566D01*
X335862550Y-180599566D02*
X335910169Y-180504328D01*
X335910169Y-180504328D02*
X335910169Y-180218614D01*
X335910169Y-180218614D02*
X335862550Y-180123376D01*
X335862550Y-180123376D02*
X335814930Y-180075757D01*
X262091419Y-178218614D02*
X261091419Y-178218614D01*
X261091419Y-178218614D02*
X261091419Y-178456709D01*
X261091419Y-178456709D02*
X261139038Y-178599566D01*
X261139038Y-178599566D02*
X261234276Y-178694804D01*
X261234276Y-178694804D02*
X261329514Y-178742423D01*
X261329514Y-178742423D02*
X261519990Y-178790042D01*
X261519990Y-178790042D02*
X261662847Y-178790042D01*
X261662847Y-178790042D02*
X261853323Y-178742423D01*
X261853323Y-178742423D02*
X261948561Y-178694804D01*
X261948561Y-178694804D02*
X262043800Y-178599566D01*
X262043800Y-178599566D02*
X262091419Y-178456709D01*
X262091419Y-178456709D02*
X262091419Y-178218614D01*
X261091419Y-179694804D02*
X261091419Y-179218614D01*
X261091419Y-179218614D02*
X261567609Y-179170995D01*
X261567609Y-179170995D02*
X261519990Y-179218614D01*
X261519990Y-179218614D02*
X261472371Y-179313852D01*
X261472371Y-179313852D02*
X261472371Y-179551947D01*
X261472371Y-179551947D02*
X261519990Y-179647185D01*
X261519990Y-179647185D02*
X261567609Y-179694804D01*
X261567609Y-179694804D02*
X261662847Y-179742423D01*
X261662847Y-179742423D02*
X261900942Y-179742423D01*
X261900942Y-179742423D02*
X261996180Y-179694804D01*
X261996180Y-179694804D02*
X262043800Y-179647185D01*
X262043800Y-179647185D02*
X262091419Y-179551947D01*
X262091419Y-179551947D02*
X262091419Y-179313852D01*
X262091419Y-179313852D02*
X262043800Y-179218614D01*
X262043800Y-179218614D02*
X261996180Y-179170995D01*
X261091419Y-180361471D02*
X261091419Y-180456709D01*
X261091419Y-180456709D02*
X261139038Y-180551947D01*
X261139038Y-180551947D02*
X261186657Y-180599566D01*
X261186657Y-180599566D02*
X261281895Y-180647185D01*
X261281895Y-180647185D02*
X261472371Y-180694804D01*
X261472371Y-180694804D02*
X261710466Y-180694804D01*
X261710466Y-180694804D02*
X261900942Y-180647185D01*
X261900942Y-180647185D02*
X261996180Y-180599566D01*
X261996180Y-180599566D02*
X262043800Y-180551947D01*
X262043800Y-180551947D02*
X262091419Y-180456709D01*
X262091419Y-180456709D02*
X262091419Y-180361471D01*
X262091419Y-180361471D02*
X262043800Y-180266233D01*
X262043800Y-180266233D02*
X261996180Y-180218614D01*
X261996180Y-180218614D02*
X261900942Y-180170995D01*
X261900942Y-180170995D02*
X261710466Y-180123376D01*
X261710466Y-180123376D02*
X261472371Y-180123376D01*
X261472371Y-180123376D02*
X261281895Y-180170995D01*
X261281895Y-180170995D02*
X261186657Y-180218614D01*
X261186657Y-180218614D02*
X261139038Y-180266233D01*
X261139038Y-180266233D02*
X261091419Y-180361471D01*
X223991419Y-178218614D02*
X222991419Y-178218614D01*
X222991419Y-178218614D02*
X222991419Y-178456709D01*
X222991419Y-178456709D02*
X223039038Y-178599566D01*
X223039038Y-178599566D02*
X223134276Y-178694804D01*
X223134276Y-178694804D02*
X223229514Y-178742423D01*
X223229514Y-178742423D02*
X223419990Y-178790042D01*
X223419990Y-178790042D02*
X223562847Y-178790042D01*
X223562847Y-178790042D02*
X223753323Y-178742423D01*
X223753323Y-178742423D02*
X223848561Y-178694804D01*
X223848561Y-178694804D02*
X223943800Y-178599566D01*
X223943800Y-178599566D02*
X223991419Y-178456709D01*
X223991419Y-178456709D02*
X223991419Y-178218614D01*
X223324752Y-179647185D02*
X223991419Y-179647185D01*
X222943800Y-179409090D02*
X223658085Y-179170995D01*
X223658085Y-179170995D02*
X223658085Y-179790042D01*
X223419990Y-180313852D02*
X223372371Y-180218614D01*
X223372371Y-180218614D02*
X223324752Y-180170995D01*
X223324752Y-180170995D02*
X223229514Y-180123376D01*
X223229514Y-180123376D02*
X223181895Y-180123376D01*
X223181895Y-180123376D02*
X223086657Y-180170995D01*
X223086657Y-180170995D02*
X223039038Y-180218614D01*
X223039038Y-180218614D02*
X222991419Y-180313852D01*
X222991419Y-180313852D02*
X222991419Y-180504328D01*
X222991419Y-180504328D02*
X223039038Y-180599566D01*
X223039038Y-180599566D02*
X223086657Y-180647185D01*
X223086657Y-180647185D02*
X223181895Y-180694804D01*
X223181895Y-180694804D02*
X223229514Y-180694804D01*
X223229514Y-180694804D02*
X223324752Y-180647185D01*
X223324752Y-180647185D02*
X223372371Y-180599566D01*
X223372371Y-180599566D02*
X223419990Y-180504328D01*
X223419990Y-180504328D02*
X223419990Y-180313852D01*
X223419990Y-180313852D02*
X223467609Y-180218614D01*
X223467609Y-180218614D02*
X223515228Y-180170995D01*
X223515228Y-180170995D02*
X223610466Y-180123376D01*
X223610466Y-180123376D02*
X223800942Y-180123376D01*
X223800942Y-180123376D02*
X223896180Y-180170995D01*
X223896180Y-180170995D02*
X223943800Y-180218614D01*
X223943800Y-180218614D02*
X223991419Y-180313852D01*
X223991419Y-180313852D02*
X223991419Y-180504328D01*
X223991419Y-180504328D02*
X223943800Y-180599566D01*
X223943800Y-180599566D02*
X223896180Y-180647185D01*
X223896180Y-180647185D02*
X223800942Y-180694804D01*
X223800942Y-180694804D02*
X223610466Y-180694804D01*
X223610466Y-180694804D02*
X223515228Y-180647185D01*
X223515228Y-180647185D02*
X223467609Y-180599566D01*
X223467609Y-180599566D02*
X223419990Y-180504328D01*
X171603919Y-140118614D02*
X170603919Y-140118614D01*
X170603919Y-140118614D02*
X170603919Y-140356709D01*
X170603919Y-140356709D02*
X170651538Y-140499566D01*
X170651538Y-140499566D02*
X170746776Y-140594804D01*
X170746776Y-140594804D02*
X170842014Y-140642423D01*
X170842014Y-140642423D02*
X171032490Y-140690042D01*
X171032490Y-140690042D02*
X171175347Y-140690042D01*
X171175347Y-140690042D02*
X171365823Y-140642423D01*
X171365823Y-140642423D02*
X171461061Y-140594804D01*
X171461061Y-140594804D02*
X171556300Y-140499566D01*
X171556300Y-140499566D02*
X171603919Y-140356709D01*
X171603919Y-140356709D02*
X171603919Y-140118614D01*
X171603919Y-141642423D02*
X171603919Y-141070995D01*
X171603919Y-141356709D02*
X170603919Y-141356709D01*
X170603919Y-141356709D02*
X170746776Y-141261471D01*
X170746776Y-141261471D02*
X170842014Y-141166233D01*
X170842014Y-141166233D02*
X170889633Y-141070995D01*
X171603919Y-142118614D02*
X171603919Y-142309090D01*
X171603919Y-142309090D02*
X171556300Y-142404328D01*
X171556300Y-142404328D02*
X171508680Y-142451947D01*
X171508680Y-142451947D02*
X171365823Y-142547185D01*
X171365823Y-142547185D02*
X171175347Y-142594804D01*
X171175347Y-142594804D02*
X170794395Y-142594804D01*
X170794395Y-142594804D02*
X170699157Y-142547185D01*
X170699157Y-142547185D02*
X170651538Y-142499566D01*
X170651538Y-142499566D02*
X170603919Y-142404328D01*
X170603919Y-142404328D02*
X170603919Y-142213852D01*
X170603919Y-142213852D02*
X170651538Y-142118614D01*
X170651538Y-142118614D02*
X170699157Y-142070995D01*
X170699157Y-142070995D02*
X170794395Y-142023376D01*
X170794395Y-142023376D02*
X171032490Y-142023376D01*
X171032490Y-142023376D02*
X171127728Y-142070995D01*
X171127728Y-142070995D02*
X171175347Y-142118614D01*
X171175347Y-142118614D02*
X171222966Y-142213852D01*
X171222966Y-142213852D02*
X171222966Y-142404328D01*
X171222966Y-142404328D02*
X171175347Y-142499566D01*
X171175347Y-142499566D02*
X171127728Y-142547185D01*
X171127728Y-142547185D02*
X171032490Y-142594804D01*
X114453919Y-140118614D02*
X113453919Y-140118614D01*
X113453919Y-140118614D02*
X113453919Y-140356709D01*
X113453919Y-140356709D02*
X113501538Y-140499566D01*
X113501538Y-140499566D02*
X113596776Y-140594804D01*
X113596776Y-140594804D02*
X113692014Y-140642423D01*
X113692014Y-140642423D02*
X113882490Y-140690042D01*
X113882490Y-140690042D02*
X114025347Y-140690042D01*
X114025347Y-140690042D02*
X114215823Y-140642423D01*
X114215823Y-140642423D02*
X114311061Y-140594804D01*
X114311061Y-140594804D02*
X114406300Y-140499566D01*
X114406300Y-140499566D02*
X114453919Y-140356709D01*
X114453919Y-140356709D02*
X114453919Y-140118614D01*
X114453919Y-141642423D02*
X114453919Y-141070995D01*
X114453919Y-141356709D02*
X113453919Y-141356709D01*
X113453919Y-141356709D02*
X113596776Y-141261471D01*
X113596776Y-141261471D02*
X113692014Y-141166233D01*
X113692014Y-141166233D02*
X113739633Y-141070995D01*
X113453919Y-142499566D02*
X113453919Y-142309090D01*
X113453919Y-142309090D02*
X113501538Y-142213852D01*
X113501538Y-142213852D02*
X113549157Y-142166233D01*
X113549157Y-142166233D02*
X113692014Y-142070995D01*
X113692014Y-142070995D02*
X113882490Y-142023376D01*
X113882490Y-142023376D02*
X114263442Y-142023376D01*
X114263442Y-142023376D02*
X114358680Y-142070995D01*
X114358680Y-142070995D02*
X114406300Y-142118614D01*
X114406300Y-142118614D02*
X114453919Y-142213852D01*
X114453919Y-142213852D02*
X114453919Y-142404328D01*
X114453919Y-142404328D02*
X114406300Y-142499566D01*
X114406300Y-142499566D02*
X114358680Y-142547185D01*
X114358680Y-142547185D02*
X114263442Y-142594804D01*
X114263442Y-142594804D02*
X114025347Y-142594804D01*
X114025347Y-142594804D02*
X113930109Y-142547185D01*
X113930109Y-142547185D02*
X113882490Y-142499566D01*
X113882490Y-142499566D02*
X113834871Y-142404328D01*
X113834871Y-142404328D02*
X113834871Y-142213852D01*
X113834871Y-142213852D02*
X113882490Y-142118614D01*
X113882490Y-142118614D02*
X113930109Y-142070995D01*
X113930109Y-142070995D02*
X114025347Y-142023376D01*
X324003919Y-140118614D02*
X323003919Y-140118614D01*
X323003919Y-140118614D02*
X323003919Y-140356709D01*
X323003919Y-140356709D02*
X323051538Y-140499566D01*
X323051538Y-140499566D02*
X323146776Y-140594804D01*
X323146776Y-140594804D02*
X323242014Y-140642423D01*
X323242014Y-140642423D02*
X323432490Y-140690042D01*
X323432490Y-140690042D02*
X323575347Y-140690042D01*
X323575347Y-140690042D02*
X323765823Y-140642423D01*
X323765823Y-140642423D02*
X323861061Y-140594804D01*
X323861061Y-140594804D02*
X323956300Y-140499566D01*
X323956300Y-140499566D02*
X324003919Y-140356709D01*
X324003919Y-140356709D02*
X324003919Y-140118614D01*
X323099157Y-141070995D02*
X323051538Y-141118614D01*
X323051538Y-141118614D02*
X323003919Y-141213852D01*
X323003919Y-141213852D02*
X323003919Y-141451947D01*
X323003919Y-141451947D02*
X323051538Y-141547185D01*
X323051538Y-141547185D02*
X323099157Y-141594804D01*
X323099157Y-141594804D02*
X323194395Y-141642423D01*
X323194395Y-141642423D02*
X323289633Y-141642423D01*
X323289633Y-141642423D02*
X323432490Y-141594804D01*
X323432490Y-141594804D02*
X324003919Y-141023376D01*
X324003919Y-141023376D02*
X324003919Y-141642423D01*
X323003919Y-141975757D02*
X323003919Y-142642423D01*
X323003919Y-142642423D02*
X324003919Y-142213852D01*
X266853919Y-140118614D02*
X265853919Y-140118614D01*
X265853919Y-140118614D02*
X265853919Y-140356709D01*
X265853919Y-140356709D02*
X265901538Y-140499566D01*
X265901538Y-140499566D02*
X265996776Y-140594804D01*
X265996776Y-140594804D02*
X266092014Y-140642423D01*
X266092014Y-140642423D02*
X266282490Y-140690042D01*
X266282490Y-140690042D02*
X266425347Y-140690042D01*
X266425347Y-140690042D02*
X266615823Y-140642423D01*
X266615823Y-140642423D02*
X266711061Y-140594804D01*
X266711061Y-140594804D02*
X266806300Y-140499566D01*
X266806300Y-140499566D02*
X266853919Y-140356709D01*
X266853919Y-140356709D02*
X266853919Y-140118614D01*
X265949157Y-141070995D02*
X265901538Y-141118614D01*
X265901538Y-141118614D02*
X265853919Y-141213852D01*
X265853919Y-141213852D02*
X265853919Y-141451947D01*
X265853919Y-141451947D02*
X265901538Y-141547185D01*
X265901538Y-141547185D02*
X265949157Y-141594804D01*
X265949157Y-141594804D02*
X266044395Y-141642423D01*
X266044395Y-141642423D02*
X266139633Y-141642423D01*
X266139633Y-141642423D02*
X266282490Y-141594804D01*
X266282490Y-141594804D02*
X266853919Y-141023376D01*
X266853919Y-141023376D02*
X266853919Y-141642423D01*
X266187252Y-142499566D02*
X266853919Y-142499566D01*
X265806300Y-142261471D02*
X266520585Y-142023376D01*
X266520585Y-142023376D02*
X266520585Y-142642423D01*
X247803919Y-140118614D02*
X246803919Y-140118614D01*
X246803919Y-140118614D02*
X246803919Y-140356709D01*
X246803919Y-140356709D02*
X246851538Y-140499566D01*
X246851538Y-140499566D02*
X246946776Y-140594804D01*
X246946776Y-140594804D02*
X247042014Y-140642423D01*
X247042014Y-140642423D02*
X247232490Y-140690042D01*
X247232490Y-140690042D02*
X247375347Y-140690042D01*
X247375347Y-140690042D02*
X247565823Y-140642423D01*
X247565823Y-140642423D02*
X247661061Y-140594804D01*
X247661061Y-140594804D02*
X247756300Y-140499566D01*
X247756300Y-140499566D02*
X247803919Y-140356709D01*
X247803919Y-140356709D02*
X247803919Y-140118614D01*
X246899157Y-141070995D02*
X246851538Y-141118614D01*
X246851538Y-141118614D02*
X246803919Y-141213852D01*
X246803919Y-141213852D02*
X246803919Y-141451947D01*
X246803919Y-141451947D02*
X246851538Y-141547185D01*
X246851538Y-141547185D02*
X246899157Y-141594804D01*
X246899157Y-141594804D02*
X246994395Y-141642423D01*
X246994395Y-141642423D02*
X247089633Y-141642423D01*
X247089633Y-141642423D02*
X247232490Y-141594804D01*
X247232490Y-141594804D02*
X247803919Y-141023376D01*
X247803919Y-141023376D02*
X247803919Y-141642423D01*
X246803919Y-141975757D02*
X246803919Y-142594804D01*
X246803919Y-142594804D02*
X247184871Y-142261471D01*
X247184871Y-142261471D02*
X247184871Y-142404328D01*
X247184871Y-142404328D02*
X247232490Y-142499566D01*
X247232490Y-142499566D02*
X247280109Y-142547185D01*
X247280109Y-142547185D02*
X247375347Y-142594804D01*
X247375347Y-142594804D02*
X247613442Y-142594804D01*
X247613442Y-142594804D02*
X247708680Y-142547185D01*
X247708680Y-142547185D02*
X247756300Y-142499566D01*
X247756300Y-142499566D02*
X247803919Y-142404328D01*
X247803919Y-142404328D02*
X247803919Y-142118614D01*
X247803919Y-142118614D02*
X247756300Y-142023376D01*
X247756300Y-142023376D02*
X247708680Y-141975757D01*
X133503919Y-140118614D02*
X132503919Y-140118614D01*
X132503919Y-140118614D02*
X132503919Y-140356709D01*
X132503919Y-140356709D02*
X132551538Y-140499566D01*
X132551538Y-140499566D02*
X132646776Y-140594804D01*
X132646776Y-140594804D02*
X132742014Y-140642423D01*
X132742014Y-140642423D02*
X132932490Y-140690042D01*
X132932490Y-140690042D02*
X133075347Y-140690042D01*
X133075347Y-140690042D02*
X133265823Y-140642423D01*
X133265823Y-140642423D02*
X133361061Y-140594804D01*
X133361061Y-140594804D02*
X133456300Y-140499566D01*
X133456300Y-140499566D02*
X133503919Y-140356709D01*
X133503919Y-140356709D02*
X133503919Y-140118614D01*
X133503919Y-141642423D02*
X133503919Y-141070995D01*
X133503919Y-141356709D02*
X132503919Y-141356709D01*
X132503919Y-141356709D02*
X132646776Y-141261471D01*
X132646776Y-141261471D02*
X132742014Y-141166233D01*
X132742014Y-141166233D02*
X132789633Y-141070995D01*
X132503919Y-141975757D02*
X132503919Y-142642423D01*
X132503919Y-142642423D02*
X133503919Y-142213852D01*
X128741419Y-178218614D02*
X127741419Y-178218614D01*
X127741419Y-178218614D02*
X127741419Y-178456709D01*
X127741419Y-178456709D02*
X127789038Y-178599566D01*
X127789038Y-178599566D02*
X127884276Y-178694804D01*
X127884276Y-178694804D02*
X127979514Y-178742423D01*
X127979514Y-178742423D02*
X128169990Y-178790042D01*
X128169990Y-178790042D02*
X128312847Y-178790042D01*
X128312847Y-178790042D02*
X128503323Y-178742423D01*
X128503323Y-178742423D02*
X128598561Y-178694804D01*
X128598561Y-178694804D02*
X128693800Y-178599566D01*
X128693800Y-178599566D02*
X128741419Y-178456709D01*
X128741419Y-178456709D02*
X128741419Y-178218614D01*
X128074752Y-179647185D02*
X128741419Y-179647185D01*
X127693800Y-179409090D02*
X128408085Y-179170995D01*
X128408085Y-179170995D02*
X128408085Y-179790042D01*
X127741419Y-180075757D02*
X127741419Y-180694804D01*
X127741419Y-180694804D02*
X128122371Y-180361471D01*
X128122371Y-180361471D02*
X128122371Y-180504328D01*
X128122371Y-180504328D02*
X128169990Y-180599566D01*
X128169990Y-180599566D02*
X128217609Y-180647185D01*
X128217609Y-180647185D02*
X128312847Y-180694804D01*
X128312847Y-180694804D02*
X128550942Y-180694804D01*
X128550942Y-180694804D02*
X128646180Y-180647185D01*
X128646180Y-180647185D02*
X128693800Y-180599566D01*
X128693800Y-180599566D02*
X128741419Y-180504328D01*
X128741419Y-180504328D02*
X128741419Y-180218614D01*
X128741419Y-180218614D02*
X128693800Y-180123376D01*
X128693800Y-180123376D02*
X128646180Y-180075757D01*
X257328919Y-121068614D02*
X256328919Y-121068614D01*
X256328919Y-121068614D02*
X256328919Y-121306709D01*
X256328919Y-121306709D02*
X256376538Y-121449566D01*
X256376538Y-121449566D02*
X256471776Y-121544804D01*
X256471776Y-121544804D02*
X256567014Y-121592423D01*
X256567014Y-121592423D02*
X256757490Y-121640042D01*
X256757490Y-121640042D02*
X256900347Y-121640042D01*
X256900347Y-121640042D02*
X257090823Y-121592423D01*
X257090823Y-121592423D02*
X257186061Y-121544804D01*
X257186061Y-121544804D02*
X257281300Y-121449566D01*
X257281300Y-121449566D02*
X257328919Y-121306709D01*
X257328919Y-121306709D02*
X257328919Y-121068614D01*
X257328919Y-122592423D02*
X257328919Y-122020995D01*
X257328919Y-122306709D02*
X256328919Y-122306709D01*
X256328919Y-122306709D02*
X256471776Y-122211471D01*
X256471776Y-122211471D02*
X256567014Y-122116233D01*
X256567014Y-122116233D02*
X256614633Y-122020995D01*
X256328919Y-123211471D02*
X256328919Y-123306709D01*
X256328919Y-123306709D02*
X256376538Y-123401947D01*
X256376538Y-123401947D02*
X256424157Y-123449566D01*
X256424157Y-123449566D02*
X256519395Y-123497185D01*
X256519395Y-123497185D02*
X256709871Y-123544804D01*
X256709871Y-123544804D02*
X256947966Y-123544804D01*
X256947966Y-123544804D02*
X257138442Y-123497185D01*
X257138442Y-123497185D02*
X257233680Y-123449566D01*
X257233680Y-123449566D02*
X257281300Y-123401947D01*
X257281300Y-123401947D02*
X257328919Y-123306709D01*
X257328919Y-123306709D02*
X257328919Y-123211471D01*
X257328919Y-123211471D02*
X257281300Y-123116233D01*
X257281300Y-123116233D02*
X257233680Y-123068614D01*
X257233680Y-123068614D02*
X257138442Y-123020995D01*
X257138442Y-123020995D02*
X256947966Y-122973376D01*
X256947966Y-122973376D02*
X256709871Y-122973376D01*
X256709871Y-122973376D02*
X256519395Y-123020995D01*
X256519395Y-123020995D02*
X256424157Y-123068614D01*
X256424157Y-123068614D02*
X256376538Y-123116233D01*
X256376538Y-123116233D02*
X256328919Y-123211471D01*
X304953919Y-140118614D02*
X303953919Y-140118614D01*
X303953919Y-140118614D02*
X303953919Y-140356709D01*
X303953919Y-140356709D02*
X304001538Y-140499566D01*
X304001538Y-140499566D02*
X304096776Y-140594804D01*
X304096776Y-140594804D02*
X304192014Y-140642423D01*
X304192014Y-140642423D02*
X304382490Y-140690042D01*
X304382490Y-140690042D02*
X304525347Y-140690042D01*
X304525347Y-140690042D02*
X304715823Y-140642423D01*
X304715823Y-140642423D02*
X304811061Y-140594804D01*
X304811061Y-140594804D02*
X304906300Y-140499566D01*
X304906300Y-140499566D02*
X304953919Y-140356709D01*
X304953919Y-140356709D02*
X304953919Y-140118614D01*
X304049157Y-141070995D02*
X304001538Y-141118614D01*
X304001538Y-141118614D02*
X303953919Y-141213852D01*
X303953919Y-141213852D02*
X303953919Y-141451947D01*
X303953919Y-141451947D02*
X304001538Y-141547185D01*
X304001538Y-141547185D02*
X304049157Y-141594804D01*
X304049157Y-141594804D02*
X304144395Y-141642423D01*
X304144395Y-141642423D02*
X304239633Y-141642423D01*
X304239633Y-141642423D02*
X304382490Y-141594804D01*
X304382490Y-141594804D02*
X304953919Y-141023376D01*
X304953919Y-141023376D02*
X304953919Y-141642423D01*
X303953919Y-142499566D02*
X303953919Y-142309090D01*
X303953919Y-142309090D02*
X304001538Y-142213852D01*
X304001538Y-142213852D02*
X304049157Y-142166233D01*
X304049157Y-142166233D02*
X304192014Y-142070995D01*
X304192014Y-142070995D02*
X304382490Y-142023376D01*
X304382490Y-142023376D02*
X304763442Y-142023376D01*
X304763442Y-142023376D02*
X304858680Y-142070995D01*
X304858680Y-142070995D02*
X304906300Y-142118614D01*
X304906300Y-142118614D02*
X304953919Y-142213852D01*
X304953919Y-142213852D02*
X304953919Y-142404328D01*
X304953919Y-142404328D02*
X304906300Y-142499566D01*
X304906300Y-142499566D02*
X304858680Y-142547185D01*
X304858680Y-142547185D02*
X304763442Y-142594804D01*
X304763442Y-142594804D02*
X304525347Y-142594804D01*
X304525347Y-142594804D02*
X304430109Y-142547185D01*
X304430109Y-142547185D02*
X304382490Y-142499566D01*
X304382490Y-142499566D02*
X304334871Y-142404328D01*
X304334871Y-142404328D02*
X304334871Y-142213852D01*
X304334871Y-142213852D02*
X304382490Y-142118614D01*
X304382490Y-142118614D02*
X304430109Y-142070995D01*
X304430109Y-142070995D02*
X304525347Y-142023376D01*
X243041419Y-178218614D02*
X242041419Y-178218614D01*
X242041419Y-178218614D02*
X242041419Y-178456709D01*
X242041419Y-178456709D02*
X242089038Y-178599566D01*
X242089038Y-178599566D02*
X242184276Y-178694804D01*
X242184276Y-178694804D02*
X242279514Y-178742423D01*
X242279514Y-178742423D02*
X242469990Y-178790042D01*
X242469990Y-178790042D02*
X242612847Y-178790042D01*
X242612847Y-178790042D02*
X242803323Y-178742423D01*
X242803323Y-178742423D02*
X242898561Y-178694804D01*
X242898561Y-178694804D02*
X242993800Y-178599566D01*
X242993800Y-178599566D02*
X243041419Y-178456709D01*
X243041419Y-178456709D02*
X243041419Y-178218614D01*
X242374752Y-179647185D02*
X243041419Y-179647185D01*
X241993800Y-179409090D02*
X242708085Y-179170995D01*
X242708085Y-179170995D02*
X242708085Y-179790042D01*
X243041419Y-180218614D02*
X243041419Y-180409090D01*
X243041419Y-180409090D02*
X242993800Y-180504328D01*
X242993800Y-180504328D02*
X242946180Y-180551947D01*
X242946180Y-180551947D02*
X242803323Y-180647185D01*
X242803323Y-180647185D02*
X242612847Y-180694804D01*
X242612847Y-180694804D02*
X242231895Y-180694804D01*
X242231895Y-180694804D02*
X242136657Y-180647185D01*
X242136657Y-180647185D02*
X242089038Y-180599566D01*
X242089038Y-180599566D02*
X242041419Y-180504328D01*
X242041419Y-180504328D02*
X242041419Y-180313852D01*
X242041419Y-180313852D02*
X242089038Y-180218614D01*
X242089038Y-180218614D02*
X242136657Y-180170995D01*
X242136657Y-180170995D02*
X242231895Y-180123376D01*
X242231895Y-180123376D02*
X242469990Y-180123376D01*
X242469990Y-180123376D02*
X242565228Y-180170995D01*
X242565228Y-180170995D02*
X242612847Y-180218614D01*
X242612847Y-180218614D02*
X242660466Y-180313852D01*
X242660466Y-180313852D02*
X242660466Y-180504328D01*
X242660466Y-180504328D02*
X242612847Y-180599566D01*
X242612847Y-180599566D02*
X242565228Y-180647185D01*
X242565228Y-180647185D02*
X242469990Y-180694804D01*
X214466419Y-159168614D02*
X213466419Y-159168614D01*
X213466419Y-159168614D02*
X213466419Y-159406709D01*
X213466419Y-159406709D02*
X213514038Y-159549566D01*
X213514038Y-159549566D02*
X213609276Y-159644804D01*
X213609276Y-159644804D02*
X213704514Y-159692423D01*
X213704514Y-159692423D02*
X213894990Y-159740042D01*
X213894990Y-159740042D02*
X214037847Y-159740042D01*
X214037847Y-159740042D02*
X214228323Y-159692423D01*
X214228323Y-159692423D02*
X214323561Y-159644804D01*
X214323561Y-159644804D02*
X214418800Y-159549566D01*
X214418800Y-159549566D02*
X214466419Y-159406709D01*
X214466419Y-159406709D02*
X214466419Y-159168614D01*
X213466419Y-160073376D02*
X213466419Y-160692423D01*
X213466419Y-160692423D02*
X213847371Y-160359090D01*
X213847371Y-160359090D02*
X213847371Y-160501947D01*
X213847371Y-160501947D02*
X213894990Y-160597185D01*
X213894990Y-160597185D02*
X213942609Y-160644804D01*
X213942609Y-160644804D02*
X214037847Y-160692423D01*
X214037847Y-160692423D02*
X214275942Y-160692423D01*
X214275942Y-160692423D02*
X214371180Y-160644804D01*
X214371180Y-160644804D02*
X214418800Y-160597185D01*
X214418800Y-160597185D02*
X214466419Y-160501947D01*
X214466419Y-160501947D02*
X214466419Y-160216233D01*
X214466419Y-160216233D02*
X214418800Y-160120995D01*
X214418800Y-160120995D02*
X214371180Y-160073376D01*
X213466419Y-161597185D02*
X213466419Y-161120995D01*
X213466419Y-161120995D02*
X213942609Y-161073376D01*
X213942609Y-161073376D02*
X213894990Y-161120995D01*
X213894990Y-161120995D02*
X213847371Y-161216233D01*
X213847371Y-161216233D02*
X213847371Y-161454328D01*
X213847371Y-161454328D02*
X213894990Y-161549566D01*
X213894990Y-161549566D02*
X213942609Y-161597185D01*
X213942609Y-161597185D02*
X214037847Y-161644804D01*
X214037847Y-161644804D02*
X214275942Y-161644804D01*
X214275942Y-161644804D02*
X214371180Y-161597185D01*
X214371180Y-161597185D02*
X214418800Y-161549566D01*
X214418800Y-161549566D02*
X214466419Y-161454328D01*
X214466419Y-161454328D02*
X214466419Y-161216233D01*
X214466419Y-161216233D02*
X214418800Y-161120995D01*
X214418800Y-161120995D02*
X214371180Y-161073376D01*
X278760169Y-197268614D02*
X277760169Y-197268614D01*
X277760169Y-197268614D02*
X277760169Y-197506709D01*
X277760169Y-197506709D02*
X277807788Y-197649566D01*
X277807788Y-197649566D02*
X277903026Y-197744804D01*
X277903026Y-197744804D02*
X277998264Y-197792423D01*
X277998264Y-197792423D02*
X278188740Y-197840042D01*
X278188740Y-197840042D02*
X278331597Y-197840042D01*
X278331597Y-197840042D02*
X278522073Y-197792423D01*
X278522073Y-197792423D02*
X278617311Y-197744804D01*
X278617311Y-197744804D02*
X278712550Y-197649566D01*
X278712550Y-197649566D02*
X278760169Y-197506709D01*
X278760169Y-197506709D02*
X278760169Y-197268614D01*
X277760169Y-198744804D02*
X277760169Y-198268614D01*
X277760169Y-198268614D02*
X278236359Y-198220995D01*
X278236359Y-198220995D02*
X278188740Y-198268614D01*
X278188740Y-198268614D02*
X278141121Y-198363852D01*
X278141121Y-198363852D02*
X278141121Y-198601947D01*
X278141121Y-198601947D02*
X278188740Y-198697185D01*
X278188740Y-198697185D02*
X278236359Y-198744804D01*
X278236359Y-198744804D02*
X278331597Y-198792423D01*
X278331597Y-198792423D02*
X278569692Y-198792423D01*
X278569692Y-198792423D02*
X278664930Y-198744804D01*
X278664930Y-198744804D02*
X278712550Y-198697185D01*
X278712550Y-198697185D02*
X278760169Y-198601947D01*
X278760169Y-198601947D02*
X278760169Y-198363852D01*
X278760169Y-198363852D02*
X278712550Y-198268614D01*
X278712550Y-198268614D02*
X278664930Y-198220995D01*
X278188740Y-199363852D02*
X278141121Y-199268614D01*
X278141121Y-199268614D02*
X278093502Y-199220995D01*
X278093502Y-199220995D02*
X277998264Y-199173376D01*
X277998264Y-199173376D02*
X277950645Y-199173376D01*
X277950645Y-199173376D02*
X277855407Y-199220995D01*
X277855407Y-199220995D02*
X277807788Y-199268614D01*
X277807788Y-199268614D02*
X277760169Y-199363852D01*
X277760169Y-199363852D02*
X277760169Y-199554328D01*
X277760169Y-199554328D02*
X277807788Y-199649566D01*
X277807788Y-199649566D02*
X277855407Y-199697185D01*
X277855407Y-199697185D02*
X277950645Y-199744804D01*
X277950645Y-199744804D02*
X277998264Y-199744804D01*
X277998264Y-199744804D02*
X278093502Y-199697185D01*
X278093502Y-199697185D02*
X278141121Y-199649566D01*
X278141121Y-199649566D02*
X278188740Y-199554328D01*
X278188740Y-199554328D02*
X278188740Y-199363852D01*
X278188740Y-199363852D02*
X278236359Y-199268614D01*
X278236359Y-199268614D02*
X278283978Y-199220995D01*
X278283978Y-199220995D02*
X278379216Y-199173376D01*
X278379216Y-199173376D02*
X278569692Y-199173376D01*
X278569692Y-199173376D02*
X278664930Y-199220995D01*
X278664930Y-199220995D02*
X278712550Y-199268614D01*
X278712550Y-199268614D02*
X278760169Y-199363852D01*
X278760169Y-199363852D02*
X278760169Y-199554328D01*
X278760169Y-199554328D02*
X278712550Y-199649566D01*
X278712550Y-199649566D02*
X278664930Y-199697185D01*
X278664930Y-199697185D02*
X278569692Y-199744804D01*
X278569692Y-199744804D02*
X278379216Y-199744804D01*
X278379216Y-199744804D02*
X278283978Y-199697185D01*
X278283978Y-199697185D02*
X278236359Y-199649566D01*
X278236359Y-199649566D02*
X278188740Y-199554328D01*
X93022669Y-159168614D02*
X92022669Y-159168614D01*
X92022669Y-159168614D02*
X92022669Y-159406709D01*
X92022669Y-159406709D02*
X92070288Y-159549566D01*
X92070288Y-159549566D02*
X92165526Y-159644804D01*
X92165526Y-159644804D02*
X92260764Y-159692423D01*
X92260764Y-159692423D02*
X92451240Y-159740042D01*
X92451240Y-159740042D02*
X92594097Y-159740042D01*
X92594097Y-159740042D02*
X92784573Y-159692423D01*
X92784573Y-159692423D02*
X92879811Y-159644804D01*
X92879811Y-159644804D02*
X92975050Y-159549566D01*
X92975050Y-159549566D02*
X93022669Y-159406709D01*
X93022669Y-159406709D02*
X93022669Y-159168614D01*
X92117907Y-160120995D02*
X92070288Y-160168614D01*
X92070288Y-160168614D02*
X92022669Y-160263852D01*
X92022669Y-160263852D02*
X92022669Y-160501947D01*
X92022669Y-160501947D02*
X92070288Y-160597185D01*
X92070288Y-160597185D02*
X92117907Y-160644804D01*
X92117907Y-160644804D02*
X92213145Y-160692423D01*
X92213145Y-160692423D02*
X92308383Y-160692423D01*
X92308383Y-160692423D02*
X92451240Y-160644804D01*
X92451240Y-160644804D02*
X93022669Y-160073376D01*
X93022669Y-160073376D02*
X93022669Y-160692423D01*
X93022669Y-161168614D02*
X93022669Y-161359090D01*
X93022669Y-161359090D02*
X92975050Y-161454328D01*
X92975050Y-161454328D02*
X92927430Y-161501947D01*
X92927430Y-161501947D02*
X92784573Y-161597185D01*
X92784573Y-161597185D02*
X92594097Y-161644804D01*
X92594097Y-161644804D02*
X92213145Y-161644804D01*
X92213145Y-161644804D02*
X92117907Y-161597185D01*
X92117907Y-161597185D02*
X92070288Y-161549566D01*
X92070288Y-161549566D02*
X92022669Y-161454328D01*
X92022669Y-161454328D02*
X92022669Y-161263852D01*
X92022669Y-161263852D02*
X92070288Y-161168614D01*
X92070288Y-161168614D02*
X92117907Y-161120995D01*
X92117907Y-161120995D02*
X92213145Y-161073376D01*
X92213145Y-161073376D02*
X92451240Y-161073376D01*
X92451240Y-161073376D02*
X92546478Y-161120995D01*
X92546478Y-161120995D02*
X92594097Y-161168614D01*
X92594097Y-161168614D02*
X92641716Y-161263852D01*
X92641716Y-161263852D02*
X92641716Y-161454328D01*
X92641716Y-161454328D02*
X92594097Y-161549566D01*
X92594097Y-161549566D02*
X92546478Y-161597185D01*
X92546478Y-161597185D02*
X92451240Y-161644804D01*
X228753919Y-140118614D02*
X227753919Y-140118614D01*
X227753919Y-140118614D02*
X227753919Y-140356709D01*
X227753919Y-140356709D02*
X227801538Y-140499566D01*
X227801538Y-140499566D02*
X227896776Y-140594804D01*
X227896776Y-140594804D02*
X227992014Y-140642423D01*
X227992014Y-140642423D02*
X228182490Y-140690042D01*
X228182490Y-140690042D02*
X228325347Y-140690042D01*
X228325347Y-140690042D02*
X228515823Y-140642423D01*
X228515823Y-140642423D02*
X228611061Y-140594804D01*
X228611061Y-140594804D02*
X228706300Y-140499566D01*
X228706300Y-140499566D02*
X228753919Y-140356709D01*
X228753919Y-140356709D02*
X228753919Y-140118614D01*
X227849157Y-141070995D02*
X227801538Y-141118614D01*
X227801538Y-141118614D02*
X227753919Y-141213852D01*
X227753919Y-141213852D02*
X227753919Y-141451947D01*
X227753919Y-141451947D02*
X227801538Y-141547185D01*
X227801538Y-141547185D02*
X227849157Y-141594804D01*
X227849157Y-141594804D02*
X227944395Y-141642423D01*
X227944395Y-141642423D02*
X228039633Y-141642423D01*
X228039633Y-141642423D02*
X228182490Y-141594804D01*
X228182490Y-141594804D02*
X228753919Y-141023376D01*
X228753919Y-141023376D02*
X228753919Y-141642423D01*
X227849157Y-142023376D02*
X227801538Y-142070995D01*
X227801538Y-142070995D02*
X227753919Y-142166233D01*
X227753919Y-142166233D02*
X227753919Y-142404328D01*
X227753919Y-142404328D02*
X227801538Y-142499566D01*
X227801538Y-142499566D02*
X227849157Y-142547185D01*
X227849157Y-142547185D02*
X227944395Y-142594804D01*
X227944395Y-142594804D02*
X228039633Y-142594804D01*
X228039633Y-142594804D02*
X228182490Y-142547185D01*
X228182490Y-142547185D02*
X228753919Y-141975757D01*
X228753919Y-141975757D02*
X228753919Y-142594804D01*
X90641419Y-140118614D02*
X89641419Y-140118614D01*
X89641419Y-140118614D02*
X89641419Y-140356709D01*
X89641419Y-140356709D02*
X89689038Y-140499566D01*
X89689038Y-140499566D02*
X89784276Y-140594804D01*
X89784276Y-140594804D02*
X89879514Y-140642423D01*
X89879514Y-140642423D02*
X90069990Y-140690042D01*
X90069990Y-140690042D02*
X90212847Y-140690042D01*
X90212847Y-140690042D02*
X90403323Y-140642423D01*
X90403323Y-140642423D02*
X90498561Y-140594804D01*
X90498561Y-140594804D02*
X90593800Y-140499566D01*
X90593800Y-140499566D02*
X90641419Y-140356709D01*
X90641419Y-140356709D02*
X90641419Y-140118614D01*
X90641419Y-141642423D02*
X90641419Y-141070995D01*
X90641419Y-141356709D02*
X89641419Y-141356709D01*
X89641419Y-141356709D02*
X89784276Y-141261471D01*
X89784276Y-141261471D02*
X89879514Y-141166233D01*
X89879514Y-141166233D02*
X89927133Y-141070995D01*
X89641419Y-142547185D02*
X89641419Y-142070995D01*
X89641419Y-142070995D02*
X90117609Y-142023376D01*
X90117609Y-142023376D02*
X90069990Y-142070995D01*
X90069990Y-142070995D02*
X90022371Y-142166233D01*
X90022371Y-142166233D02*
X90022371Y-142404328D01*
X90022371Y-142404328D02*
X90069990Y-142499566D01*
X90069990Y-142499566D02*
X90117609Y-142547185D01*
X90117609Y-142547185D02*
X90212847Y-142594804D01*
X90212847Y-142594804D02*
X90450942Y-142594804D01*
X90450942Y-142594804D02*
X90546180Y-142547185D01*
X90546180Y-142547185D02*
X90593800Y-142499566D01*
X90593800Y-142499566D02*
X90641419Y-142404328D01*
X90641419Y-142404328D02*
X90641419Y-142166233D01*
X90641419Y-142166233D02*
X90593800Y-142070995D01*
X90593800Y-142070995D02*
X90546180Y-142023376D01*
X300191419Y-178218614D02*
X299191419Y-178218614D01*
X299191419Y-178218614D02*
X299191419Y-178456709D01*
X299191419Y-178456709D02*
X299239038Y-178599566D01*
X299239038Y-178599566D02*
X299334276Y-178694804D01*
X299334276Y-178694804D02*
X299429514Y-178742423D01*
X299429514Y-178742423D02*
X299619990Y-178790042D01*
X299619990Y-178790042D02*
X299762847Y-178790042D01*
X299762847Y-178790042D02*
X299953323Y-178742423D01*
X299953323Y-178742423D02*
X300048561Y-178694804D01*
X300048561Y-178694804D02*
X300143800Y-178599566D01*
X300143800Y-178599566D02*
X300191419Y-178456709D01*
X300191419Y-178456709D02*
X300191419Y-178218614D01*
X299191419Y-179694804D02*
X299191419Y-179218614D01*
X299191419Y-179218614D02*
X299667609Y-179170995D01*
X299667609Y-179170995D02*
X299619990Y-179218614D01*
X299619990Y-179218614D02*
X299572371Y-179313852D01*
X299572371Y-179313852D02*
X299572371Y-179551947D01*
X299572371Y-179551947D02*
X299619990Y-179647185D01*
X299619990Y-179647185D02*
X299667609Y-179694804D01*
X299667609Y-179694804D02*
X299762847Y-179742423D01*
X299762847Y-179742423D02*
X300000942Y-179742423D01*
X300000942Y-179742423D02*
X300096180Y-179694804D01*
X300096180Y-179694804D02*
X300143800Y-179647185D01*
X300143800Y-179647185D02*
X300191419Y-179551947D01*
X300191419Y-179551947D02*
X300191419Y-179313852D01*
X300191419Y-179313852D02*
X300143800Y-179218614D01*
X300143800Y-179218614D02*
X300096180Y-179170995D01*
X299286657Y-180123376D02*
X299239038Y-180170995D01*
X299239038Y-180170995D02*
X299191419Y-180266233D01*
X299191419Y-180266233D02*
X299191419Y-180504328D01*
X299191419Y-180504328D02*
X299239038Y-180599566D01*
X299239038Y-180599566D02*
X299286657Y-180647185D01*
X299286657Y-180647185D02*
X299381895Y-180694804D01*
X299381895Y-180694804D02*
X299477133Y-180694804D01*
X299477133Y-180694804D02*
X299619990Y-180647185D01*
X299619990Y-180647185D02*
X300191419Y-180075757D01*
X300191419Y-180075757D02*
X300191419Y-180694804D01*
X123978919Y-121544805D02*
X122978919Y-121544805D01*
X122978919Y-121544805D02*
X122978919Y-121782900D01*
X122978919Y-121782900D02*
X123026538Y-121925757D01*
X123026538Y-121925757D02*
X123121776Y-122020995D01*
X123121776Y-122020995D02*
X123217014Y-122068614D01*
X123217014Y-122068614D02*
X123407490Y-122116233D01*
X123407490Y-122116233D02*
X123550347Y-122116233D01*
X123550347Y-122116233D02*
X123740823Y-122068614D01*
X123740823Y-122068614D02*
X123836061Y-122020995D01*
X123836061Y-122020995D02*
X123931300Y-121925757D01*
X123931300Y-121925757D02*
X123978919Y-121782900D01*
X123978919Y-121782900D02*
X123978919Y-121544805D01*
X122978919Y-122449567D02*
X122978919Y-123068614D01*
X122978919Y-123068614D02*
X123359871Y-122735281D01*
X123359871Y-122735281D02*
X123359871Y-122878138D01*
X123359871Y-122878138D02*
X123407490Y-122973376D01*
X123407490Y-122973376D02*
X123455109Y-123020995D01*
X123455109Y-123020995D02*
X123550347Y-123068614D01*
X123550347Y-123068614D02*
X123788442Y-123068614D01*
X123788442Y-123068614D02*
X123883680Y-123020995D01*
X123883680Y-123020995D02*
X123931300Y-122973376D01*
X123931300Y-122973376D02*
X123978919Y-122878138D01*
X123978919Y-122878138D02*
X123978919Y-122592424D01*
X123978919Y-122592424D02*
X123931300Y-122497186D01*
X123931300Y-122497186D02*
X123883680Y-122449567D01*
X347816419Y-140118614D02*
X346816419Y-140118614D01*
X346816419Y-140118614D02*
X346816419Y-140356709D01*
X346816419Y-140356709D02*
X346864038Y-140499566D01*
X346864038Y-140499566D02*
X346959276Y-140594804D01*
X346959276Y-140594804D02*
X347054514Y-140642423D01*
X347054514Y-140642423D02*
X347244990Y-140690042D01*
X347244990Y-140690042D02*
X347387847Y-140690042D01*
X347387847Y-140690042D02*
X347578323Y-140642423D01*
X347578323Y-140642423D02*
X347673561Y-140594804D01*
X347673561Y-140594804D02*
X347768800Y-140499566D01*
X347768800Y-140499566D02*
X347816419Y-140356709D01*
X347816419Y-140356709D02*
X347816419Y-140118614D01*
X346911657Y-141070995D02*
X346864038Y-141118614D01*
X346864038Y-141118614D02*
X346816419Y-141213852D01*
X346816419Y-141213852D02*
X346816419Y-141451947D01*
X346816419Y-141451947D02*
X346864038Y-141547185D01*
X346864038Y-141547185D02*
X346911657Y-141594804D01*
X346911657Y-141594804D02*
X347006895Y-141642423D01*
X347006895Y-141642423D02*
X347102133Y-141642423D01*
X347102133Y-141642423D02*
X347244990Y-141594804D01*
X347244990Y-141594804D02*
X347816419Y-141023376D01*
X347816419Y-141023376D02*
X347816419Y-141642423D01*
X347244990Y-142213852D02*
X347197371Y-142118614D01*
X347197371Y-142118614D02*
X347149752Y-142070995D01*
X347149752Y-142070995D02*
X347054514Y-142023376D01*
X347054514Y-142023376D02*
X347006895Y-142023376D01*
X347006895Y-142023376D02*
X346911657Y-142070995D01*
X346911657Y-142070995D02*
X346864038Y-142118614D01*
X346864038Y-142118614D02*
X346816419Y-142213852D01*
X346816419Y-142213852D02*
X346816419Y-142404328D01*
X346816419Y-142404328D02*
X346864038Y-142499566D01*
X346864038Y-142499566D02*
X346911657Y-142547185D01*
X346911657Y-142547185D02*
X347006895Y-142594804D01*
X347006895Y-142594804D02*
X347054514Y-142594804D01*
X347054514Y-142594804D02*
X347149752Y-142547185D01*
X347149752Y-142547185D02*
X347197371Y-142499566D01*
X347197371Y-142499566D02*
X347244990Y-142404328D01*
X347244990Y-142404328D02*
X347244990Y-142213852D01*
X347244990Y-142213852D02*
X347292609Y-142118614D01*
X347292609Y-142118614D02*
X347340228Y-142070995D01*
X347340228Y-142070995D02*
X347435466Y-142023376D01*
X347435466Y-142023376D02*
X347625942Y-142023376D01*
X347625942Y-142023376D02*
X347721180Y-142070995D01*
X347721180Y-142070995D02*
X347768800Y-142118614D01*
X347768800Y-142118614D02*
X347816419Y-142213852D01*
X347816419Y-142213852D02*
X347816419Y-142404328D01*
X347816419Y-142404328D02*
X347768800Y-142499566D01*
X347768800Y-142499566D02*
X347721180Y-142547185D01*
X347721180Y-142547185D02*
X347625942Y-142594804D01*
X347625942Y-142594804D02*
X347435466Y-142594804D01*
X347435466Y-142594804D02*
X347340228Y-142547185D01*
X347340228Y-142547185D02*
X347292609Y-142499566D01*
X347292609Y-142499566D02*
X347244990Y-142404328D01*
X190653919Y-140118614D02*
X189653919Y-140118614D01*
X189653919Y-140118614D02*
X189653919Y-140356709D01*
X189653919Y-140356709D02*
X189701538Y-140499566D01*
X189701538Y-140499566D02*
X189796776Y-140594804D01*
X189796776Y-140594804D02*
X189892014Y-140642423D01*
X189892014Y-140642423D02*
X190082490Y-140690042D01*
X190082490Y-140690042D02*
X190225347Y-140690042D01*
X190225347Y-140690042D02*
X190415823Y-140642423D01*
X190415823Y-140642423D02*
X190511061Y-140594804D01*
X190511061Y-140594804D02*
X190606300Y-140499566D01*
X190606300Y-140499566D02*
X190653919Y-140356709D01*
X190653919Y-140356709D02*
X190653919Y-140118614D01*
X189749157Y-141070995D02*
X189701538Y-141118614D01*
X189701538Y-141118614D02*
X189653919Y-141213852D01*
X189653919Y-141213852D02*
X189653919Y-141451947D01*
X189653919Y-141451947D02*
X189701538Y-141547185D01*
X189701538Y-141547185D02*
X189749157Y-141594804D01*
X189749157Y-141594804D02*
X189844395Y-141642423D01*
X189844395Y-141642423D02*
X189939633Y-141642423D01*
X189939633Y-141642423D02*
X190082490Y-141594804D01*
X190082490Y-141594804D02*
X190653919Y-141023376D01*
X190653919Y-141023376D02*
X190653919Y-141642423D01*
X189653919Y-142261471D02*
X189653919Y-142356709D01*
X189653919Y-142356709D02*
X189701538Y-142451947D01*
X189701538Y-142451947D02*
X189749157Y-142499566D01*
X189749157Y-142499566D02*
X189844395Y-142547185D01*
X189844395Y-142547185D02*
X190034871Y-142594804D01*
X190034871Y-142594804D02*
X190272966Y-142594804D01*
X190272966Y-142594804D02*
X190463442Y-142547185D01*
X190463442Y-142547185D02*
X190558680Y-142499566D01*
X190558680Y-142499566D02*
X190606300Y-142451947D01*
X190606300Y-142451947D02*
X190653919Y-142356709D01*
X190653919Y-142356709D02*
X190653919Y-142261471D01*
X190653919Y-142261471D02*
X190606300Y-142166233D01*
X190606300Y-142166233D02*
X190558680Y-142118614D01*
X190558680Y-142118614D02*
X190463442Y-142070995D01*
X190463442Y-142070995D02*
X190272966Y-142023376D01*
X190272966Y-142023376D02*
X190034871Y-142023376D01*
X190034871Y-142023376D02*
X189844395Y-142070995D01*
X189844395Y-142070995D02*
X189749157Y-142118614D01*
X189749157Y-142118614D02*
X189701538Y-142166233D01*
X189701538Y-142166233D02*
X189653919Y-142261471D01*
X340672669Y-159168614D02*
X339672669Y-159168614D01*
X339672669Y-159168614D02*
X339672669Y-159406709D01*
X339672669Y-159406709D02*
X339720288Y-159549566D01*
X339720288Y-159549566D02*
X339815526Y-159644804D01*
X339815526Y-159644804D02*
X339910764Y-159692423D01*
X339910764Y-159692423D02*
X340101240Y-159740042D01*
X340101240Y-159740042D02*
X340244097Y-159740042D01*
X340244097Y-159740042D02*
X340434573Y-159692423D01*
X340434573Y-159692423D02*
X340529811Y-159644804D01*
X340529811Y-159644804D02*
X340625050Y-159549566D01*
X340625050Y-159549566D02*
X340672669Y-159406709D01*
X340672669Y-159406709D02*
X340672669Y-159168614D01*
X340006002Y-160597185D02*
X340672669Y-160597185D01*
X339625050Y-160359090D02*
X340339335Y-160120995D01*
X340339335Y-160120995D02*
X340339335Y-160740042D01*
X340672669Y-161644804D02*
X340672669Y-161073376D01*
X340672669Y-161359090D02*
X339672669Y-161359090D01*
X339672669Y-161359090D02*
X339815526Y-161263852D01*
X339815526Y-161263852D02*
X339910764Y-161168614D01*
X339910764Y-161168614D02*
X339958383Y-161073376D01*
X176366419Y-159168614D02*
X175366419Y-159168614D01*
X175366419Y-159168614D02*
X175366419Y-159406709D01*
X175366419Y-159406709D02*
X175414038Y-159549566D01*
X175414038Y-159549566D02*
X175509276Y-159644804D01*
X175509276Y-159644804D02*
X175604514Y-159692423D01*
X175604514Y-159692423D02*
X175794990Y-159740042D01*
X175794990Y-159740042D02*
X175937847Y-159740042D01*
X175937847Y-159740042D02*
X176128323Y-159692423D01*
X176128323Y-159692423D02*
X176223561Y-159644804D01*
X176223561Y-159644804D02*
X176318800Y-159549566D01*
X176318800Y-159549566D02*
X176366419Y-159406709D01*
X176366419Y-159406709D02*
X176366419Y-159168614D01*
X175366419Y-160073376D02*
X175366419Y-160692423D01*
X175366419Y-160692423D02*
X175747371Y-160359090D01*
X175747371Y-160359090D02*
X175747371Y-160501947D01*
X175747371Y-160501947D02*
X175794990Y-160597185D01*
X175794990Y-160597185D02*
X175842609Y-160644804D01*
X175842609Y-160644804D02*
X175937847Y-160692423D01*
X175937847Y-160692423D02*
X176175942Y-160692423D01*
X176175942Y-160692423D02*
X176271180Y-160644804D01*
X176271180Y-160644804D02*
X176318800Y-160597185D01*
X176318800Y-160597185D02*
X176366419Y-160501947D01*
X176366419Y-160501947D02*
X176366419Y-160216233D01*
X176366419Y-160216233D02*
X176318800Y-160120995D01*
X176318800Y-160120995D02*
X176271180Y-160073376D01*
X175366419Y-161025757D02*
X175366419Y-161644804D01*
X175366419Y-161644804D02*
X175747371Y-161311471D01*
X175747371Y-161311471D02*
X175747371Y-161454328D01*
X175747371Y-161454328D02*
X175794990Y-161549566D01*
X175794990Y-161549566D02*
X175842609Y-161597185D01*
X175842609Y-161597185D02*
X175937847Y-161644804D01*
X175937847Y-161644804D02*
X176175942Y-161644804D01*
X176175942Y-161644804D02*
X176271180Y-161597185D01*
X176271180Y-161597185D02*
X176318800Y-161549566D01*
X176318800Y-161549566D02*
X176366419Y-161454328D01*
X176366419Y-161454328D02*
X176366419Y-161168614D01*
X176366419Y-161168614D02*
X176318800Y-161073376D01*
X176318800Y-161073376D02*
X176271180Y-161025757D01*
X219228919Y-121544805D02*
X218228919Y-121544805D01*
X218228919Y-121544805D02*
X218228919Y-121782900D01*
X218228919Y-121782900D02*
X218276538Y-121925757D01*
X218276538Y-121925757D02*
X218371776Y-122020995D01*
X218371776Y-122020995D02*
X218467014Y-122068614D01*
X218467014Y-122068614D02*
X218657490Y-122116233D01*
X218657490Y-122116233D02*
X218800347Y-122116233D01*
X218800347Y-122116233D02*
X218990823Y-122068614D01*
X218990823Y-122068614D02*
X219086061Y-122020995D01*
X219086061Y-122020995D02*
X219181300Y-121925757D01*
X219181300Y-121925757D02*
X219228919Y-121782900D01*
X219228919Y-121782900D02*
X219228919Y-121544805D01*
X218657490Y-122687662D02*
X218609871Y-122592424D01*
X218609871Y-122592424D02*
X218562252Y-122544805D01*
X218562252Y-122544805D02*
X218467014Y-122497186D01*
X218467014Y-122497186D02*
X218419395Y-122497186D01*
X218419395Y-122497186D02*
X218324157Y-122544805D01*
X218324157Y-122544805D02*
X218276538Y-122592424D01*
X218276538Y-122592424D02*
X218228919Y-122687662D01*
X218228919Y-122687662D02*
X218228919Y-122878138D01*
X218228919Y-122878138D02*
X218276538Y-122973376D01*
X218276538Y-122973376D02*
X218324157Y-123020995D01*
X218324157Y-123020995D02*
X218419395Y-123068614D01*
X218419395Y-123068614D02*
X218467014Y-123068614D01*
X218467014Y-123068614D02*
X218562252Y-123020995D01*
X218562252Y-123020995D02*
X218609871Y-122973376D01*
X218609871Y-122973376D02*
X218657490Y-122878138D01*
X218657490Y-122878138D02*
X218657490Y-122687662D01*
X218657490Y-122687662D02*
X218705109Y-122592424D01*
X218705109Y-122592424D02*
X218752728Y-122544805D01*
X218752728Y-122544805D02*
X218847966Y-122497186D01*
X218847966Y-122497186D02*
X219038442Y-122497186D01*
X219038442Y-122497186D02*
X219133680Y-122544805D01*
X219133680Y-122544805D02*
X219181300Y-122592424D01*
X219181300Y-122592424D02*
X219228919Y-122687662D01*
X219228919Y-122687662D02*
X219228919Y-122878138D01*
X219228919Y-122878138D02*
X219181300Y-122973376D01*
X219181300Y-122973376D02*
X219133680Y-123020995D01*
X219133680Y-123020995D02*
X219038442Y-123068614D01*
X219038442Y-123068614D02*
X218847966Y-123068614D01*
X218847966Y-123068614D02*
X218752728Y-123020995D01*
X218752728Y-123020995D02*
X218705109Y-122973376D01*
X218705109Y-122973376D02*
X218657490Y-122878138D01*
X104928919Y-121544805D02*
X103928919Y-121544805D01*
X103928919Y-121544805D02*
X103928919Y-121782900D01*
X103928919Y-121782900D02*
X103976538Y-121925757D01*
X103976538Y-121925757D02*
X104071776Y-122020995D01*
X104071776Y-122020995D02*
X104167014Y-122068614D01*
X104167014Y-122068614D02*
X104357490Y-122116233D01*
X104357490Y-122116233D02*
X104500347Y-122116233D01*
X104500347Y-122116233D02*
X104690823Y-122068614D01*
X104690823Y-122068614D02*
X104786061Y-122020995D01*
X104786061Y-122020995D02*
X104881300Y-121925757D01*
X104881300Y-121925757D02*
X104928919Y-121782900D01*
X104928919Y-121782900D02*
X104928919Y-121544805D01*
X104024157Y-122497186D02*
X103976538Y-122544805D01*
X103976538Y-122544805D02*
X103928919Y-122640043D01*
X103928919Y-122640043D02*
X103928919Y-122878138D01*
X103928919Y-122878138D02*
X103976538Y-122973376D01*
X103976538Y-122973376D02*
X104024157Y-123020995D01*
X104024157Y-123020995D02*
X104119395Y-123068614D01*
X104119395Y-123068614D02*
X104214633Y-123068614D01*
X104214633Y-123068614D02*
X104357490Y-123020995D01*
X104357490Y-123020995D02*
X104928919Y-122449567D01*
X104928919Y-122449567D02*
X104928919Y-123068614D01*
X166841419Y-178218614D02*
X165841419Y-178218614D01*
X165841419Y-178218614D02*
X165841419Y-178456709D01*
X165841419Y-178456709D02*
X165889038Y-178599566D01*
X165889038Y-178599566D02*
X165984276Y-178694804D01*
X165984276Y-178694804D02*
X166079514Y-178742423D01*
X166079514Y-178742423D02*
X166269990Y-178790042D01*
X166269990Y-178790042D02*
X166412847Y-178790042D01*
X166412847Y-178790042D02*
X166603323Y-178742423D01*
X166603323Y-178742423D02*
X166698561Y-178694804D01*
X166698561Y-178694804D02*
X166793800Y-178599566D01*
X166793800Y-178599566D02*
X166841419Y-178456709D01*
X166841419Y-178456709D02*
X166841419Y-178218614D01*
X166174752Y-179647185D02*
X166841419Y-179647185D01*
X165793800Y-179409090D02*
X166508085Y-179170995D01*
X166508085Y-179170995D02*
X166508085Y-179790042D01*
X165841419Y-180647185D02*
X165841419Y-180170995D01*
X165841419Y-180170995D02*
X166317609Y-180123376D01*
X166317609Y-180123376D02*
X166269990Y-180170995D01*
X166269990Y-180170995D02*
X166222371Y-180266233D01*
X166222371Y-180266233D02*
X166222371Y-180504328D01*
X166222371Y-180504328D02*
X166269990Y-180599566D01*
X166269990Y-180599566D02*
X166317609Y-180647185D01*
X166317609Y-180647185D02*
X166412847Y-180694804D01*
X166412847Y-180694804D02*
X166650942Y-180694804D01*
X166650942Y-180694804D02*
X166746180Y-180647185D01*
X166746180Y-180647185D02*
X166793800Y-180599566D01*
X166793800Y-180599566D02*
X166841419Y-180504328D01*
X166841419Y-180504328D02*
X166841419Y-180266233D01*
X166841419Y-180266233D02*
X166793800Y-180170995D01*
X166793800Y-180170995D02*
X166746180Y-180123376D01*
X152553919Y-140118614D02*
X151553919Y-140118614D01*
X151553919Y-140118614D02*
X151553919Y-140356709D01*
X151553919Y-140356709D02*
X151601538Y-140499566D01*
X151601538Y-140499566D02*
X151696776Y-140594804D01*
X151696776Y-140594804D02*
X151792014Y-140642423D01*
X151792014Y-140642423D02*
X151982490Y-140690042D01*
X151982490Y-140690042D02*
X152125347Y-140690042D01*
X152125347Y-140690042D02*
X152315823Y-140642423D01*
X152315823Y-140642423D02*
X152411061Y-140594804D01*
X152411061Y-140594804D02*
X152506300Y-140499566D01*
X152506300Y-140499566D02*
X152553919Y-140356709D01*
X152553919Y-140356709D02*
X152553919Y-140118614D01*
X152553919Y-141642423D02*
X152553919Y-141070995D01*
X152553919Y-141356709D02*
X151553919Y-141356709D01*
X151553919Y-141356709D02*
X151696776Y-141261471D01*
X151696776Y-141261471D02*
X151792014Y-141166233D01*
X151792014Y-141166233D02*
X151839633Y-141070995D01*
X151982490Y-142213852D02*
X151934871Y-142118614D01*
X151934871Y-142118614D02*
X151887252Y-142070995D01*
X151887252Y-142070995D02*
X151792014Y-142023376D01*
X151792014Y-142023376D02*
X151744395Y-142023376D01*
X151744395Y-142023376D02*
X151649157Y-142070995D01*
X151649157Y-142070995D02*
X151601538Y-142118614D01*
X151601538Y-142118614D02*
X151553919Y-142213852D01*
X151553919Y-142213852D02*
X151553919Y-142404328D01*
X151553919Y-142404328D02*
X151601538Y-142499566D01*
X151601538Y-142499566D02*
X151649157Y-142547185D01*
X151649157Y-142547185D02*
X151744395Y-142594804D01*
X151744395Y-142594804D02*
X151792014Y-142594804D01*
X151792014Y-142594804D02*
X151887252Y-142547185D01*
X151887252Y-142547185D02*
X151934871Y-142499566D01*
X151934871Y-142499566D02*
X151982490Y-142404328D01*
X151982490Y-142404328D02*
X151982490Y-142213852D01*
X151982490Y-142213852D02*
X152030109Y-142118614D01*
X152030109Y-142118614D02*
X152077728Y-142070995D01*
X152077728Y-142070995D02*
X152172966Y-142023376D01*
X152172966Y-142023376D02*
X152363442Y-142023376D01*
X152363442Y-142023376D02*
X152458680Y-142070995D01*
X152458680Y-142070995D02*
X152506300Y-142118614D01*
X152506300Y-142118614D02*
X152553919Y-142213852D01*
X152553919Y-142213852D02*
X152553919Y-142404328D01*
X152553919Y-142404328D02*
X152506300Y-142499566D01*
X152506300Y-142499566D02*
X152458680Y-142547185D01*
X152458680Y-142547185D02*
X152363442Y-142594804D01*
X152363442Y-142594804D02*
X152172966Y-142594804D01*
X152172966Y-142594804D02*
X152077728Y-142547185D01*
X152077728Y-142547185D02*
X152030109Y-142499566D01*
X152030109Y-142499566D02*
X151982490Y-142404328D01*
X138266419Y-159168614D02*
X137266419Y-159168614D01*
X137266419Y-159168614D02*
X137266419Y-159406709D01*
X137266419Y-159406709D02*
X137314038Y-159549566D01*
X137314038Y-159549566D02*
X137409276Y-159644804D01*
X137409276Y-159644804D02*
X137504514Y-159692423D01*
X137504514Y-159692423D02*
X137694990Y-159740042D01*
X137694990Y-159740042D02*
X137837847Y-159740042D01*
X137837847Y-159740042D02*
X138028323Y-159692423D01*
X138028323Y-159692423D02*
X138123561Y-159644804D01*
X138123561Y-159644804D02*
X138218800Y-159549566D01*
X138218800Y-159549566D02*
X138266419Y-159406709D01*
X138266419Y-159406709D02*
X138266419Y-159168614D01*
X137266419Y-160073376D02*
X137266419Y-160692423D01*
X137266419Y-160692423D02*
X137647371Y-160359090D01*
X137647371Y-160359090D02*
X137647371Y-160501947D01*
X137647371Y-160501947D02*
X137694990Y-160597185D01*
X137694990Y-160597185D02*
X137742609Y-160644804D01*
X137742609Y-160644804D02*
X137837847Y-160692423D01*
X137837847Y-160692423D02*
X138075942Y-160692423D01*
X138075942Y-160692423D02*
X138171180Y-160644804D01*
X138171180Y-160644804D02*
X138218800Y-160597185D01*
X138218800Y-160597185D02*
X138266419Y-160501947D01*
X138266419Y-160501947D02*
X138266419Y-160216233D01*
X138266419Y-160216233D02*
X138218800Y-160120995D01*
X138218800Y-160120995D02*
X138171180Y-160073376D01*
X138266419Y-161644804D02*
X138266419Y-161073376D01*
X138266419Y-161359090D02*
X137266419Y-161359090D01*
X137266419Y-161359090D02*
X137409276Y-161263852D01*
X137409276Y-161263852D02*
X137504514Y-161168614D01*
X137504514Y-161168614D02*
X137552133Y-161073376D01*
X135885169Y-197268614D02*
X134885169Y-197268614D01*
X134885169Y-197268614D02*
X134885169Y-197506709D01*
X134885169Y-197506709D02*
X134932788Y-197649566D01*
X134932788Y-197649566D02*
X135028026Y-197744804D01*
X135028026Y-197744804D02*
X135123264Y-197792423D01*
X135123264Y-197792423D02*
X135313740Y-197840042D01*
X135313740Y-197840042D02*
X135456597Y-197840042D01*
X135456597Y-197840042D02*
X135647073Y-197792423D01*
X135647073Y-197792423D02*
X135742311Y-197744804D01*
X135742311Y-197744804D02*
X135837550Y-197649566D01*
X135837550Y-197649566D02*
X135885169Y-197506709D01*
X135885169Y-197506709D02*
X135885169Y-197268614D01*
X134885169Y-198744804D02*
X134885169Y-198268614D01*
X134885169Y-198268614D02*
X135361359Y-198220995D01*
X135361359Y-198220995D02*
X135313740Y-198268614D01*
X135313740Y-198268614D02*
X135266121Y-198363852D01*
X135266121Y-198363852D02*
X135266121Y-198601947D01*
X135266121Y-198601947D02*
X135313740Y-198697185D01*
X135313740Y-198697185D02*
X135361359Y-198744804D01*
X135361359Y-198744804D02*
X135456597Y-198792423D01*
X135456597Y-198792423D02*
X135694692Y-198792423D01*
X135694692Y-198792423D02*
X135789930Y-198744804D01*
X135789930Y-198744804D02*
X135837550Y-198697185D01*
X135837550Y-198697185D02*
X135885169Y-198601947D01*
X135885169Y-198601947D02*
X135885169Y-198363852D01*
X135885169Y-198363852D02*
X135837550Y-198268614D01*
X135837550Y-198268614D02*
X135789930Y-198220995D01*
X134885169Y-199649566D02*
X134885169Y-199459090D01*
X134885169Y-199459090D02*
X134932788Y-199363852D01*
X134932788Y-199363852D02*
X134980407Y-199316233D01*
X134980407Y-199316233D02*
X135123264Y-199220995D01*
X135123264Y-199220995D02*
X135313740Y-199173376D01*
X135313740Y-199173376D02*
X135694692Y-199173376D01*
X135694692Y-199173376D02*
X135789930Y-199220995D01*
X135789930Y-199220995D02*
X135837550Y-199268614D01*
X135837550Y-199268614D02*
X135885169Y-199363852D01*
X135885169Y-199363852D02*
X135885169Y-199554328D01*
X135885169Y-199554328D02*
X135837550Y-199649566D01*
X135837550Y-199649566D02*
X135789930Y-199697185D01*
X135789930Y-199697185D02*
X135694692Y-199744804D01*
X135694692Y-199744804D02*
X135456597Y-199744804D01*
X135456597Y-199744804D02*
X135361359Y-199697185D01*
X135361359Y-199697185D02*
X135313740Y-199649566D01*
X135313740Y-199649566D02*
X135266121Y-199554328D01*
X135266121Y-199554328D02*
X135266121Y-199363852D01*
X135266121Y-199363852D02*
X135313740Y-199268614D01*
X135313740Y-199268614D02*
X135361359Y-199220995D01*
X135361359Y-199220995D02*
X135456597Y-199173376D01*
X147791419Y-178218614D02*
X146791419Y-178218614D01*
X146791419Y-178218614D02*
X146791419Y-178456709D01*
X146791419Y-178456709D02*
X146839038Y-178599566D01*
X146839038Y-178599566D02*
X146934276Y-178694804D01*
X146934276Y-178694804D02*
X147029514Y-178742423D01*
X147029514Y-178742423D02*
X147219990Y-178790042D01*
X147219990Y-178790042D02*
X147362847Y-178790042D01*
X147362847Y-178790042D02*
X147553323Y-178742423D01*
X147553323Y-178742423D02*
X147648561Y-178694804D01*
X147648561Y-178694804D02*
X147743800Y-178599566D01*
X147743800Y-178599566D02*
X147791419Y-178456709D01*
X147791419Y-178456709D02*
X147791419Y-178218614D01*
X147124752Y-179647185D02*
X147791419Y-179647185D01*
X146743800Y-179409090D02*
X147458085Y-179170995D01*
X147458085Y-179170995D02*
X147458085Y-179790042D01*
X147124752Y-180599566D02*
X147791419Y-180599566D01*
X146743800Y-180361471D02*
X147458085Y-180123376D01*
X147458085Y-180123376D02*
X147458085Y-180742423D01*
X276378919Y-121068614D02*
X275378919Y-121068614D01*
X275378919Y-121068614D02*
X275378919Y-121306709D01*
X275378919Y-121306709D02*
X275426538Y-121449566D01*
X275426538Y-121449566D02*
X275521776Y-121544804D01*
X275521776Y-121544804D02*
X275617014Y-121592423D01*
X275617014Y-121592423D02*
X275807490Y-121640042D01*
X275807490Y-121640042D02*
X275950347Y-121640042D01*
X275950347Y-121640042D02*
X276140823Y-121592423D01*
X276140823Y-121592423D02*
X276236061Y-121544804D01*
X276236061Y-121544804D02*
X276331300Y-121449566D01*
X276331300Y-121449566D02*
X276378919Y-121306709D01*
X276378919Y-121306709D02*
X276378919Y-121068614D01*
X276378919Y-122592423D02*
X276378919Y-122020995D01*
X276378919Y-122306709D02*
X275378919Y-122306709D01*
X275378919Y-122306709D02*
X275521776Y-122211471D01*
X275521776Y-122211471D02*
X275617014Y-122116233D01*
X275617014Y-122116233D02*
X275664633Y-122020995D01*
X276378919Y-123544804D02*
X276378919Y-122973376D01*
X276378919Y-123259090D02*
X275378919Y-123259090D01*
X275378919Y-123259090D02*
X275521776Y-123163852D01*
X275521776Y-123163852D02*
X275617014Y-123068614D01*
X275617014Y-123068614D02*
X275664633Y-122973376D01*
X350197669Y-197268614D02*
X349197669Y-197268614D01*
X349197669Y-197268614D02*
X349197669Y-197506709D01*
X349197669Y-197506709D02*
X349245288Y-197649566D01*
X349245288Y-197649566D02*
X349340526Y-197744804D01*
X349340526Y-197744804D02*
X349435764Y-197792423D01*
X349435764Y-197792423D02*
X349626240Y-197840042D01*
X349626240Y-197840042D02*
X349769097Y-197840042D01*
X349769097Y-197840042D02*
X349959573Y-197792423D01*
X349959573Y-197792423D02*
X350054811Y-197744804D01*
X350054811Y-197744804D02*
X350150050Y-197649566D01*
X350150050Y-197649566D02*
X350197669Y-197506709D01*
X350197669Y-197506709D02*
X350197669Y-197268614D01*
X349197669Y-198697185D02*
X349197669Y-198506709D01*
X349197669Y-198506709D02*
X349245288Y-198411471D01*
X349245288Y-198411471D02*
X349292907Y-198363852D01*
X349292907Y-198363852D02*
X349435764Y-198268614D01*
X349435764Y-198268614D02*
X349626240Y-198220995D01*
X349626240Y-198220995D02*
X350007192Y-198220995D01*
X350007192Y-198220995D02*
X350102430Y-198268614D01*
X350102430Y-198268614D02*
X350150050Y-198316233D01*
X350150050Y-198316233D02*
X350197669Y-198411471D01*
X350197669Y-198411471D02*
X350197669Y-198601947D01*
X350197669Y-198601947D02*
X350150050Y-198697185D01*
X350150050Y-198697185D02*
X350102430Y-198744804D01*
X350102430Y-198744804D02*
X350007192Y-198792423D01*
X350007192Y-198792423D02*
X349769097Y-198792423D01*
X349769097Y-198792423D02*
X349673859Y-198744804D01*
X349673859Y-198744804D02*
X349626240Y-198697185D01*
X349626240Y-198697185D02*
X349578621Y-198601947D01*
X349578621Y-198601947D02*
X349578621Y-198411471D01*
X349578621Y-198411471D02*
X349626240Y-198316233D01*
X349626240Y-198316233D02*
X349673859Y-198268614D01*
X349673859Y-198268614D02*
X349769097Y-198220995D01*
X350197669Y-199744804D02*
X350197669Y-199173376D01*
X350197669Y-199459090D02*
X349197669Y-199459090D01*
X349197669Y-199459090D02*
X349340526Y-199363852D01*
X349340526Y-199363852D02*
X349435764Y-199268614D01*
X349435764Y-199268614D02*
X349483383Y-199173376D01*
X252566419Y-159168614D02*
X251566419Y-159168614D01*
X251566419Y-159168614D02*
X251566419Y-159406709D01*
X251566419Y-159406709D02*
X251614038Y-159549566D01*
X251614038Y-159549566D02*
X251709276Y-159644804D01*
X251709276Y-159644804D02*
X251804514Y-159692423D01*
X251804514Y-159692423D02*
X251994990Y-159740042D01*
X251994990Y-159740042D02*
X252137847Y-159740042D01*
X252137847Y-159740042D02*
X252328323Y-159692423D01*
X252328323Y-159692423D02*
X252423561Y-159644804D01*
X252423561Y-159644804D02*
X252518800Y-159549566D01*
X252518800Y-159549566D02*
X252566419Y-159406709D01*
X252566419Y-159406709D02*
X252566419Y-159168614D01*
X251566419Y-160073376D02*
X251566419Y-160692423D01*
X251566419Y-160692423D02*
X251947371Y-160359090D01*
X251947371Y-160359090D02*
X251947371Y-160501947D01*
X251947371Y-160501947D02*
X251994990Y-160597185D01*
X251994990Y-160597185D02*
X252042609Y-160644804D01*
X252042609Y-160644804D02*
X252137847Y-160692423D01*
X252137847Y-160692423D02*
X252375942Y-160692423D01*
X252375942Y-160692423D02*
X252471180Y-160644804D01*
X252471180Y-160644804D02*
X252518800Y-160597185D01*
X252518800Y-160597185D02*
X252566419Y-160501947D01*
X252566419Y-160501947D02*
X252566419Y-160216233D01*
X252566419Y-160216233D02*
X252518800Y-160120995D01*
X252518800Y-160120995D02*
X252471180Y-160073376D01*
X251566419Y-161025757D02*
X251566419Y-161692423D01*
X251566419Y-161692423D02*
X252566419Y-161263852D01*
X290666419Y-159168614D02*
X289666419Y-159168614D01*
X289666419Y-159168614D02*
X289666419Y-159406709D01*
X289666419Y-159406709D02*
X289714038Y-159549566D01*
X289714038Y-159549566D02*
X289809276Y-159644804D01*
X289809276Y-159644804D02*
X289904514Y-159692423D01*
X289904514Y-159692423D02*
X290094990Y-159740042D01*
X290094990Y-159740042D02*
X290237847Y-159740042D01*
X290237847Y-159740042D02*
X290428323Y-159692423D01*
X290428323Y-159692423D02*
X290523561Y-159644804D01*
X290523561Y-159644804D02*
X290618800Y-159549566D01*
X290618800Y-159549566D02*
X290666419Y-159406709D01*
X290666419Y-159406709D02*
X290666419Y-159168614D01*
X289666419Y-160073376D02*
X289666419Y-160692423D01*
X289666419Y-160692423D02*
X290047371Y-160359090D01*
X290047371Y-160359090D02*
X290047371Y-160501947D01*
X290047371Y-160501947D02*
X290094990Y-160597185D01*
X290094990Y-160597185D02*
X290142609Y-160644804D01*
X290142609Y-160644804D02*
X290237847Y-160692423D01*
X290237847Y-160692423D02*
X290475942Y-160692423D01*
X290475942Y-160692423D02*
X290571180Y-160644804D01*
X290571180Y-160644804D02*
X290618800Y-160597185D01*
X290618800Y-160597185D02*
X290666419Y-160501947D01*
X290666419Y-160501947D02*
X290666419Y-160216233D01*
X290666419Y-160216233D02*
X290618800Y-160120995D01*
X290618800Y-160120995D02*
X290571180Y-160073376D01*
X290666419Y-161168614D02*
X290666419Y-161359090D01*
X290666419Y-161359090D02*
X290618800Y-161454328D01*
X290618800Y-161454328D02*
X290571180Y-161501947D01*
X290571180Y-161501947D02*
X290428323Y-161597185D01*
X290428323Y-161597185D02*
X290237847Y-161644804D01*
X290237847Y-161644804D02*
X289856895Y-161644804D01*
X289856895Y-161644804D02*
X289761657Y-161597185D01*
X289761657Y-161597185D02*
X289714038Y-161549566D01*
X289714038Y-161549566D02*
X289666419Y-161454328D01*
X289666419Y-161454328D02*
X289666419Y-161263852D01*
X289666419Y-161263852D02*
X289714038Y-161168614D01*
X289714038Y-161168614D02*
X289761657Y-161120995D01*
X289761657Y-161120995D02*
X289856895Y-161073376D01*
X289856895Y-161073376D02*
X290094990Y-161073376D01*
X290094990Y-161073376D02*
X290190228Y-161120995D01*
X290190228Y-161120995D02*
X290237847Y-161168614D01*
X290237847Y-161168614D02*
X290285466Y-161263852D01*
X290285466Y-161263852D02*
X290285466Y-161454328D01*
X290285466Y-161454328D02*
X290237847Y-161549566D01*
X290237847Y-161549566D02*
X290190228Y-161597185D01*
X290190228Y-161597185D02*
X290094990Y-161644804D01*
X314478919Y-121068614D02*
X313478919Y-121068614D01*
X313478919Y-121068614D02*
X313478919Y-121306709D01*
X313478919Y-121306709D02*
X313526538Y-121449566D01*
X313526538Y-121449566D02*
X313621776Y-121544804D01*
X313621776Y-121544804D02*
X313717014Y-121592423D01*
X313717014Y-121592423D02*
X313907490Y-121640042D01*
X313907490Y-121640042D02*
X314050347Y-121640042D01*
X314050347Y-121640042D02*
X314240823Y-121592423D01*
X314240823Y-121592423D02*
X314336061Y-121544804D01*
X314336061Y-121544804D02*
X314431300Y-121449566D01*
X314431300Y-121449566D02*
X314478919Y-121306709D01*
X314478919Y-121306709D02*
X314478919Y-121068614D01*
X314478919Y-122592423D02*
X314478919Y-122020995D01*
X314478919Y-122306709D02*
X313478919Y-122306709D01*
X313478919Y-122306709D02*
X313621776Y-122211471D01*
X313621776Y-122211471D02*
X313717014Y-122116233D01*
X313717014Y-122116233D02*
X313764633Y-122020995D01*
X313478919Y-122925757D02*
X313478919Y-123544804D01*
X313478919Y-123544804D02*
X313859871Y-123211471D01*
X313859871Y-123211471D02*
X313859871Y-123354328D01*
X313859871Y-123354328D02*
X313907490Y-123449566D01*
X313907490Y-123449566D02*
X313955109Y-123497185D01*
X313955109Y-123497185D02*
X314050347Y-123544804D01*
X314050347Y-123544804D02*
X314288442Y-123544804D01*
X314288442Y-123544804D02*
X314383680Y-123497185D01*
X314383680Y-123497185D02*
X314431300Y-123449566D01*
X314431300Y-123449566D02*
X314478919Y-123354328D01*
X314478919Y-123354328D02*
X314478919Y-123068614D01*
X314478919Y-123068614D02*
X314431300Y-122973376D01*
X314431300Y-122973376D02*
X314383680Y-122925757D01*
X271616419Y-159168614D02*
X270616419Y-159168614D01*
X270616419Y-159168614D02*
X270616419Y-159406709D01*
X270616419Y-159406709D02*
X270664038Y-159549566D01*
X270664038Y-159549566D02*
X270759276Y-159644804D01*
X270759276Y-159644804D02*
X270854514Y-159692423D01*
X270854514Y-159692423D02*
X271044990Y-159740042D01*
X271044990Y-159740042D02*
X271187847Y-159740042D01*
X271187847Y-159740042D02*
X271378323Y-159692423D01*
X271378323Y-159692423D02*
X271473561Y-159644804D01*
X271473561Y-159644804D02*
X271568800Y-159549566D01*
X271568800Y-159549566D02*
X271616419Y-159406709D01*
X271616419Y-159406709D02*
X271616419Y-159168614D01*
X270616419Y-160073376D02*
X270616419Y-160692423D01*
X270616419Y-160692423D02*
X270997371Y-160359090D01*
X270997371Y-160359090D02*
X270997371Y-160501947D01*
X270997371Y-160501947D02*
X271044990Y-160597185D01*
X271044990Y-160597185D02*
X271092609Y-160644804D01*
X271092609Y-160644804D02*
X271187847Y-160692423D01*
X271187847Y-160692423D02*
X271425942Y-160692423D01*
X271425942Y-160692423D02*
X271521180Y-160644804D01*
X271521180Y-160644804D02*
X271568800Y-160597185D01*
X271568800Y-160597185D02*
X271616419Y-160501947D01*
X271616419Y-160501947D02*
X271616419Y-160216233D01*
X271616419Y-160216233D02*
X271568800Y-160120995D01*
X271568800Y-160120995D02*
X271521180Y-160073376D01*
X271044990Y-161263852D02*
X270997371Y-161168614D01*
X270997371Y-161168614D02*
X270949752Y-161120995D01*
X270949752Y-161120995D02*
X270854514Y-161073376D01*
X270854514Y-161073376D02*
X270806895Y-161073376D01*
X270806895Y-161073376D02*
X270711657Y-161120995D01*
X270711657Y-161120995D02*
X270664038Y-161168614D01*
X270664038Y-161168614D02*
X270616419Y-161263852D01*
X270616419Y-161263852D02*
X270616419Y-161454328D01*
X270616419Y-161454328D02*
X270664038Y-161549566D01*
X270664038Y-161549566D02*
X270711657Y-161597185D01*
X270711657Y-161597185D02*
X270806895Y-161644804D01*
X270806895Y-161644804D02*
X270854514Y-161644804D01*
X270854514Y-161644804D02*
X270949752Y-161597185D01*
X270949752Y-161597185D02*
X270997371Y-161549566D01*
X270997371Y-161549566D02*
X271044990Y-161454328D01*
X271044990Y-161454328D02*
X271044990Y-161263852D01*
X271044990Y-161263852D02*
X271092609Y-161168614D01*
X271092609Y-161168614D02*
X271140228Y-161120995D01*
X271140228Y-161120995D02*
X271235466Y-161073376D01*
X271235466Y-161073376D02*
X271425942Y-161073376D01*
X271425942Y-161073376D02*
X271521180Y-161120995D01*
X271521180Y-161120995D02*
X271568800Y-161168614D01*
X271568800Y-161168614D02*
X271616419Y-161263852D01*
X271616419Y-161263852D02*
X271616419Y-161454328D01*
X271616419Y-161454328D02*
X271568800Y-161549566D01*
X271568800Y-161549566D02*
X271521180Y-161597185D01*
X271521180Y-161597185D02*
X271425942Y-161644804D01*
X271425942Y-161644804D02*
X271235466Y-161644804D01*
X271235466Y-161644804D02*
X271140228Y-161597185D01*
X271140228Y-161597185D02*
X271092609Y-161549566D01*
X271092609Y-161549566D02*
X271044990Y-161454328D01*
X209703919Y-140118614D02*
X208703919Y-140118614D01*
X208703919Y-140118614D02*
X208703919Y-140356709D01*
X208703919Y-140356709D02*
X208751538Y-140499566D01*
X208751538Y-140499566D02*
X208846776Y-140594804D01*
X208846776Y-140594804D02*
X208942014Y-140642423D01*
X208942014Y-140642423D02*
X209132490Y-140690042D01*
X209132490Y-140690042D02*
X209275347Y-140690042D01*
X209275347Y-140690042D02*
X209465823Y-140642423D01*
X209465823Y-140642423D02*
X209561061Y-140594804D01*
X209561061Y-140594804D02*
X209656300Y-140499566D01*
X209656300Y-140499566D02*
X209703919Y-140356709D01*
X209703919Y-140356709D02*
X209703919Y-140118614D01*
X208799157Y-141070995D02*
X208751538Y-141118614D01*
X208751538Y-141118614D02*
X208703919Y-141213852D01*
X208703919Y-141213852D02*
X208703919Y-141451947D01*
X208703919Y-141451947D02*
X208751538Y-141547185D01*
X208751538Y-141547185D02*
X208799157Y-141594804D01*
X208799157Y-141594804D02*
X208894395Y-141642423D01*
X208894395Y-141642423D02*
X208989633Y-141642423D01*
X208989633Y-141642423D02*
X209132490Y-141594804D01*
X209132490Y-141594804D02*
X209703919Y-141023376D01*
X209703919Y-141023376D02*
X209703919Y-141642423D01*
X209703919Y-142594804D02*
X209703919Y-142023376D01*
X209703919Y-142309090D02*
X208703919Y-142309090D01*
X208703919Y-142309090D02*
X208846776Y-142213852D01*
X208846776Y-142213852D02*
X208942014Y-142118614D01*
X208942014Y-142118614D02*
X208989633Y-142023376D01*
X185891419Y-178218614D02*
X184891419Y-178218614D01*
X184891419Y-178218614D02*
X184891419Y-178456709D01*
X184891419Y-178456709D02*
X184939038Y-178599566D01*
X184939038Y-178599566D02*
X185034276Y-178694804D01*
X185034276Y-178694804D02*
X185129514Y-178742423D01*
X185129514Y-178742423D02*
X185319990Y-178790042D01*
X185319990Y-178790042D02*
X185462847Y-178790042D01*
X185462847Y-178790042D02*
X185653323Y-178742423D01*
X185653323Y-178742423D02*
X185748561Y-178694804D01*
X185748561Y-178694804D02*
X185843800Y-178599566D01*
X185843800Y-178599566D02*
X185891419Y-178456709D01*
X185891419Y-178456709D02*
X185891419Y-178218614D01*
X185224752Y-179647185D02*
X185891419Y-179647185D01*
X184843800Y-179409090D02*
X185558085Y-179170995D01*
X185558085Y-179170995D02*
X185558085Y-179790042D01*
X184891419Y-180599566D02*
X184891419Y-180409090D01*
X184891419Y-180409090D02*
X184939038Y-180313852D01*
X184939038Y-180313852D02*
X184986657Y-180266233D01*
X184986657Y-180266233D02*
X185129514Y-180170995D01*
X185129514Y-180170995D02*
X185319990Y-180123376D01*
X185319990Y-180123376D02*
X185700942Y-180123376D01*
X185700942Y-180123376D02*
X185796180Y-180170995D01*
X185796180Y-180170995D02*
X185843800Y-180218614D01*
X185843800Y-180218614D02*
X185891419Y-180313852D01*
X185891419Y-180313852D02*
X185891419Y-180504328D01*
X185891419Y-180504328D02*
X185843800Y-180599566D01*
X185843800Y-180599566D02*
X185796180Y-180647185D01*
X185796180Y-180647185D02*
X185700942Y-180694804D01*
X185700942Y-180694804D02*
X185462847Y-180694804D01*
X185462847Y-180694804D02*
X185367609Y-180647185D01*
X185367609Y-180647185D02*
X185319990Y-180599566D01*
X185319990Y-180599566D02*
X185272371Y-180504328D01*
X185272371Y-180504328D02*
X185272371Y-180313852D01*
X185272371Y-180313852D02*
X185319990Y-180218614D01*
X185319990Y-180218614D02*
X185367609Y-180170995D01*
X185367609Y-180170995D02*
X185462847Y-180123376D01*
X238278919Y-121544805D02*
X237278919Y-121544805D01*
X237278919Y-121544805D02*
X237278919Y-121782900D01*
X237278919Y-121782900D02*
X237326538Y-121925757D01*
X237326538Y-121925757D02*
X237421776Y-122020995D01*
X237421776Y-122020995D02*
X237517014Y-122068614D01*
X237517014Y-122068614D02*
X237707490Y-122116233D01*
X237707490Y-122116233D02*
X237850347Y-122116233D01*
X237850347Y-122116233D02*
X238040823Y-122068614D01*
X238040823Y-122068614D02*
X238136061Y-122020995D01*
X238136061Y-122020995D02*
X238231300Y-121925757D01*
X238231300Y-121925757D02*
X238278919Y-121782900D01*
X238278919Y-121782900D02*
X238278919Y-121544805D01*
X238278919Y-122592424D02*
X238278919Y-122782900D01*
X238278919Y-122782900D02*
X238231300Y-122878138D01*
X238231300Y-122878138D02*
X238183680Y-122925757D01*
X238183680Y-122925757D02*
X238040823Y-123020995D01*
X238040823Y-123020995D02*
X237850347Y-123068614D01*
X237850347Y-123068614D02*
X237469395Y-123068614D01*
X237469395Y-123068614D02*
X237374157Y-123020995D01*
X237374157Y-123020995D02*
X237326538Y-122973376D01*
X237326538Y-122973376D02*
X237278919Y-122878138D01*
X237278919Y-122878138D02*
X237278919Y-122687662D01*
X237278919Y-122687662D02*
X237326538Y-122592424D01*
X237326538Y-122592424D02*
X237374157Y-122544805D01*
X237374157Y-122544805D02*
X237469395Y-122497186D01*
X237469395Y-122497186D02*
X237707490Y-122497186D01*
X237707490Y-122497186D02*
X237802728Y-122544805D01*
X237802728Y-122544805D02*
X237850347Y-122592424D01*
X237850347Y-122592424D02*
X237897966Y-122687662D01*
X237897966Y-122687662D02*
X237897966Y-122878138D01*
X237897966Y-122878138D02*
X237850347Y-122973376D01*
X237850347Y-122973376D02*
X237802728Y-123020995D01*
X237802728Y-123020995D02*
X237707490Y-123068614D01*
X119216419Y-159168614D02*
X118216419Y-159168614D01*
X118216419Y-159168614D02*
X118216419Y-159406709D01*
X118216419Y-159406709D02*
X118264038Y-159549566D01*
X118264038Y-159549566D02*
X118359276Y-159644804D01*
X118359276Y-159644804D02*
X118454514Y-159692423D01*
X118454514Y-159692423D02*
X118644990Y-159740042D01*
X118644990Y-159740042D02*
X118787847Y-159740042D01*
X118787847Y-159740042D02*
X118978323Y-159692423D01*
X118978323Y-159692423D02*
X119073561Y-159644804D01*
X119073561Y-159644804D02*
X119168800Y-159549566D01*
X119168800Y-159549566D02*
X119216419Y-159406709D01*
X119216419Y-159406709D02*
X119216419Y-159168614D01*
X118216419Y-160073376D02*
X118216419Y-160692423D01*
X118216419Y-160692423D02*
X118597371Y-160359090D01*
X118597371Y-160359090D02*
X118597371Y-160501947D01*
X118597371Y-160501947D02*
X118644990Y-160597185D01*
X118644990Y-160597185D02*
X118692609Y-160644804D01*
X118692609Y-160644804D02*
X118787847Y-160692423D01*
X118787847Y-160692423D02*
X119025942Y-160692423D01*
X119025942Y-160692423D02*
X119121180Y-160644804D01*
X119121180Y-160644804D02*
X119168800Y-160597185D01*
X119168800Y-160597185D02*
X119216419Y-160501947D01*
X119216419Y-160501947D02*
X119216419Y-160216233D01*
X119216419Y-160216233D02*
X119168800Y-160120995D01*
X119168800Y-160120995D02*
X119121180Y-160073376D01*
X118216419Y-161311471D02*
X118216419Y-161406709D01*
X118216419Y-161406709D02*
X118264038Y-161501947D01*
X118264038Y-161501947D02*
X118311657Y-161549566D01*
X118311657Y-161549566D02*
X118406895Y-161597185D01*
X118406895Y-161597185D02*
X118597371Y-161644804D01*
X118597371Y-161644804D02*
X118835466Y-161644804D01*
X118835466Y-161644804D02*
X119025942Y-161597185D01*
X119025942Y-161597185D02*
X119121180Y-161549566D01*
X119121180Y-161549566D02*
X119168800Y-161501947D01*
X119168800Y-161501947D02*
X119216419Y-161406709D01*
X119216419Y-161406709D02*
X119216419Y-161311471D01*
X119216419Y-161311471D02*
X119168800Y-161216233D01*
X119168800Y-161216233D02*
X119121180Y-161168614D01*
X119121180Y-161168614D02*
X119025942Y-161120995D01*
X119025942Y-161120995D02*
X118835466Y-161073376D01*
X118835466Y-161073376D02*
X118597371Y-161073376D01*
X118597371Y-161073376D02*
X118406895Y-161120995D01*
X118406895Y-161120995D02*
X118311657Y-161168614D01*
X118311657Y-161168614D02*
X118264038Y-161216233D01*
X118264038Y-161216233D02*
X118216419Y-161311471D01*
X162078919Y-121544805D02*
X161078919Y-121544805D01*
X161078919Y-121544805D02*
X161078919Y-121782900D01*
X161078919Y-121782900D02*
X161126538Y-121925757D01*
X161126538Y-121925757D02*
X161221776Y-122020995D01*
X161221776Y-122020995D02*
X161317014Y-122068614D01*
X161317014Y-122068614D02*
X161507490Y-122116233D01*
X161507490Y-122116233D02*
X161650347Y-122116233D01*
X161650347Y-122116233D02*
X161840823Y-122068614D01*
X161840823Y-122068614D02*
X161936061Y-122020995D01*
X161936061Y-122020995D02*
X162031300Y-121925757D01*
X162031300Y-121925757D02*
X162078919Y-121782900D01*
X162078919Y-121782900D02*
X162078919Y-121544805D01*
X161078919Y-123020995D02*
X161078919Y-122544805D01*
X161078919Y-122544805D02*
X161555109Y-122497186D01*
X161555109Y-122497186D02*
X161507490Y-122544805D01*
X161507490Y-122544805D02*
X161459871Y-122640043D01*
X161459871Y-122640043D02*
X161459871Y-122878138D01*
X161459871Y-122878138D02*
X161507490Y-122973376D01*
X161507490Y-122973376D02*
X161555109Y-123020995D01*
X161555109Y-123020995D02*
X161650347Y-123068614D01*
X161650347Y-123068614D02*
X161888442Y-123068614D01*
X161888442Y-123068614D02*
X161983680Y-123020995D01*
X161983680Y-123020995D02*
X162031300Y-122973376D01*
X162031300Y-122973376D02*
X162078919Y-122878138D01*
X162078919Y-122878138D02*
X162078919Y-122640043D01*
X162078919Y-122640043D02*
X162031300Y-122544805D01*
X162031300Y-122544805D02*
X161983680Y-122497186D01*
X88260169Y-197268614D02*
X87260169Y-197268614D01*
X87260169Y-197268614D02*
X87260169Y-197506709D01*
X87260169Y-197506709D02*
X87307788Y-197649566D01*
X87307788Y-197649566D02*
X87403026Y-197744804D01*
X87403026Y-197744804D02*
X87498264Y-197792423D01*
X87498264Y-197792423D02*
X87688740Y-197840042D01*
X87688740Y-197840042D02*
X87831597Y-197840042D01*
X87831597Y-197840042D02*
X88022073Y-197792423D01*
X88022073Y-197792423D02*
X88117311Y-197744804D01*
X88117311Y-197744804D02*
X88212550Y-197649566D01*
X88212550Y-197649566D02*
X88260169Y-197506709D01*
X88260169Y-197506709D02*
X88260169Y-197268614D01*
X87260169Y-198744804D02*
X87260169Y-198268614D01*
X87260169Y-198268614D02*
X87736359Y-198220995D01*
X87736359Y-198220995D02*
X87688740Y-198268614D01*
X87688740Y-198268614D02*
X87641121Y-198363852D01*
X87641121Y-198363852D02*
X87641121Y-198601947D01*
X87641121Y-198601947D02*
X87688740Y-198697185D01*
X87688740Y-198697185D02*
X87736359Y-198744804D01*
X87736359Y-198744804D02*
X87831597Y-198792423D01*
X87831597Y-198792423D02*
X88069692Y-198792423D01*
X88069692Y-198792423D02*
X88164930Y-198744804D01*
X88164930Y-198744804D02*
X88212550Y-198697185D01*
X88212550Y-198697185D02*
X88260169Y-198601947D01*
X88260169Y-198601947D02*
X88260169Y-198363852D01*
X88260169Y-198363852D02*
X88212550Y-198268614D01*
X88212550Y-198268614D02*
X88164930Y-198220995D01*
X87593502Y-199649566D02*
X88260169Y-199649566D01*
X87212550Y-199411471D02*
X87926835Y-199173376D01*
X87926835Y-199173376D02*
X87926835Y-199792423D01*
X302572669Y-197268614D02*
X301572669Y-197268614D01*
X301572669Y-197268614D02*
X301572669Y-197506709D01*
X301572669Y-197506709D02*
X301620288Y-197649566D01*
X301620288Y-197649566D02*
X301715526Y-197744804D01*
X301715526Y-197744804D02*
X301810764Y-197792423D01*
X301810764Y-197792423D02*
X302001240Y-197840042D01*
X302001240Y-197840042D02*
X302144097Y-197840042D01*
X302144097Y-197840042D02*
X302334573Y-197792423D01*
X302334573Y-197792423D02*
X302429811Y-197744804D01*
X302429811Y-197744804D02*
X302525050Y-197649566D01*
X302525050Y-197649566D02*
X302572669Y-197506709D01*
X302572669Y-197506709D02*
X302572669Y-197268614D01*
X301572669Y-198744804D02*
X301572669Y-198268614D01*
X301572669Y-198268614D02*
X302048859Y-198220995D01*
X302048859Y-198220995D02*
X302001240Y-198268614D01*
X302001240Y-198268614D02*
X301953621Y-198363852D01*
X301953621Y-198363852D02*
X301953621Y-198601947D01*
X301953621Y-198601947D02*
X302001240Y-198697185D01*
X302001240Y-198697185D02*
X302048859Y-198744804D01*
X302048859Y-198744804D02*
X302144097Y-198792423D01*
X302144097Y-198792423D02*
X302382192Y-198792423D01*
X302382192Y-198792423D02*
X302477430Y-198744804D01*
X302477430Y-198744804D02*
X302525050Y-198697185D01*
X302525050Y-198697185D02*
X302572669Y-198601947D01*
X302572669Y-198601947D02*
X302572669Y-198363852D01*
X302572669Y-198363852D02*
X302525050Y-198268614D01*
X302525050Y-198268614D02*
X302477430Y-198220995D01*
X302572669Y-199268614D02*
X302572669Y-199459090D01*
X302572669Y-199459090D02*
X302525050Y-199554328D01*
X302525050Y-199554328D02*
X302477430Y-199601947D01*
X302477430Y-199601947D02*
X302334573Y-199697185D01*
X302334573Y-199697185D02*
X302144097Y-199744804D01*
X302144097Y-199744804D02*
X301763145Y-199744804D01*
X301763145Y-199744804D02*
X301667907Y-199697185D01*
X301667907Y-199697185D02*
X301620288Y-199649566D01*
X301620288Y-199649566D02*
X301572669Y-199554328D01*
X301572669Y-199554328D02*
X301572669Y-199363852D01*
X301572669Y-199363852D02*
X301620288Y-199268614D01*
X301620288Y-199268614D02*
X301667907Y-199220995D01*
X301667907Y-199220995D02*
X301763145Y-199173376D01*
X301763145Y-199173376D02*
X302001240Y-199173376D01*
X302001240Y-199173376D02*
X302096478Y-199220995D01*
X302096478Y-199220995D02*
X302144097Y-199268614D01*
X302144097Y-199268614D02*
X302191716Y-199363852D01*
X302191716Y-199363852D02*
X302191716Y-199554328D01*
X302191716Y-199554328D02*
X302144097Y-199649566D01*
X302144097Y-199649566D02*
X302096478Y-199697185D01*
X302096478Y-199697185D02*
X302001240Y-199744804D01*
X85878919Y-121544805D02*
X84878919Y-121544805D01*
X84878919Y-121544805D02*
X84878919Y-121782900D01*
X84878919Y-121782900D02*
X84926538Y-121925757D01*
X84926538Y-121925757D02*
X85021776Y-122020995D01*
X85021776Y-122020995D02*
X85117014Y-122068614D01*
X85117014Y-122068614D02*
X85307490Y-122116233D01*
X85307490Y-122116233D02*
X85450347Y-122116233D01*
X85450347Y-122116233D02*
X85640823Y-122068614D01*
X85640823Y-122068614D02*
X85736061Y-122020995D01*
X85736061Y-122020995D02*
X85831300Y-121925757D01*
X85831300Y-121925757D02*
X85878919Y-121782900D01*
X85878919Y-121782900D02*
X85878919Y-121544805D01*
X85878919Y-123068614D02*
X85878919Y-122497186D01*
X85878919Y-122782900D02*
X84878919Y-122782900D01*
X84878919Y-122782900D02*
X85021776Y-122687662D01*
X85021776Y-122687662D02*
X85117014Y-122592424D01*
X85117014Y-122592424D02*
X85164633Y-122497186D01*
X285903919Y-140118614D02*
X284903919Y-140118614D01*
X284903919Y-140118614D02*
X284903919Y-140356709D01*
X284903919Y-140356709D02*
X284951538Y-140499566D01*
X284951538Y-140499566D02*
X285046776Y-140594804D01*
X285046776Y-140594804D02*
X285142014Y-140642423D01*
X285142014Y-140642423D02*
X285332490Y-140690042D01*
X285332490Y-140690042D02*
X285475347Y-140690042D01*
X285475347Y-140690042D02*
X285665823Y-140642423D01*
X285665823Y-140642423D02*
X285761061Y-140594804D01*
X285761061Y-140594804D02*
X285856300Y-140499566D01*
X285856300Y-140499566D02*
X285903919Y-140356709D01*
X285903919Y-140356709D02*
X285903919Y-140118614D01*
X284999157Y-141070995D02*
X284951538Y-141118614D01*
X284951538Y-141118614D02*
X284903919Y-141213852D01*
X284903919Y-141213852D02*
X284903919Y-141451947D01*
X284903919Y-141451947D02*
X284951538Y-141547185D01*
X284951538Y-141547185D02*
X284999157Y-141594804D01*
X284999157Y-141594804D02*
X285094395Y-141642423D01*
X285094395Y-141642423D02*
X285189633Y-141642423D01*
X285189633Y-141642423D02*
X285332490Y-141594804D01*
X285332490Y-141594804D02*
X285903919Y-141023376D01*
X285903919Y-141023376D02*
X285903919Y-141642423D01*
X284903919Y-142547185D02*
X284903919Y-142070995D01*
X284903919Y-142070995D02*
X285380109Y-142023376D01*
X285380109Y-142023376D02*
X285332490Y-142070995D01*
X285332490Y-142070995D02*
X285284871Y-142166233D01*
X285284871Y-142166233D02*
X285284871Y-142404328D01*
X285284871Y-142404328D02*
X285332490Y-142499566D01*
X285332490Y-142499566D02*
X285380109Y-142547185D01*
X285380109Y-142547185D02*
X285475347Y-142594804D01*
X285475347Y-142594804D02*
X285713442Y-142594804D01*
X285713442Y-142594804D02*
X285808680Y-142547185D01*
X285808680Y-142547185D02*
X285856300Y-142499566D01*
X285856300Y-142499566D02*
X285903919Y-142404328D01*
X285903919Y-142404328D02*
X285903919Y-142166233D01*
X285903919Y-142166233D02*
X285856300Y-142070995D01*
X285856300Y-142070995D02*
X285808680Y-142023376D01*
X207322669Y-197268614D02*
X206322669Y-197268614D01*
X206322669Y-197268614D02*
X206322669Y-197506709D01*
X206322669Y-197506709D02*
X206370288Y-197649566D01*
X206370288Y-197649566D02*
X206465526Y-197744804D01*
X206465526Y-197744804D02*
X206560764Y-197792423D01*
X206560764Y-197792423D02*
X206751240Y-197840042D01*
X206751240Y-197840042D02*
X206894097Y-197840042D01*
X206894097Y-197840042D02*
X207084573Y-197792423D01*
X207084573Y-197792423D02*
X207179811Y-197744804D01*
X207179811Y-197744804D02*
X207275050Y-197649566D01*
X207275050Y-197649566D02*
X207322669Y-197506709D01*
X207322669Y-197506709D02*
X207322669Y-197268614D01*
X206322669Y-198744804D02*
X206322669Y-198268614D01*
X206322669Y-198268614D02*
X206798859Y-198220995D01*
X206798859Y-198220995D02*
X206751240Y-198268614D01*
X206751240Y-198268614D02*
X206703621Y-198363852D01*
X206703621Y-198363852D02*
X206703621Y-198601947D01*
X206703621Y-198601947D02*
X206751240Y-198697185D01*
X206751240Y-198697185D02*
X206798859Y-198744804D01*
X206798859Y-198744804D02*
X206894097Y-198792423D01*
X206894097Y-198792423D02*
X207132192Y-198792423D01*
X207132192Y-198792423D02*
X207227430Y-198744804D01*
X207227430Y-198744804D02*
X207275050Y-198697185D01*
X207275050Y-198697185D02*
X207322669Y-198601947D01*
X207322669Y-198601947D02*
X207322669Y-198363852D01*
X207322669Y-198363852D02*
X207275050Y-198268614D01*
X207275050Y-198268614D02*
X207227430Y-198220995D01*
X206322669Y-199125757D02*
X206322669Y-199792423D01*
X206322669Y-199792423D02*
X207322669Y-199363852D01*
X157316419Y-159168614D02*
X156316419Y-159168614D01*
X156316419Y-159168614D02*
X156316419Y-159406709D01*
X156316419Y-159406709D02*
X156364038Y-159549566D01*
X156364038Y-159549566D02*
X156459276Y-159644804D01*
X156459276Y-159644804D02*
X156554514Y-159692423D01*
X156554514Y-159692423D02*
X156744990Y-159740042D01*
X156744990Y-159740042D02*
X156887847Y-159740042D01*
X156887847Y-159740042D02*
X157078323Y-159692423D01*
X157078323Y-159692423D02*
X157173561Y-159644804D01*
X157173561Y-159644804D02*
X157268800Y-159549566D01*
X157268800Y-159549566D02*
X157316419Y-159406709D01*
X157316419Y-159406709D02*
X157316419Y-159168614D01*
X156316419Y-160073376D02*
X156316419Y-160692423D01*
X156316419Y-160692423D02*
X156697371Y-160359090D01*
X156697371Y-160359090D02*
X156697371Y-160501947D01*
X156697371Y-160501947D02*
X156744990Y-160597185D01*
X156744990Y-160597185D02*
X156792609Y-160644804D01*
X156792609Y-160644804D02*
X156887847Y-160692423D01*
X156887847Y-160692423D02*
X157125942Y-160692423D01*
X157125942Y-160692423D02*
X157221180Y-160644804D01*
X157221180Y-160644804D02*
X157268800Y-160597185D01*
X157268800Y-160597185D02*
X157316419Y-160501947D01*
X157316419Y-160501947D02*
X157316419Y-160216233D01*
X157316419Y-160216233D02*
X157268800Y-160120995D01*
X157268800Y-160120995D02*
X157221180Y-160073376D01*
X156411657Y-161073376D02*
X156364038Y-161120995D01*
X156364038Y-161120995D02*
X156316419Y-161216233D01*
X156316419Y-161216233D02*
X156316419Y-161454328D01*
X156316419Y-161454328D02*
X156364038Y-161549566D01*
X156364038Y-161549566D02*
X156411657Y-161597185D01*
X156411657Y-161597185D02*
X156506895Y-161644804D01*
X156506895Y-161644804D02*
X156602133Y-161644804D01*
X156602133Y-161644804D02*
X156744990Y-161597185D01*
X156744990Y-161597185D02*
X157316419Y-161025757D01*
X157316419Y-161025757D02*
X157316419Y-161644804D01*
X204941419Y-178218614D02*
X203941419Y-178218614D01*
X203941419Y-178218614D02*
X203941419Y-178456709D01*
X203941419Y-178456709D02*
X203989038Y-178599566D01*
X203989038Y-178599566D02*
X204084276Y-178694804D01*
X204084276Y-178694804D02*
X204179514Y-178742423D01*
X204179514Y-178742423D02*
X204369990Y-178790042D01*
X204369990Y-178790042D02*
X204512847Y-178790042D01*
X204512847Y-178790042D02*
X204703323Y-178742423D01*
X204703323Y-178742423D02*
X204798561Y-178694804D01*
X204798561Y-178694804D02*
X204893800Y-178599566D01*
X204893800Y-178599566D02*
X204941419Y-178456709D01*
X204941419Y-178456709D02*
X204941419Y-178218614D01*
X204274752Y-179647185D02*
X204941419Y-179647185D01*
X203893800Y-179409090D02*
X204608085Y-179170995D01*
X204608085Y-179170995D02*
X204608085Y-179790042D01*
X203941419Y-180075757D02*
X203941419Y-180742423D01*
X203941419Y-180742423D02*
X204941419Y-180313852D01*
X143028919Y-121544805D02*
X142028919Y-121544805D01*
X142028919Y-121544805D02*
X142028919Y-121782900D01*
X142028919Y-121782900D02*
X142076538Y-121925757D01*
X142076538Y-121925757D02*
X142171776Y-122020995D01*
X142171776Y-122020995D02*
X142267014Y-122068614D01*
X142267014Y-122068614D02*
X142457490Y-122116233D01*
X142457490Y-122116233D02*
X142600347Y-122116233D01*
X142600347Y-122116233D02*
X142790823Y-122068614D01*
X142790823Y-122068614D02*
X142886061Y-122020995D01*
X142886061Y-122020995D02*
X142981300Y-121925757D01*
X142981300Y-121925757D02*
X143028919Y-121782900D01*
X143028919Y-121782900D02*
X143028919Y-121544805D01*
X142362252Y-122973376D02*
X143028919Y-122973376D01*
X141981300Y-122735281D02*
X142695585Y-122497186D01*
X142695585Y-122497186D02*
X142695585Y-123116233D01*
X97785169Y-178218614D02*
X96785169Y-178218614D01*
X96785169Y-178218614D02*
X96785169Y-178456709D01*
X96785169Y-178456709D02*
X96832788Y-178599566D01*
X96832788Y-178599566D02*
X96928026Y-178694804D01*
X96928026Y-178694804D02*
X97023264Y-178742423D01*
X97023264Y-178742423D02*
X97213740Y-178790042D01*
X97213740Y-178790042D02*
X97356597Y-178790042D01*
X97356597Y-178790042D02*
X97547073Y-178742423D01*
X97547073Y-178742423D02*
X97642311Y-178694804D01*
X97642311Y-178694804D02*
X97737550Y-178599566D01*
X97737550Y-178599566D02*
X97785169Y-178456709D01*
X97785169Y-178456709D02*
X97785169Y-178218614D01*
X97118502Y-179647185D02*
X97785169Y-179647185D01*
X96737550Y-179409090D02*
X97451835Y-179170995D01*
X97451835Y-179170995D02*
X97451835Y-179790042D01*
X96880407Y-180123376D02*
X96832788Y-180170995D01*
X96832788Y-180170995D02*
X96785169Y-180266233D01*
X96785169Y-180266233D02*
X96785169Y-180504328D01*
X96785169Y-180504328D02*
X96832788Y-180599566D01*
X96832788Y-180599566D02*
X96880407Y-180647185D01*
X96880407Y-180647185D02*
X96975645Y-180694804D01*
X96975645Y-180694804D02*
X97070883Y-180694804D01*
X97070883Y-180694804D02*
X97213740Y-180647185D01*
X97213740Y-180647185D02*
X97785169Y-180075757D01*
X97785169Y-180075757D02*
X97785169Y-180694804D01*
X112072669Y-197268614D02*
X111072669Y-197268614D01*
X111072669Y-197268614D02*
X111072669Y-197506709D01*
X111072669Y-197506709D02*
X111120288Y-197649566D01*
X111120288Y-197649566D02*
X111215526Y-197744804D01*
X111215526Y-197744804D02*
X111310764Y-197792423D01*
X111310764Y-197792423D02*
X111501240Y-197840042D01*
X111501240Y-197840042D02*
X111644097Y-197840042D01*
X111644097Y-197840042D02*
X111834573Y-197792423D01*
X111834573Y-197792423D02*
X111929811Y-197744804D01*
X111929811Y-197744804D02*
X112025050Y-197649566D01*
X112025050Y-197649566D02*
X112072669Y-197506709D01*
X112072669Y-197506709D02*
X112072669Y-197268614D01*
X111072669Y-198744804D02*
X111072669Y-198268614D01*
X111072669Y-198268614D02*
X111548859Y-198220995D01*
X111548859Y-198220995D02*
X111501240Y-198268614D01*
X111501240Y-198268614D02*
X111453621Y-198363852D01*
X111453621Y-198363852D02*
X111453621Y-198601947D01*
X111453621Y-198601947D02*
X111501240Y-198697185D01*
X111501240Y-198697185D02*
X111548859Y-198744804D01*
X111548859Y-198744804D02*
X111644097Y-198792423D01*
X111644097Y-198792423D02*
X111882192Y-198792423D01*
X111882192Y-198792423D02*
X111977430Y-198744804D01*
X111977430Y-198744804D02*
X112025050Y-198697185D01*
X112025050Y-198697185D02*
X112072669Y-198601947D01*
X112072669Y-198601947D02*
X112072669Y-198363852D01*
X112072669Y-198363852D02*
X112025050Y-198268614D01*
X112025050Y-198268614D02*
X111977430Y-198220995D01*
X111072669Y-199697185D02*
X111072669Y-199220995D01*
X111072669Y-199220995D02*
X111548859Y-199173376D01*
X111548859Y-199173376D02*
X111501240Y-199220995D01*
X111501240Y-199220995D02*
X111453621Y-199316233D01*
X111453621Y-199316233D02*
X111453621Y-199554328D01*
X111453621Y-199554328D02*
X111501240Y-199649566D01*
X111501240Y-199649566D02*
X111548859Y-199697185D01*
X111548859Y-199697185D02*
X111644097Y-199744804D01*
X111644097Y-199744804D02*
X111882192Y-199744804D01*
X111882192Y-199744804D02*
X111977430Y-199697185D01*
X111977430Y-199697185D02*
X112025050Y-199649566D01*
X112025050Y-199649566D02*
X112072669Y-199554328D01*
X112072669Y-199554328D02*
X112072669Y-199316233D01*
X112072669Y-199316233D02*
X112025050Y-199220995D01*
X112025050Y-199220995D02*
X111977430Y-199173376D01*
X281141419Y-178218614D02*
X280141419Y-178218614D01*
X280141419Y-178218614D02*
X280141419Y-178456709D01*
X280141419Y-178456709D02*
X280189038Y-178599566D01*
X280189038Y-178599566D02*
X280284276Y-178694804D01*
X280284276Y-178694804D02*
X280379514Y-178742423D01*
X280379514Y-178742423D02*
X280569990Y-178790042D01*
X280569990Y-178790042D02*
X280712847Y-178790042D01*
X280712847Y-178790042D02*
X280903323Y-178742423D01*
X280903323Y-178742423D02*
X280998561Y-178694804D01*
X280998561Y-178694804D02*
X281093800Y-178599566D01*
X281093800Y-178599566D02*
X281141419Y-178456709D01*
X281141419Y-178456709D02*
X281141419Y-178218614D01*
X280141419Y-179694804D02*
X280141419Y-179218614D01*
X280141419Y-179218614D02*
X280617609Y-179170995D01*
X280617609Y-179170995D02*
X280569990Y-179218614D01*
X280569990Y-179218614D02*
X280522371Y-179313852D01*
X280522371Y-179313852D02*
X280522371Y-179551947D01*
X280522371Y-179551947D02*
X280569990Y-179647185D01*
X280569990Y-179647185D02*
X280617609Y-179694804D01*
X280617609Y-179694804D02*
X280712847Y-179742423D01*
X280712847Y-179742423D02*
X280950942Y-179742423D01*
X280950942Y-179742423D02*
X281046180Y-179694804D01*
X281046180Y-179694804D02*
X281093800Y-179647185D01*
X281093800Y-179647185D02*
X281141419Y-179551947D01*
X281141419Y-179551947D02*
X281141419Y-179313852D01*
X281141419Y-179313852D02*
X281093800Y-179218614D01*
X281093800Y-179218614D02*
X281046180Y-179170995D01*
X281141419Y-180694804D02*
X281141419Y-180123376D01*
X281141419Y-180409090D02*
X280141419Y-180409090D01*
X280141419Y-180409090D02*
X280284276Y-180313852D01*
X280284276Y-180313852D02*
X280379514Y-180218614D01*
X280379514Y-180218614D02*
X280427133Y-180123376D01*
X195416419Y-159168614D02*
X194416419Y-159168614D01*
X194416419Y-159168614D02*
X194416419Y-159406709D01*
X194416419Y-159406709D02*
X194464038Y-159549566D01*
X194464038Y-159549566D02*
X194559276Y-159644804D01*
X194559276Y-159644804D02*
X194654514Y-159692423D01*
X194654514Y-159692423D02*
X194844990Y-159740042D01*
X194844990Y-159740042D02*
X194987847Y-159740042D01*
X194987847Y-159740042D02*
X195178323Y-159692423D01*
X195178323Y-159692423D02*
X195273561Y-159644804D01*
X195273561Y-159644804D02*
X195368800Y-159549566D01*
X195368800Y-159549566D02*
X195416419Y-159406709D01*
X195416419Y-159406709D02*
X195416419Y-159168614D01*
X194416419Y-160073376D02*
X194416419Y-160692423D01*
X194416419Y-160692423D02*
X194797371Y-160359090D01*
X194797371Y-160359090D02*
X194797371Y-160501947D01*
X194797371Y-160501947D02*
X194844990Y-160597185D01*
X194844990Y-160597185D02*
X194892609Y-160644804D01*
X194892609Y-160644804D02*
X194987847Y-160692423D01*
X194987847Y-160692423D02*
X195225942Y-160692423D01*
X195225942Y-160692423D02*
X195321180Y-160644804D01*
X195321180Y-160644804D02*
X195368800Y-160597185D01*
X195368800Y-160597185D02*
X195416419Y-160501947D01*
X195416419Y-160501947D02*
X195416419Y-160216233D01*
X195416419Y-160216233D02*
X195368800Y-160120995D01*
X195368800Y-160120995D02*
X195321180Y-160073376D01*
X194749752Y-161549566D02*
X195416419Y-161549566D01*
X194368800Y-161311471D02*
X195083085Y-161073376D01*
X195083085Y-161073376D02*
X195083085Y-161692423D01*
X200178919Y-121544805D02*
X199178919Y-121544805D01*
X199178919Y-121544805D02*
X199178919Y-121782900D01*
X199178919Y-121782900D02*
X199226538Y-121925757D01*
X199226538Y-121925757D02*
X199321776Y-122020995D01*
X199321776Y-122020995D02*
X199417014Y-122068614D01*
X199417014Y-122068614D02*
X199607490Y-122116233D01*
X199607490Y-122116233D02*
X199750347Y-122116233D01*
X199750347Y-122116233D02*
X199940823Y-122068614D01*
X199940823Y-122068614D02*
X200036061Y-122020995D01*
X200036061Y-122020995D02*
X200131300Y-121925757D01*
X200131300Y-121925757D02*
X200178919Y-121782900D01*
X200178919Y-121782900D02*
X200178919Y-121544805D01*
X199178919Y-122449567D02*
X199178919Y-123116233D01*
X199178919Y-123116233D02*
X200178919Y-122687662D01*
X326385169Y-197268614D02*
X325385169Y-197268614D01*
X325385169Y-197268614D02*
X325385169Y-197506709D01*
X325385169Y-197506709D02*
X325432788Y-197649566D01*
X325432788Y-197649566D02*
X325528026Y-197744804D01*
X325528026Y-197744804D02*
X325623264Y-197792423D01*
X325623264Y-197792423D02*
X325813740Y-197840042D01*
X325813740Y-197840042D02*
X325956597Y-197840042D01*
X325956597Y-197840042D02*
X326147073Y-197792423D01*
X326147073Y-197792423D02*
X326242311Y-197744804D01*
X326242311Y-197744804D02*
X326337550Y-197649566D01*
X326337550Y-197649566D02*
X326385169Y-197506709D01*
X326385169Y-197506709D02*
X326385169Y-197268614D01*
X325385169Y-198697185D02*
X325385169Y-198506709D01*
X325385169Y-198506709D02*
X325432788Y-198411471D01*
X325432788Y-198411471D02*
X325480407Y-198363852D01*
X325480407Y-198363852D02*
X325623264Y-198268614D01*
X325623264Y-198268614D02*
X325813740Y-198220995D01*
X325813740Y-198220995D02*
X326194692Y-198220995D01*
X326194692Y-198220995D02*
X326289930Y-198268614D01*
X326289930Y-198268614D02*
X326337550Y-198316233D01*
X326337550Y-198316233D02*
X326385169Y-198411471D01*
X326385169Y-198411471D02*
X326385169Y-198601947D01*
X326385169Y-198601947D02*
X326337550Y-198697185D01*
X326337550Y-198697185D02*
X326289930Y-198744804D01*
X326289930Y-198744804D02*
X326194692Y-198792423D01*
X326194692Y-198792423D02*
X325956597Y-198792423D01*
X325956597Y-198792423D02*
X325861359Y-198744804D01*
X325861359Y-198744804D02*
X325813740Y-198697185D01*
X325813740Y-198697185D02*
X325766121Y-198601947D01*
X325766121Y-198601947D02*
X325766121Y-198411471D01*
X325766121Y-198411471D02*
X325813740Y-198316233D01*
X325813740Y-198316233D02*
X325861359Y-198268614D01*
X325861359Y-198268614D02*
X325956597Y-198220995D01*
X325385169Y-199411471D02*
X325385169Y-199506709D01*
X325385169Y-199506709D02*
X325432788Y-199601947D01*
X325432788Y-199601947D02*
X325480407Y-199649566D01*
X325480407Y-199649566D02*
X325575645Y-199697185D01*
X325575645Y-199697185D02*
X325766121Y-199744804D01*
X325766121Y-199744804D02*
X326004216Y-199744804D01*
X326004216Y-199744804D02*
X326194692Y-199697185D01*
X326194692Y-199697185D02*
X326289930Y-199649566D01*
X326289930Y-199649566D02*
X326337550Y-199601947D01*
X326337550Y-199601947D02*
X326385169Y-199506709D01*
X326385169Y-199506709D02*
X326385169Y-199411471D01*
X326385169Y-199411471D02*
X326337550Y-199316233D01*
X326337550Y-199316233D02*
X326289930Y-199268614D01*
X326289930Y-199268614D02*
X326194692Y-199220995D01*
X326194692Y-199220995D02*
X326004216Y-199173376D01*
X326004216Y-199173376D02*
X325766121Y-199173376D01*
X325766121Y-199173376D02*
X325575645Y-199220995D01*
X325575645Y-199220995D02*
X325480407Y-199268614D01*
X325480407Y-199268614D02*
X325432788Y-199316233D01*
X325432788Y-199316233D02*
X325385169Y-199411471D01*
X181128919Y-121544805D02*
X180128919Y-121544805D01*
X180128919Y-121544805D02*
X180128919Y-121782900D01*
X180128919Y-121782900D02*
X180176538Y-121925757D01*
X180176538Y-121925757D02*
X180271776Y-122020995D01*
X180271776Y-122020995D02*
X180367014Y-122068614D01*
X180367014Y-122068614D02*
X180557490Y-122116233D01*
X180557490Y-122116233D02*
X180700347Y-122116233D01*
X180700347Y-122116233D02*
X180890823Y-122068614D01*
X180890823Y-122068614D02*
X180986061Y-122020995D01*
X180986061Y-122020995D02*
X181081300Y-121925757D01*
X181081300Y-121925757D02*
X181128919Y-121782900D01*
X181128919Y-121782900D02*
X181128919Y-121544805D01*
X180128919Y-122973376D02*
X180128919Y-122782900D01*
X180128919Y-122782900D02*
X180176538Y-122687662D01*
X180176538Y-122687662D02*
X180224157Y-122640043D01*
X180224157Y-122640043D02*
X180367014Y-122544805D01*
X180367014Y-122544805D02*
X180557490Y-122497186D01*
X180557490Y-122497186D02*
X180938442Y-122497186D01*
X180938442Y-122497186D02*
X181033680Y-122544805D01*
X181033680Y-122544805D02*
X181081300Y-122592424D01*
X181081300Y-122592424D02*
X181128919Y-122687662D01*
X181128919Y-122687662D02*
X181128919Y-122878138D01*
X181128919Y-122878138D02*
X181081300Y-122973376D01*
X181081300Y-122973376D02*
X181033680Y-123020995D01*
X181033680Y-123020995D02*
X180938442Y-123068614D01*
X180938442Y-123068614D02*
X180700347Y-123068614D01*
X180700347Y-123068614D02*
X180605109Y-123020995D01*
X180605109Y-123020995D02*
X180557490Y-122973376D01*
X180557490Y-122973376D02*
X180509871Y-122878138D01*
X180509871Y-122878138D02*
X180509871Y-122687662D01*
X180509871Y-122687662D02*
X180557490Y-122592424D01*
X180557490Y-122592424D02*
X180605109Y-122544805D01*
X180605109Y-122544805D02*
X180700347Y-122497186D01*
X295428919Y-121068614D02*
X294428919Y-121068614D01*
X294428919Y-121068614D02*
X294428919Y-121306709D01*
X294428919Y-121306709D02*
X294476538Y-121449566D01*
X294476538Y-121449566D02*
X294571776Y-121544804D01*
X294571776Y-121544804D02*
X294667014Y-121592423D01*
X294667014Y-121592423D02*
X294857490Y-121640042D01*
X294857490Y-121640042D02*
X295000347Y-121640042D01*
X295000347Y-121640042D02*
X295190823Y-121592423D01*
X295190823Y-121592423D02*
X295286061Y-121544804D01*
X295286061Y-121544804D02*
X295381300Y-121449566D01*
X295381300Y-121449566D02*
X295428919Y-121306709D01*
X295428919Y-121306709D02*
X295428919Y-121068614D01*
X295428919Y-122592423D02*
X295428919Y-122020995D01*
X295428919Y-122306709D02*
X294428919Y-122306709D01*
X294428919Y-122306709D02*
X294571776Y-122211471D01*
X294571776Y-122211471D02*
X294667014Y-122116233D01*
X294667014Y-122116233D02*
X294714633Y-122020995D01*
X294524157Y-122973376D02*
X294476538Y-123020995D01*
X294476538Y-123020995D02*
X294428919Y-123116233D01*
X294428919Y-123116233D02*
X294428919Y-123354328D01*
X294428919Y-123354328D02*
X294476538Y-123449566D01*
X294476538Y-123449566D02*
X294524157Y-123497185D01*
X294524157Y-123497185D02*
X294619395Y-123544804D01*
X294619395Y-123544804D02*
X294714633Y-123544804D01*
X294714633Y-123544804D02*
X294857490Y-123497185D01*
X294857490Y-123497185D02*
X295428919Y-122925757D01*
X295428919Y-122925757D02*
X295428919Y-123544804D01*
X233516419Y-159168614D02*
X232516419Y-159168614D01*
X232516419Y-159168614D02*
X232516419Y-159406709D01*
X232516419Y-159406709D02*
X232564038Y-159549566D01*
X232564038Y-159549566D02*
X232659276Y-159644804D01*
X232659276Y-159644804D02*
X232754514Y-159692423D01*
X232754514Y-159692423D02*
X232944990Y-159740042D01*
X232944990Y-159740042D02*
X233087847Y-159740042D01*
X233087847Y-159740042D02*
X233278323Y-159692423D01*
X233278323Y-159692423D02*
X233373561Y-159644804D01*
X233373561Y-159644804D02*
X233468800Y-159549566D01*
X233468800Y-159549566D02*
X233516419Y-159406709D01*
X233516419Y-159406709D02*
X233516419Y-159168614D01*
X232516419Y-160073376D02*
X232516419Y-160692423D01*
X232516419Y-160692423D02*
X232897371Y-160359090D01*
X232897371Y-160359090D02*
X232897371Y-160501947D01*
X232897371Y-160501947D02*
X232944990Y-160597185D01*
X232944990Y-160597185D02*
X232992609Y-160644804D01*
X232992609Y-160644804D02*
X233087847Y-160692423D01*
X233087847Y-160692423D02*
X233325942Y-160692423D01*
X233325942Y-160692423D02*
X233421180Y-160644804D01*
X233421180Y-160644804D02*
X233468800Y-160597185D01*
X233468800Y-160597185D02*
X233516419Y-160501947D01*
X233516419Y-160501947D02*
X233516419Y-160216233D01*
X233516419Y-160216233D02*
X233468800Y-160120995D01*
X233468800Y-160120995D02*
X233421180Y-160073376D01*
X232516419Y-161549566D02*
X232516419Y-161359090D01*
X232516419Y-161359090D02*
X232564038Y-161263852D01*
X232564038Y-161263852D02*
X232611657Y-161216233D01*
X232611657Y-161216233D02*
X232754514Y-161120995D01*
X232754514Y-161120995D02*
X232944990Y-161073376D01*
X232944990Y-161073376D02*
X233325942Y-161073376D01*
X233325942Y-161073376D02*
X233421180Y-161120995D01*
X233421180Y-161120995D02*
X233468800Y-161168614D01*
X233468800Y-161168614D02*
X233516419Y-161263852D01*
X233516419Y-161263852D02*
X233516419Y-161454328D01*
X233516419Y-161454328D02*
X233468800Y-161549566D01*
X233468800Y-161549566D02*
X233421180Y-161597185D01*
X233421180Y-161597185D02*
X233325942Y-161644804D01*
X233325942Y-161644804D02*
X233087847Y-161644804D01*
X233087847Y-161644804D02*
X232992609Y-161597185D01*
X232992609Y-161597185D02*
X232944990Y-161549566D01*
X232944990Y-161549566D02*
X232897371Y-161454328D01*
X232897371Y-161454328D02*
X232897371Y-161263852D01*
X232897371Y-161263852D02*
X232944990Y-161168614D01*
X232944990Y-161168614D02*
X232992609Y-161120995D01*
X232992609Y-161120995D02*
X233087847Y-161073376D01*
X309716419Y-159168614D02*
X308716419Y-159168614D01*
X308716419Y-159168614D02*
X308716419Y-159406709D01*
X308716419Y-159406709D02*
X308764038Y-159549566D01*
X308764038Y-159549566D02*
X308859276Y-159644804D01*
X308859276Y-159644804D02*
X308954514Y-159692423D01*
X308954514Y-159692423D02*
X309144990Y-159740042D01*
X309144990Y-159740042D02*
X309287847Y-159740042D01*
X309287847Y-159740042D02*
X309478323Y-159692423D01*
X309478323Y-159692423D02*
X309573561Y-159644804D01*
X309573561Y-159644804D02*
X309668800Y-159549566D01*
X309668800Y-159549566D02*
X309716419Y-159406709D01*
X309716419Y-159406709D02*
X309716419Y-159168614D01*
X309049752Y-160597185D02*
X309716419Y-160597185D01*
X308668800Y-160359090D02*
X309383085Y-160120995D01*
X309383085Y-160120995D02*
X309383085Y-160740042D01*
X308716419Y-161311471D02*
X308716419Y-161406709D01*
X308716419Y-161406709D02*
X308764038Y-161501947D01*
X308764038Y-161501947D02*
X308811657Y-161549566D01*
X308811657Y-161549566D02*
X308906895Y-161597185D01*
X308906895Y-161597185D02*
X309097371Y-161644804D01*
X309097371Y-161644804D02*
X309335466Y-161644804D01*
X309335466Y-161644804D02*
X309525942Y-161597185D01*
X309525942Y-161597185D02*
X309621180Y-161549566D01*
X309621180Y-161549566D02*
X309668800Y-161501947D01*
X309668800Y-161501947D02*
X309716419Y-161406709D01*
X309716419Y-161406709D02*
X309716419Y-161311471D01*
X309716419Y-161311471D02*
X309668800Y-161216233D01*
X309668800Y-161216233D02*
X309621180Y-161168614D01*
X309621180Y-161168614D02*
X309525942Y-161120995D01*
X309525942Y-161120995D02*
X309335466Y-161073376D01*
X309335466Y-161073376D02*
X309097371Y-161073376D01*
X309097371Y-161073376D02*
X308906895Y-161120995D01*
X308906895Y-161120995D02*
X308811657Y-161168614D01*
X308811657Y-161168614D02*
X308764038Y-161216233D01*
X308764038Y-161216233D02*
X308716419Y-161311471D01*
D11*
%TO.C,D14*%
X339599100Y-120632900D02*
X339599100Y-124642900D01*
X339599100Y-124642900D02*
X341599100Y-124642900D01*
X341599100Y-120632900D02*
X341599100Y-124642900D01*
%TO.C,D53*%
X332455350Y-177782900D02*
X332455350Y-181792900D01*
X332455350Y-181792900D02*
X334455350Y-181792900D01*
X334455350Y-177782900D02*
X334455350Y-181792900D01*
%TO.C,D50*%
X258636600Y-177782900D02*
X258636600Y-181792900D01*
X258636600Y-181792900D02*
X260636600Y-181792900D01*
X260636600Y-177782900D02*
X260636600Y-181792900D01*
%TO.C,D48*%
X220536600Y-177782900D02*
X220536600Y-181792900D01*
X220536600Y-181792900D02*
X222536600Y-181792900D01*
X222536600Y-177782900D02*
X222536600Y-181792900D01*
%TO.C,D19*%
X168149100Y-139682900D02*
X168149100Y-143692900D01*
X168149100Y-143692900D02*
X170149100Y-143692900D01*
X170149100Y-139682900D02*
X170149100Y-143692900D01*
%TO.C,D16*%
X110999100Y-139682900D02*
X110999100Y-143692900D01*
X110999100Y-143692900D02*
X112999100Y-143692900D01*
X112999100Y-139682900D02*
X112999100Y-143692900D01*
%TO.C,D27*%
X320549100Y-139682900D02*
X320549100Y-143692900D01*
X320549100Y-143692900D02*
X322549100Y-143692900D01*
X322549100Y-139682900D02*
X322549100Y-143692900D01*
%TO.C,D24*%
X263399100Y-139682900D02*
X263399100Y-143692900D01*
X263399100Y-143692900D02*
X265399100Y-143692900D01*
X265399100Y-139682900D02*
X265399100Y-143692900D01*
%TO.C,D23*%
X244349100Y-139682900D02*
X244349100Y-143692900D01*
X244349100Y-143692900D02*
X246349100Y-143692900D01*
X246349100Y-139682900D02*
X246349100Y-143692900D01*
%TO.C,D17*%
X130049100Y-139682900D02*
X130049100Y-143692900D01*
X130049100Y-143692900D02*
X132049100Y-143692900D01*
X132049100Y-139682900D02*
X132049100Y-143692900D01*
%TO.C,D43*%
X125286600Y-177782900D02*
X125286600Y-181792900D01*
X125286600Y-181792900D02*
X127286600Y-181792900D01*
X127286600Y-177782900D02*
X127286600Y-181792900D01*
%TO.C,D10*%
X253874100Y-120632900D02*
X253874100Y-124642900D01*
X253874100Y-124642900D02*
X255874100Y-124642900D01*
X255874100Y-120632900D02*
X255874100Y-124642900D01*
%TO.C,D26*%
X301499100Y-139682900D02*
X301499100Y-143692900D01*
X301499100Y-143692900D02*
X303499100Y-143692900D01*
X303499100Y-139682900D02*
X303499100Y-143692900D01*
%TO.C,D49*%
X239586600Y-177782900D02*
X239586600Y-181792900D01*
X239586600Y-181792900D02*
X241586600Y-181792900D01*
X241586600Y-177782900D02*
X241586600Y-181792900D01*
%TO.C,D35*%
X211011600Y-158732900D02*
X211011600Y-162742900D01*
X211011600Y-162742900D02*
X213011600Y-162742900D01*
X213011600Y-158732900D02*
X213011600Y-162742900D01*
%TO.C,D58*%
X275305350Y-196832900D02*
X275305350Y-200842900D01*
X275305350Y-200842900D02*
X277305350Y-200842900D01*
X277305350Y-196832900D02*
X277305350Y-200842900D01*
%TO.C,D29*%
X89567850Y-158732900D02*
X89567850Y-162742900D01*
X89567850Y-162742900D02*
X91567850Y-162742900D01*
X91567850Y-158732900D02*
X91567850Y-162742900D01*
%TO.C,D22*%
X225299100Y-139682900D02*
X225299100Y-143692900D01*
X225299100Y-143692900D02*
X227299100Y-143692900D01*
X227299100Y-139682900D02*
X227299100Y-143692900D01*
%TO.C,D15*%
X87186600Y-139682900D02*
X87186600Y-143692900D01*
X87186600Y-143692900D02*
X89186600Y-143692900D01*
X89186600Y-139682900D02*
X89186600Y-143692900D01*
%TO.C,D52*%
X296736600Y-177782900D02*
X296736600Y-181792900D01*
X296736600Y-181792900D02*
X298736600Y-181792900D01*
X298736600Y-177782900D02*
X298736600Y-181792900D01*
%TO.C,D3*%
X120524100Y-120632900D02*
X120524100Y-124642900D01*
X120524100Y-124642900D02*
X122524100Y-124642900D01*
X122524100Y-120632900D02*
X122524100Y-124642900D01*
%TO.C,D28*%
X344361600Y-139682900D02*
X344361600Y-143692900D01*
X344361600Y-143692900D02*
X346361600Y-143692900D01*
X346361600Y-139682900D02*
X346361600Y-143692900D01*
%TO.C,D20*%
X187199100Y-139682900D02*
X187199100Y-143692900D01*
X187199100Y-143692900D02*
X189199100Y-143692900D01*
X189199100Y-139682900D02*
X189199100Y-143692900D01*
%TO.C,D41*%
X337217850Y-158732900D02*
X337217850Y-162742900D01*
X337217850Y-162742900D02*
X339217850Y-162742900D01*
X339217850Y-158732900D02*
X339217850Y-162742900D01*
%TO.C,D33*%
X172911600Y-158732900D02*
X172911600Y-162742900D01*
X172911600Y-162742900D02*
X174911600Y-162742900D01*
X174911600Y-158732900D02*
X174911600Y-162742900D01*
%TO.C,D8*%
X215774100Y-120632900D02*
X215774100Y-124642900D01*
X215774100Y-124642900D02*
X217774100Y-124642900D01*
X217774100Y-120632900D02*
X217774100Y-124642900D01*
%TO.C,D2*%
X101474100Y-120632900D02*
X101474100Y-124642900D01*
X101474100Y-124642900D02*
X103474100Y-124642900D01*
X103474100Y-120632900D02*
X103474100Y-124642900D01*
%TO.C,D45*%
X163386600Y-177782900D02*
X163386600Y-181792900D01*
X163386600Y-181792900D02*
X165386600Y-181792900D01*
X165386600Y-177782900D02*
X165386600Y-181792900D01*
%TO.C,D18*%
X149099100Y-139682900D02*
X149099100Y-143692900D01*
X149099100Y-143692900D02*
X151099100Y-143692900D01*
X151099100Y-139682900D02*
X151099100Y-143692900D01*
%TO.C,D31*%
X134811600Y-158732900D02*
X134811600Y-162742900D01*
X134811600Y-162742900D02*
X136811600Y-162742900D01*
X136811600Y-158732900D02*
X136811600Y-162742900D01*
%TO.C,D56*%
X132430350Y-196832900D02*
X132430350Y-200842900D01*
X132430350Y-200842900D02*
X134430350Y-200842900D01*
X134430350Y-196832900D02*
X134430350Y-200842900D01*
%TO.C,D44*%
X144336600Y-177782900D02*
X144336600Y-181792900D01*
X144336600Y-181792900D02*
X146336600Y-181792900D01*
X146336600Y-177782900D02*
X146336600Y-181792900D01*
%TO.C,D11*%
X272924100Y-120632900D02*
X272924100Y-124642900D01*
X272924100Y-124642900D02*
X274924100Y-124642900D01*
X274924100Y-120632900D02*
X274924100Y-124642900D01*
%TO.C,D61*%
X346742850Y-196832900D02*
X346742850Y-200842900D01*
X346742850Y-200842900D02*
X348742850Y-200842900D01*
X348742850Y-196832900D02*
X348742850Y-200842900D01*
%TO.C,D37*%
X249111600Y-158732900D02*
X249111600Y-162742900D01*
X249111600Y-162742900D02*
X251111600Y-162742900D01*
X251111600Y-158732900D02*
X251111600Y-162742900D01*
%TO.C,D39*%
X287211600Y-158732900D02*
X287211600Y-162742900D01*
X287211600Y-162742900D02*
X289211600Y-162742900D01*
X289211600Y-158732900D02*
X289211600Y-162742900D01*
%TO.C,D13*%
X311024100Y-120632900D02*
X311024100Y-124642900D01*
X311024100Y-124642900D02*
X313024100Y-124642900D01*
X313024100Y-120632900D02*
X313024100Y-124642900D01*
%TO.C,D38*%
X268161600Y-158732900D02*
X268161600Y-162742900D01*
X268161600Y-162742900D02*
X270161600Y-162742900D01*
X270161600Y-158732900D02*
X270161600Y-162742900D01*
%TO.C,D21*%
X206249100Y-139682900D02*
X206249100Y-143692900D01*
X206249100Y-143692900D02*
X208249100Y-143692900D01*
X208249100Y-139682900D02*
X208249100Y-143692900D01*
%TO.C,D46*%
X182436600Y-177782900D02*
X182436600Y-181792900D01*
X182436600Y-181792900D02*
X184436600Y-181792900D01*
X184436600Y-177782900D02*
X184436600Y-181792900D01*
%TO.C,D9*%
X234824100Y-120632900D02*
X234824100Y-124642900D01*
X234824100Y-124642900D02*
X236824100Y-124642900D01*
X236824100Y-120632900D02*
X236824100Y-124642900D01*
%TO.C,D30*%
X115761600Y-158732900D02*
X115761600Y-162742900D01*
X115761600Y-162742900D02*
X117761600Y-162742900D01*
X117761600Y-158732900D02*
X117761600Y-162742900D01*
%TO.C,D5*%
X158624100Y-120632900D02*
X158624100Y-124642900D01*
X158624100Y-124642900D02*
X160624100Y-124642900D01*
X160624100Y-120632900D02*
X160624100Y-124642900D01*
%TO.C,D54*%
X84805350Y-196832900D02*
X84805350Y-200842900D01*
X84805350Y-200842900D02*
X86805350Y-200842900D01*
X86805350Y-196832900D02*
X86805350Y-200842900D01*
%TO.C,D59*%
X299117850Y-196832900D02*
X299117850Y-200842900D01*
X299117850Y-200842900D02*
X301117850Y-200842900D01*
X301117850Y-196832900D02*
X301117850Y-200842900D01*
%TO.C,D1*%
X82424100Y-120632900D02*
X82424100Y-124642900D01*
X82424100Y-124642900D02*
X84424100Y-124642900D01*
X84424100Y-120632900D02*
X84424100Y-124642900D01*
%TO.C,D25*%
X282449100Y-139682900D02*
X282449100Y-143692900D01*
X282449100Y-143692900D02*
X284449100Y-143692900D01*
X284449100Y-139682900D02*
X284449100Y-143692900D01*
%TO.C,D57*%
X203867850Y-196832900D02*
X203867850Y-200842900D01*
X203867850Y-200842900D02*
X205867850Y-200842900D01*
X205867850Y-196832900D02*
X205867850Y-200842900D01*
%TO.C,D32*%
X153861600Y-158732900D02*
X153861600Y-162742900D01*
X153861600Y-162742900D02*
X155861600Y-162742900D01*
X155861600Y-158732900D02*
X155861600Y-162742900D01*
%TO.C,D47*%
X201486600Y-177782900D02*
X201486600Y-181792900D01*
X201486600Y-181792900D02*
X203486600Y-181792900D01*
X203486600Y-177782900D02*
X203486600Y-181792900D01*
%TO.C,D4*%
X139574100Y-120632900D02*
X139574100Y-124642900D01*
X139574100Y-124642900D02*
X141574100Y-124642900D01*
X141574100Y-120632900D02*
X141574100Y-124642900D01*
%TO.C,D42*%
X94330350Y-177782900D02*
X94330350Y-181792900D01*
X94330350Y-181792900D02*
X96330350Y-181792900D01*
X96330350Y-177782900D02*
X96330350Y-181792900D01*
%TO.C,D55*%
X108617850Y-196832900D02*
X108617850Y-200842900D01*
X108617850Y-200842900D02*
X110617850Y-200842900D01*
X110617850Y-196832900D02*
X110617850Y-200842900D01*
%TO.C,D51*%
X277686600Y-177782900D02*
X277686600Y-181792900D01*
X277686600Y-181792900D02*
X279686600Y-181792900D01*
X279686600Y-177782900D02*
X279686600Y-181792900D01*
%TO.C,D34*%
X191961600Y-158732900D02*
X191961600Y-162742900D01*
X191961600Y-162742900D02*
X193961600Y-162742900D01*
X193961600Y-158732900D02*
X193961600Y-162742900D01*
%TO.C,D7*%
X196724100Y-120632900D02*
X196724100Y-124642900D01*
X196724100Y-124642900D02*
X198724100Y-124642900D01*
X198724100Y-120632900D02*
X198724100Y-124642900D01*
%TO.C,D60*%
X322930350Y-196832900D02*
X322930350Y-200842900D01*
X322930350Y-200842900D02*
X324930350Y-200842900D01*
X324930350Y-196832900D02*
X324930350Y-200842900D01*
%TO.C,D6*%
X177674100Y-120632900D02*
X177674100Y-124642900D01*
X177674100Y-124642900D02*
X179674100Y-124642900D01*
X179674100Y-120632900D02*
X179674100Y-124642900D01*
%TO.C,D12*%
X291974100Y-120632900D02*
X291974100Y-124642900D01*
X291974100Y-124642900D02*
X293974100Y-124642900D01*
X293974100Y-120632900D02*
X293974100Y-124642900D01*
%TO.C,D36*%
X230061600Y-158732900D02*
X230061600Y-162742900D01*
X230061600Y-162742900D02*
X232061600Y-162742900D01*
X232061600Y-158732900D02*
X232061600Y-162742900D01*
%TO.C,D40*%
X306261600Y-158732900D02*
X306261600Y-162742900D01*
X306261600Y-162742900D02*
X308261600Y-162742900D01*
X308261600Y-158732900D02*
X308261600Y-162742900D01*
%TD*%
M02*
