%TF.GenerationSoftware,KiCad,Pcbnew,9.0.3*%
%TF.CreationDate,2025-08-13T20:15:07-07:00*%
%TF.ProjectId,keyboardpls,6b657962-6f61-4726-9470-6c732e6b6963,rev?*%
%TF.SameCoordinates,Original*%
%TF.FileFunction,Soldermask,Bot*%
%TF.FilePolarity,Negative*%
%FSLAX46Y46*%
G04 Gerber Fmt 4.6, Leading zero omitted, Abs format (unit mm)*
G04 Created by KiCad (PCBNEW 9.0.3) date 2025-08-13 20:15:07*
%MOMM*%
%LPD*%
G01*
G04 APERTURE LIST*
G04 Aperture macros list*
%AMRoundRect*
0 Rectangle with rounded corners*
0 $1 Rounding radius*
0 $2 $3 $4 $5 $6 $7 $8 $9 X,Y pos of 4 corners*
0 Add a 4 corners polygon primitive as box body*
4,1,4,$2,$3,$4,$5,$6,$7,$8,$9,$2,$3,0*
0 Add four circle primitives for the rounded corners*
1,1,$1+$1,$2,$3*
1,1,$1+$1,$4,$5*
1,1,$1+$1,$6,$7*
1,1,$1+$1,$8,$9*
0 Add four rect primitives between the rounded corners*
20,1,$1+$1,$2,$3,$4,$5,0*
20,1,$1+$1,$4,$5,$6,$7,0*
20,1,$1+$1,$6,$7,$8,$9,0*
20,1,$1+$1,$8,$9,$2,$3,0*%
G04 Aperture macros list end*
%ADD10C,1.750000*%
%ADD11C,3.987800*%
%ADD12C,2.300000*%
%ADD13C,4.000000*%
%ADD14RoundRect,0.225000X0.375000X-0.225000X0.375000X0.225000X-0.375000X0.225000X-0.375000X-0.225000X0*%
%ADD15R,1.700000X1.700000*%
%ADD16C,1.700000*%
G04 APERTURE END LIST*
D10*
%TO.C,MX41*%
X329962650Y-157207700D03*
D11*
X335042650Y-157207700D03*
D10*
X340122650Y-157207700D03*
D12*
X331232650Y-154667700D03*
X337582650Y-152127700D03*
%TD*%
D10*
%TO.C,MX23*%
X237093900Y-138157700D03*
D11*
X242173900Y-138157700D03*
D10*
X247253900Y-138157700D03*
D12*
X238363900Y-135617700D03*
X244713900Y-133077700D03*
%TD*%
D10*
%TO.C,MX36*%
X222806400Y-157207700D03*
D11*
X227886400Y-157207700D03*
D10*
X232966400Y-157207700D03*
D12*
X224076400Y-154667700D03*
X230426400Y-152127700D03*
%TD*%
D10*
%TO.C,MX3*%
X113268900Y-119107700D03*
D11*
X118348900Y-119107700D03*
D10*
X123428900Y-119107700D03*
D12*
X114538900Y-116567700D03*
X120888900Y-114027700D03*
%TD*%
D10*
%TO.C,MX37*%
X241856400Y-157207700D03*
D11*
X246936400Y-157207700D03*
D10*
X252016400Y-157207700D03*
D12*
X243126400Y-154667700D03*
X249476400Y-152127700D03*
%TD*%
D10*
%TO.C,MX14*%
X332343900Y-119107700D03*
D11*
X337423900Y-119107700D03*
D10*
X342503900Y-119107700D03*
D12*
X333613900Y-116567700D03*
X339963900Y-114027700D03*
%TD*%
D10*
%TO.C,MX53*%
X325200150Y-176257700D03*
D11*
X330280150Y-176257700D03*
D10*
X335360150Y-176257700D03*
D12*
X326470150Y-173717700D03*
X332820150Y-171177700D03*
%TD*%
D10*
%TO.C,MX56*%
X125175150Y-195307700D03*
D11*
X130255150Y-195307700D03*
D10*
X135335150Y-195307700D03*
D12*
X126445150Y-192767700D03*
X132795150Y-190227700D03*
%TD*%
D10*
%TO.C,MX40*%
X299006400Y-157207700D03*
D11*
X304086400Y-157207700D03*
D10*
X309166400Y-157207700D03*
D12*
X300276400Y-154667700D03*
X306626400Y-152127700D03*
%TD*%
D10*
%TO.C,MX33*%
X165656400Y-157207700D03*
D11*
X170736400Y-157207700D03*
D10*
X175816400Y-157207700D03*
D12*
X166926400Y-154667700D03*
X173276400Y-152127700D03*
%TD*%
D10*
%TO.C,MX47*%
X194231400Y-176257700D03*
D11*
X199311400Y-176257700D03*
D10*
X204391400Y-176257700D03*
D12*
X195501400Y-173717700D03*
X201851400Y-171177700D03*
%TD*%
D10*
%TO.C,MX16*%
X103743900Y-138157700D03*
D11*
X108823900Y-138157700D03*
D10*
X113903900Y-138157700D03*
D12*
X105013900Y-135617700D03*
X111363900Y-133077700D03*
%TD*%
D10*
%TO.C,MX59*%
X291862650Y-195307700D03*
D11*
X296942650Y-195307700D03*
D10*
X302022650Y-195307700D03*
D12*
X293132650Y-192767700D03*
X299482650Y-190227700D03*
%TD*%
D13*
%TO.C,RightShiftStab1*%
X342166400Y-183337700D03*
D11*
X342166400Y-168097700D03*
D13*
X318353900Y-183337700D03*
D11*
X318353900Y-168097700D03*
%TD*%
D10*
%TO.C,MX18*%
X141843900Y-138157700D03*
D11*
X146923900Y-138157700D03*
D10*
X152003900Y-138157700D03*
D12*
X143113900Y-135617700D03*
X149463900Y-133077700D03*
%TD*%
D13*
%TO.C,BackSpaceStab1*%
X346829000Y-164197200D03*
D11*
X346829000Y-148957200D03*
D13*
X323016500Y-164197200D03*
D11*
X323016500Y-148957200D03*
%TD*%
D13*
%TO.C,LeftShiftStab1*%
X103924700Y-183090600D03*
D11*
X103924700Y-167850600D03*
D13*
X80112200Y-183090600D03*
D11*
X80112200Y-167850600D03*
%TD*%
D10*
%TO.C,MX11*%
X265668900Y-119107700D03*
D11*
X270748900Y-119107700D03*
D10*
X275828900Y-119107700D03*
D12*
X266938900Y-116567700D03*
X273288900Y-114027700D03*
%TD*%
D10*
%TO.C,MX12*%
X284718900Y-119107700D03*
D11*
X289798900Y-119107700D03*
D10*
X294878900Y-119107700D03*
D12*
X285988900Y-116567700D03*
X292338900Y-114027700D03*
%TD*%
D10*
%TO.C,MX31*%
X127556400Y-157207700D03*
D11*
X132636400Y-157207700D03*
D10*
X137716400Y-157207700D03*
D12*
X128826400Y-154667700D03*
X135176400Y-152127700D03*
%TD*%
D10*
%TO.C,MX30*%
X108506400Y-157207700D03*
D11*
X113586400Y-157207700D03*
D10*
X118666400Y-157207700D03*
D12*
X109776400Y-154667700D03*
X116126400Y-152127700D03*
%TD*%
D10*
%TO.C,MX49*%
X232331400Y-176257700D03*
D11*
X237411400Y-176257700D03*
D10*
X242491400Y-176257700D03*
D12*
X233601400Y-173717700D03*
X239951400Y-171177700D03*
%TD*%
D10*
%TO.C,MX57*%
X196612650Y-195307700D03*
D11*
X201692650Y-195307700D03*
D10*
X206772650Y-195307700D03*
D12*
X197882650Y-192767700D03*
X204232650Y-190227700D03*
%TD*%
D10*
%TO.C,MX52*%
X289481400Y-176257700D03*
D11*
X294561400Y-176257700D03*
D10*
X299641400Y-176257700D03*
D12*
X290751400Y-173717700D03*
X297101400Y-171177700D03*
%TD*%
D13*
%TO.C,SpaceStab1*%
X251566700Y-202141800D03*
D11*
X251566700Y-186901800D03*
D13*
X151554200Y-202141800D03*
D11*
X151554200Y-186901800D03*
%TD*%
D10*
%TO.C,MX10*%
X246618900Y-119107700D03*
D11*
X251698900Y-119107700D03*
D10*
X256778900Y-119107700D03*
D12*
X247888900Y-116567700D03*
X254238900Y-114027700D03*
%TD*%
D10*
%TO.C,MX54*%
X77550150Y-195307700D03*
D11*
X82630150Y-195307700D03*
D10*
X87710150Y-195307700D03*
D12*
X78820150Y-192767700D03*
X85170150Y-190227700D03*
%TD*%
D10*
%TO.C,MX35*%
X203756400Y-157207700D03*
D11*
X208836400Y-157207700D03*
D10*
X213916400Y-157207700D03*
D12*
X205026400Y-154667700D03*
X211376400Y-152127700D03*
%TD*%
D10*
%TO.C,MX9*%
X227568900Y-119107700D03*
D11*
X232648900Y-119107700D03*
D10*
X237728900Y-119107700D03*
D12*
X228838900Y-116567700D03*
X235188900Y-114027700D03*
%TD*%
D10*
%TO.C,MX32*%
X146606400Y-157207700D03*
D11*
X151686400Y-157207700D03*
D10*
X156766400Y-157207700D03*
D12*
X147876400Y-154667700D03*
X154226400Y-152127700D03*
%TD*%
D10*
%TO.C,MX19*%
X160893900Y-138157700D03*
D11*
X165973900Y-138157700D03*
D10*
X171053900Y-138157700D03*
D12*
X162163900Y-135617700D03*
X168513900Y-133077700D03*
%TD*%
D10*
%TO.C,MX43*%
X118031400Y-176257700D03*
D11*
X123111400Y-176257700D03*
D10*
X128191400Y-176257700D03*
D12*
X119301400Y-173717700D03*
X125651400Y-171177700D03*
%TD*%
D13*
%TO.C,EnterStab1*%
X351685000Y-125937000D03*
D11*
X351685000Y-110697000D03*
D13*
X327872500Y-125937000D03*
D11*
X327872500Y-110697000D03*
%TD*%
D10*
%TO.C,MX2*%
X94218900Y-119107700D03*
D11*
X99298900Y-119107700D03*
D10*
X104378900Y-119107700D03*
D12*
X95488900Y-116567700D03*
X101838900Y-114027700D03*
%TD*%
D10*
%TO.C,MX42*%
X87075150Y-176257700D03*
D11*
X92155150Y-176257700D03*
D10*
X97235150Y-176257700D03*
D12*
X88345150Y-173717700D03*
X94695150Y-171177700D03*
%TD*%
D10*
%TO.C,MX60*%
X315675150Y-195307700D03*
D11*
X320755150Y-195307700D03*
D10*
X325835150Y-195307700D03*
D12*
X316945150Y-192767700D03*
X323295150Y-190227700D03*
%TD*%
D10*
%TO.C,MX21*%
X198993900Y-138157700D03*
D11*
X204073900Y-138157700D03*
D10*
X209153900Y-138157700D03*
D12*
X200263900Y-135617700D03*
X206613900Y-133077700D03*
%TD*%
D10*
%TO.C,MX34*%
X184706400Y-157207700D03*
D11*
X189786400Y-157207700D03*
D10*
X194866400Y-157207700D03*
D12*
X185976400Y-154667700D03*
X192326400Y-152127700D03*
%TD*%
D10*
%TO.C,MX27*%
X313293900Y-138157700D03*
D11*
X318373900Y-138157700D03*
D10*
X323453900Y-138157700D03*
D12*
X314563900Y-135617700D03*
X320913900Y-133077700D03*
%TD*%
D10*
%TO.C,MX28*%
X337106400Y-138157700D03*
D11*
X342186400Y-138157700D03*
D10*
X347266400Y-138157700D03*
D12*
X338376400Y-135617700D03*
X344726400Y-133077700D03*
%TD*%
D10*
%TO.C,MX58*%
X268050150Y-195307700D03*
D11*
X273130150Y-195307700D03*
D10*
X278210150Y-195307700D03*
D12*
X269320150Y-192767700D03*
X275670150Y-190227700D03*
%TD*%
D10*
%TO.C,MX5*%
X151368900Y-119107700D03*
D11*
X156448900Y-119107700D03*
D10*
X161528900Y-119107700D03*
D12*
X152638900Y-116567700D03*
X158988900Y-114027700D03*
%TD*%
D10*
%TO.C,MX38*%
X260906400Y-157207700D03*
D11*
X265986400Y-157207700D03*
D10*
X271066400Y-157207700D03*
D12*
X262176400Y-154667700D03*
X268526400Y-152127700D03*
%TD*%
D10*
%TO.C,MX61*%
X339487650Y-195307700D03*
D11*
X344567650Y-195307700D03*
D10*
X349647650Y-195307700D03*
D12*
X340757650Y-192767700D03*
X347107650Y-190227700D03*
%TD*%
D10*
%TO.C,MX24*%
X256143900Y-138157700D03*
D11*
X261223900Y-138157700D03*
D10*
X266303900Y-138157700D03*
D12*
X257413900Y-135617700D03*
X263763900Y-133077700D03*
%TD*%
D10*
%TO.C,MX48*%
X213281400Y-176257700D03*
D11*
X218361400Y-176257700D03*
D10*
X223441400Y-176257700D03*
D12*
X214551400Y-173717700D03*
X220901400Y-171177700D03*
%TD*%
D10*
%TO.C,MX44*%
X137081400Y-176257700D03*
D11*
X142161400Y-176257700D03*
D10*
X147241400Y-176257700D03*
D12*
X138351400Y-173717700D03*
X144701400Y-171177700D03*
%TD*%
D10*
%TO.C,MX1*%
X75168900Y-119107700D03*
D11*
X80248900Y-119107700D03*
D10*
X85328900Y-119107700D03*
D12*
X76438900Y-116567700D03*
X82788900Y-114027700D03*
%TD*%
D10*
%TO.C,MX20*%
X179943900Y-138157700D03*
D11*
X185023900Y-138157700D03*
D10*
X190103900Y-138157700D03*
D12*
X181213900Y-135617700D03*
X187563900Y-133077700D03*
%TD*%
D10*
%TO.C,MX4*%
X132318900Y-119107700D03*
D11*
X137398900Y-119107700D03*
D10*
X142478900Y-119107700D03*
D12*
X133588900Y-116567700D03*
X139938900Y-114027700D03*
%TD*%
D10*
%TO.C,MX8*%
X208518900Y-119107700D03*
D11*
X213598900Y-119107700D03*
D10*
X218678900Y-119107700D03*
D12*
X209788900Y-116567700D03*
X216138900Y-114027700D03*
%TD*%
D10*
%TO.C,MX55*%
X101362650Y-195307700D03*
D11*
X106442650Y-195307700D03*
D10*
X111522650Y-195307700D03*
D12*
X102632650Y-192767700D03*
X108982650Y-190227700D03*
%TD*%
D10*
%TO.C,MX7*%
X189468900Y-119107700D03*
D11*
X194548900Y-119107700D03*
D10*
X199628900Y-119107700D03*
D12*
X190738900Y-116567700D03*
X197088900Y-114027700D03*
%TD*%
D10*
%TO.C,MX22*%
X218043900Y-138157700D03*
D11*
X223123900Y-138157700D03*
D10*
X228203900Y-138157700D03*
D12*
X219313900Y-135617700D03*
X225663900Y-133077700D03*
%TD*%
D10*
%TO.C,MX13*%
X303768900Y-119107700D03*
D11*
X308848900Y-119107700D03*
D10*
X313928900Y-119107700D03*
D12*
X305038900Y-116567700D03*
X311388900Y-114027700D03*
%TD*%
D10*
%TO.C,MX51*%
X270431400Y-176257700D03*
D11*
X275511400Y-176257700D03*
D10*
X280591400Y-176257700D03*
D12*
X271701400Y-173717700D03*
X278051400Y-171177700D03*
%TD*%
D10*
%TO.C,MX50*%
X251381400Y-176257700D03*
D11*
X256461400Y-176257700D03*
D10*
X261541400Y-176257700D03*
D12*
X252651400Y-173717700D03*
X259001400Y-171177700D03*
%TD*%
D10*
%TO.C,MX29*%
X82312650Y-157207700D03*
D11*
X87392650Y-157207700D03*
D10*
X92472650Y-157207700D03*
D12*
X83582650Y-154667700D03*
X89932650Y-152127700D03*
%TD*%
D10*
%TO.C,MX39*%
X279956400Y-157207700D03*
D11*
X285036400Y-157207700D03*
D10*
X290116400Y-157207700D03*
D12*
X281226400Y-154667700D03*
X287576400Y-152127700D03*
%TD*%
D10*
%TO.C,MX15*%
X79931400Y-138157700D03*
D11*
X85011400Y-138157700D03*
D10*
X90091400Y-138157700D03*
D12*
X81201400Y-135617700D03*
X87551400Y-133077700D03*
%TD*%
D10*
%TO.C,MX45*%
X156131400Y-176257700D03*
D11*
X161211400Y-176257700D03*
D10*
X166291400Y-176257700D03*
D12*
X157401400Y-173717700D03*
X163751400Y-171177700D03*
%TD*%
D10*
%TO.C,MX17*%
X122793900Y-138157700D03*
D11*
X127873900Y-138157700D03*
D10*
X132953900Y-138157700D03*
D12*
X124063900Y-135617700D03*
X130413900Y-133077700D03*
%TD*%
D10*
%TO.C,MX6*%
X170418900Y-119107700D03*
D11*
X175498900Y-119107700D03*
D10*
X180578900Y-119107700D03*
D12*
X171688900Y-116567700D03*
X178038900Y-114027700D03*
%TD*%
D10*
%TO.C,MX26*%
X294243900Y-138157700D03*
D11*
X299323900Y-138157700D03*
D10*
X304403900Y-138157700D03*
D12*
X295513900Y-135617700D03*
X301863900Y-133077700D03*
%TD*%
D10*
%TO.C,MX46*%
X175181400Y-176257700D03*
D11*
X180261400Y-176257700D03*
D10*
X185341400Y-176257700D03*
D12*
X176451400Y-173717700D03*
X182801400Y-171177700D03*
%TD*%
D10*
%TO.C,MX25*%
X275193900Y-138157700D03*
D11*
X280273900Y-138157700D03*
D10*
X285353900Y-138157700D03*
D12*
X276463900Y-135617700D03*
X282813900Y-133077700D03*
%TD*%
D14*
%TO.C,D14*%
X340599100Y-123932900D03*
X340599100Y-120632900D03*
%TD*%
%TO.C,D53*%
X333455350Y-181082900D03*
X333455350Y-177782900D03*
%TD*%
%TO.C,D50*%
X259636600Y-181082900D03*
X259636600Y-177782900D03*
%TD*%
%TO.C,D48*%
X221536600Y-181082900D03*
X221536600Y-177782900D03*
%TD*%
%TO.C,D19*%
X169149100Y-142982900D03*
X169149100Y-139682900D03*
%TD*%
%TO.C,D16*%
X111999100Y-142982900D03*
X111999100Y-139682900D03*
%TD*%
%TO.C,D27*%
X321549100Y-142982900D03*
X321549100Y-139682900D03*
%TD*%
%TO.C,D24*%
X264399100Y-142982900D03*
X264399100Y-139682900D03*
%TD*%
%TO.C,D23*%
X245349100Y-142982900D03*
X245349100Y-139682900D03*
%TD*%
%TO.C,D17*%
X131049100Y-142982900D03*
X131049100Y-139682900D03*
%TD*%
%TO.C,D43*%
X126286600Y-181082900D03*
X126286600Y-177782900D03*
%TD*%
%TO.C,D10*%
X254874100Y-123932900D03*
X254874100Y-120632900D03*
%TD*%
%TO.C,D26*%
X302499100Y-142982900D03*
X302499100Y-139682900D03*
%TD*%
%TO.C,D49*%
X240586600Y-181082900D03*
X240586600Y-177782900D03*
%TD*%
%TO.C,D35*%
X212011600Y-162032900D03*
X212011600Y-158732900D03*
%TD*%
%TO.C,D58*%
X276305350Y-200132900D03*
X276305350Y-196832900D03*
%TD*%
%TO.C,D29*%
X90567850Y-162032900D03*
X90567850Y-158732900D03*
%TD*%
%TO.C,D22*%
X226299100Y-142982900D03*
X226299100Y-139682900D03*
%TD*%
%TO.C,D15*%
X88186600Y-142982900D03*
X88186600Y-139682900D03*
%TD*%
%TO.C,D52*%
X297736600Y-181082900D03*
X297736600Y-177782900D03*
%TD*%
%TO.C,D3*%
X121524100Y-123932900D03*
X121524100Y-120632900D03*
%TD*%
%TO.C,D28*%
X345361600Y-142982900D03*
X345361600Y-139682900D03*
%TD*%
%TO.C,D20*%
X188199100Y-142982900D03*
X188199100Y-139682900D03*
%TD*%
%TO.C,D41*%
X338217850Y-162032900D03*
X338217850Y-158732900D03*
%TD*%
%TO.C,D33*%
X173911600Y-162032900D03*
X173911600Y-158732900D03*
%TD*%
%TO.C,D8*%
X216774100Y-123932900D03*
X216774100Y-120632900D03*
%TD*%
%TO.C,D2*%
X102474100Y-123932900D03*
X102474100Y-120632900D03*
%TD*%
%TO.C,D45*%
X164386600Y-181082900D03*
X164386600Y-177782900D03*
%TD*%
%TO.C,D18*%
X150099100Y-142982900D03*
X150099100Y-139682900D03*
%TD*%
%TO.C,D31*%
X135811600Y-162032900D03*
X135811600Y-158732900D03*
%TD*%
%TO.C,D56*%
X133430350Y-200132900D03*
X133430350Y-196832900D03*
%TD*%
%TO.C,D44*%
X145336600Y-181082900D03*
X145336600Y-177782900D03*
%TD*%
%TO.C,D11*%
X273924100Y-123932900D03*
X273924100Y-120632900D03*
%TD*%
%TO.C,D61*%
X347742850Y-200132900D03*
X347742850Y-196832900D03*
%TD*%
%TO.C,D37*%
X250111600Y-162032900D03*
X250111600Y-158732900D03*
%TD*%
%TO.C,D39*%
X288211600Y-162032900D03*
X288211600Y-158732900D03*
%TD*%
%TO.C,D13*%
X312024100Y-123932900D03*
X312024100Y-120632900D03*
%TD*%
%TO.C,D38*%
X269161600Y-162032900D03*
X269161600Y-158732900D03*
%TD*%
%TO.C,D21*%
X207249100Y-142982900D03*
X207249100Y-139682900D03*
%TD*%
%TO.C,D46*%
X183436600Y-181082900D03*
X183436600Y-177782900D03*
%TD*%
%TO.C,D9*%
X235824100Y-123932900D03*
X235824100Y-120632900D03*
%TD*%
%TO.C,D30*%
X116761600Y-162032900D03*
X116761600Y-158732900D03*
%TD*%
%TO.C,D5*%
X159624100Y-123932900D03*
X159624100Y-120632900D03*
%TD*%
%TO.C,D54*%
X85805350Y-200132900D03*
X85805350Y-196832900D03*
%TD*%
%TO.C,D59*%
X300117850Y-200132900D03*
X300117850Y-196832900D03*
%TD*%
%TO.C,D1*%
X83424100Y-123932900D03*
X83424100Y-120632900D03*
%TD*%
%TO.C,D25*%
X283449100Y-142982900D03*
X283449100Y-139682900D03*
%TD*%
%TO.C,D57*%
X204867850Y-200132900D03*
X204867850Y-196832900D03*
%TD*%
%TO.C,D32*%
X154861600Y-162032900D03*
X154861600Y-158732900D03*
%TD*%
%TO.C,D47*%
X202486600Y-181082900D03*
X202486600Y-177782900D03*
%TD*%
%TO.C,D4*%
X140574100Y-123932900D03*
X140574100Y-120632900D03*
%TD*%
%TO.C,D42*%
X95330350Y-181082900D03*
X95330350Y-177782900D03*
%TD*%
%TO.C,D55*%
X109617850Y-200132900D03*
X109617850Y-196832900D03*
%TD*%
%TO.C,D51*%
X278686600Y-181082900D03*
X278686600Y-177782900D03*
%TD*%
%TO.C,D34*%
X192961600Y-162032900D03*
X192961600Y-158732900D03*
%TD*%
%TO.C,D7*%
X197724100Y-123932900D03*
X197724100Y-120632900D03*
%TD*%
%TO.C,D60*%
X323930350Y-200132900D03*
X323930350Y-196832900D03*
%TD*%
%TO.C,D6*%
X178674100Y-123932900D03*
X178674100Y-120632900D03*
%TD*%
%TO.C,D12*%
X292974100Y-123932900D03*
X292974100Y-120632900D03*
%TD*%
%TO.C,D36*%
X231061600Y-162032900D03*
X231061600Y-158732900D03*
%TD*%
%TO.C,D40*%
X307261600Y-162032900D03*
X307261600Y-158732900D03*
%TD*%
D15*
%TO.C,U4*%
X72112500Y-95590000D03*
D16*
X74652500Y-95590000D03*
X77192500Y-95590000D03*
X79732500Y-95590000D03*
X82272500Y-95590000D03*
X84812500Y-95590000D03*
X87352500Y-95590000D03*
X89892500Y-95590000D03*
X92432500Y-95590000D03*
X94972500Y-95590000D03*
X97512500Y-95590000D03*
X100052500Y-95590000D03*
X102592500Y-95590000D03*
X105132500Y-95590000D03*
X107672500Y-95590000D03*
X110212500Y-95590000D03*
X112752500Y-95590000D03*
X115292500Y-95590000D03*
X117832500Y-95590000D03*
X120372500Y-95590000D03*
X120372500Y-80350000D03*
X117832500Y-80350000D03*
X115292500Y-80350000D03*
X112752500Y-80350000D03*
X110212500Y-80350000D03*
X107672500Y-80350000D03*
X105132500Y-80350000D03*
X102592500Y-80350000D03*
X100052500Y-80350000D03*
X97512500Y-80350000D03*
X94972500Y-80350000D03*
X92432500Y-80350000D03*
X89892500Y-80350000D03*
X87352500Y-80350000D03*
X84812500Y-80350000D03*
X82272500Y-80350000D03*
X79732500Y-80350000D03*
X77192500Y-80350000D03*
X74652500Y-80350000D03*
X72112500Y-80350000D03*
%TD*%
M02*
