%TF.GenerationSoftware,KiCad,Pcbnew,9.0.3*%
%TF.CreationDate,2025-08-13T20:15:07-07:00*%
%TF.ProjectId,keyboardpls,6b657962-6f61-4726-9470-6c732e6b6963,rev?*%
%TF.SameCoordinates,Original*%
%TF.FileFunction,Paste,Bot*%
%TF.FilePolarity,Positive*%
%FSLAX46Y46*%
G04 Gerber Fmt 4.6, Leading zero omitted, Abs format (unit mm)*
G04 Created by KiCad (PCBNEW 9.0.3) date 2025-08-13 20:15:07*
%MOMM*%
%LPD*%
G01*
G04 APERTURE LIST*
G04 Aperture macros list*
%AMRoundRect*
0 Rectangle with rounded corners*
0 $1 Rounding radius*
0 $2 $3 $4 $5 $6 $7 $8 $9 X,Y pos of 4 corners*
0 Add a 4 corners polygon primitive as box body*
4,1,4,$2,$3,$4,$5,$6,$7,$8,$9,$2,$3,0*
0 Add four circle primitives for the rounded corners*
1,1,$1+$1,$2,$3*
1,1,$1+$1,$4,$5*
1,1,$1+$1,$6,$7*
1,1,$1+$1,$8,$9*
0 Add four rect primitives between the rounded corners*
20,1,$1+$1,$2,$3,$4,$5,0*
20,1,$1+$1,$4,$5,$6,$7,0*
20,1,$1+$1,$6,$7,$8,$9,0*
20,1,$1+$1,$8,$9,$2,$3,0*%
G04 Aperture macros list end*
%ADD10RoundRect,0.225000X0.375000X-0.225000X0.375000X0.225000X-0.375000X0.225000X-0.375000X-0.225000X0*%
G04 APERTURE END LIST*
D10*
%TO.C,D14*%
X340599100Y-123932900D03*
X340599100Y-120632900D03*
%TD*%
%TO.C,D53*%
X333455350Y-181082900D03*
X333455350Y-177782900D03*
%TD*%
%TO.C,D50*%
X259636600Y-181082900D03*
X259636600Y-177782900D03*
%TD*%
%TO.C,D48*%
X221536600Y-181082900D03*
X221536600Y-177782900D03*
%TD*%
%TO.C,D19*%
X169149100Y-142982900D03*
X169149100Y-139682900D03*
%TD*%
%TO.C,D16*%
X111999100Y-142982900D03*
X111999100Y-139682900D03*
%TD*%
%TO.C,D27*%
X321549100Y-142982900D03*
X321549100Y-139682900D03*
%TD*%
%TO.C,D24*%
X264399100Y-142982900D03*
X264399100Y-139682900D03*
%TD*%
%TO.C,D23*%
X245349100Y-142982900D03*
X245349100Y-139682900D03*
%TD*%
%TO.C,D17*%
X131049100Y-142982900D03*
X131049100Y-139682900D03*
%TD*%
%TO.C,D43*%
X126286600Y-181082900D03*
X126286600Y-177782900D03*
%TD*%
%TO.C,D10*%
X254874100Y-123932900D03*
X254874100Y-120632900D03*
%TD*%
%TO.C,D26*%
X302499100Y-142982900D03*
X302499100Y-139682900D03*
%TD*%
%TO.C,D49*%
X240586600Y-181082900D03*
X240586600Y-177782900D03*
%TD*%
%TO.C,D35*%
X212011600Y-162032900D03*
X212011600Y-158732900D03*
%TD*%
%TO.C,D58*%
X276305350Y-200132900D03*
X276305350Y-196832900D03*
%TD*%
%TO.C,D29*%
X90567850Y-162032900D03*
X90567850Y-158732900D03*
%TD*%
%TO.C,D22*%
X226299100Y-142982900D03*
X226299100Y-139682900D03*
%TD*%
%TO.C,D15*%
X88186600Y-142982900D03*
X88186600Y-139682900D03*
%TD*%
%TO.C,D52*%
X297736600Y-181082900D03*
X297736600Y-177782900D03*
%TD*%
%TO.C,D3*%
X121524100Y-123932900D03*
X121524100Y-120632900D03*
%TD*%
%TO.C,D28*%
X345361600Y-142982900D03*
X345361600Y-139682900D03*
%TD*%
%TO.C,D20*%
X188199100Y-142982900D03*
X188199100Y-139682900D03*
%TD*%
%TO.C,D41*%
X338217850Y-162032900D03*
X338217850Y-158732900D03*
%TD*%
%TO.C,D33*%
X173911600Y-162032900D03*
X173911600Y-158732900D03*
%TD*%
%TO.C,D8*%
X216774100Y-123932900D03*
X216774100Y-120632900D03*
%TD*%
%TO.C,D2*%
X102474100Y-123932900D03*
X102474100Y-120632900D03*
%TD*%
%TO.C,D45*%
X164386600Y-181082900D03*
X164386600Y-177782900D03*
%TD*%
%TO.C,D18*%
X150099100Y-142982900D03*
X150099100Y-139682900D03*
%TD*%
%TO.C,D31*%
X135811600Y-162032900D03*
X135811600Y-158732900D03*
%TD*%
%TO.C,D56*%
X133430350Y-200132900D03*
X133430350Y-196832900D03*
%TD*%
%TO.C,D44*%
X145336600Y-181082900D03*
X145336600Y-177782900D03*
%TD*%
%TO.C,D11*%
X273924100Y-123932900D03*
X273924100Y-120632900D03*
%TD*%
%TO.C,D61*%
X347742850Y-200132900D03*
X347742850Y-196832900D03*
%TD*%
%TO.C,D37*%
X250111600Y-162032900D03*
X250111600Y-158732900D03*
%TD*%
%TO.C,D39*%
X288211600Y-162032900D03*
X288211600Y-158732900D03*
%TD*%
%TO.C,D13*%
X312024100Y-123932900D03*
X312024100Y-120632900D03*
%TD*%
%TO.C,D38*%
X269161600Y-162032900D03*
X269161600Y-158732900D03*
%TD*%
%TO.C,D21*%
X207249100Y-142982900D03*
X207249100Y-139682900D03*
%TD*%
%TO.C,D46*%
X183436600Y-181082900D03*
X183436600Y-177782900D03*
%TD*%
%TO.C,D9*%
X235824100Y-123932900D03*
X235824100Y-120632900D03*
%TD*%
%TO.C,D30*%
X116761600Y-162032900D03*
X116761600Y-158732900D03*
%TD*%
%TO.C,D5*%
X159624100Y-123932900D03*
X159624100Y-120632900D03*
%TD*%
%TO.C,D54*%
X85805350Y-200132900D03*
X85805350Y-196832900D03*
%TD*%
%TO.C,D59*%
X300117850Y-200132900D03*
X300117850Y-196832900D03*
%TD*%
%TO.C,D1*%
X83424100Y-123932900D03*
X83424100Y-120632900D03*
%TD*%
%TO.C,D25*%
X283449100Y-142982900D03*
X283449100Y-139682900D03*
%TD*%
%TO.C,D57*%
X204867850Y-200132900D03*
X204867850Y-196832900D03*
%TD*%
%TO.C,D32*%
X154861600Y-162032900D03*
X154861600Y-158732900D03*
%TD*%
%TO.C,D47*%
X202486600Y-181082900D03*
X202486600Y-177782900D03*
%TD*%
%TO.C,D4*%
X140574100Y-123932900D03*
X140574100Y-120632900D03*
%TD*%
%TO.C,D42*%
X95330350Y-181082900D03*
X95330350Y-177782900D03*
%TD*%
%TO.C,D55*%
X109617850Y-200132900D03*
X109617850Y-196832900D03*
%TD*%
%TO.C,D51*%
X278686600Y-181082900D03*
X278686600Y-177782900D03*
%TD*%
%TO.C,D34*%
X192961600Y-162032900D03*
X192961600Y-158732900D03*
%TD*%
%TO.C,D7*%
X197724100Y-123932900D03*
X197724100Y-120632900D03*
%TD*%
%TO.C,D60*%
X323930350Y-200132900D03*
X323930350Y-196832900D03*
%TD*%
%TO.C,D6*%
X178674100Y-123932900D03*
X178674100Y-120632900D03*
%TD*%
%TO.C,D12*%
X292974100Y-123932900D03*
X292974100Y-120632900D03*
%TD*%
%TO.C,D36*%
X231061600Y-162032900D03*
X231061600Y-158732900D03*
%TD*%
%TO.C,D40*%
X307261600Y-162032900D03*
X307261600Y-158732900D03*
%TD*%
M02*
