%TF.GenerationSoftware,KiCad,Pcbnew,9.0.3*%
%TF.CreationDate,2025-08-13T20:15:07-07:00*%
%TF.ProjectId,keyboardpls,6b657962-6f61-4726-9470-6c732e6b6963,rev?*%
%TF.SameCoordinates,Original*%
%TF.FileFunction,Legend,Top*%
%TF.FilePolarity,Positive*%
%FSLAX46Y46*%
G04 Gerber Fmt 4.6, Leading zero omitted, Abs format (unit mm)*
G04 Created by KiCad (PCBNEW 9.0.3) date 2025-08-13 20:15:07*
%MOMM*%
%LPD*%
G01*
G04 APERTURE LIST*
%ADD10C,0.150000*%
%ADD11C,0.120000*%
%ADD12C,0.100000*%
G04 APERTURE END LIST*
D10*
X67757319Y-88731904D02*
X68566842Y-88731904D01*
X68566842Y-88731904D02*
X68662080Y-88684285D01*
X68662080Y-88684285D02*
X68709700Y-88636666D01*
X68709700Y-88636666D02*
X68757319Y-88541428D01*
X68757319Y-88541428D02*
X68757319Y-88350952D01*
X68757319Y-88350952D02*
X68709700Y-88255714D01*
X68709700Y-88255714D02*
X68662080Y-88208095D01*
X68662080Y-88208095D02*
X68566842Y-88160476D01*
X68566842Y-88160476D02*
X67757319Y-88160476D01*
X68090652Y-87255714D02*
X68757319Y-87255714D01*
X67709700Y-87493809D02*
X68423985Y-87731904D01*
X68423985Y-87731904D02*
X68423985Y-87112857D01*
X118367643Y-89647200D02*
X118496215Y-89694819D01*
X118496215Y-89694819D02*
X118710500Y-89694819D01*
X118710500Y-89694819D02*
X118796215Y-89647200D01*
X118796215Y-89647200D02*
X118839072Y-89599580D01*
X118839072Y-89599580D02*
X118881929Y-89504342D01*
X118881929Y-89504342D02*
X118881929Y-89409104D01*
X118881929Y-89409104D02*
X118839072Y-89313866D01*
X118839072Y-89313866D02*
X118796215Y-89266247D01*
X118796215Y-89266247D02*
X118710500Y-89218628D01*
X118710500Y-89218628D02*
X118539072Y-89171009D01*
X118539072Y-89171009D02*
X118453357Y-89123390D01*
X118453357Y-89123390D02*
X118410500Y-89075771D01*
X118410500Y-89075771D02*
X118367643Y-88980533D01*
X118367643Y-88980533D02*
X118367643Y-88885295D01*
X118367643Y-88885295D02*
X118410500Y-88790057D01*
X118410500Y-88790057D02*
X118453357Y-88742438D01*
X118453357Y-88742438D02*
X118539072Y-88694819D01*
X118539072Y-88694819D02*
X118753357Y-88694819D01*
X118753357Y-88694819D02*
X118881929Y-88742438D01*
X119181929Y-88694819D02*
X119396215Y-89694819D01*
X119396215Y-89694819D02*
X119567643Y-88980533D01*
X119567643Y-88980533D02*
X119739072Y-89694819D01*
X119739072Y-89694819D02*
X119953358Y-88694819D01*
X120467643Y-88694819D02*
X120639071Y-88694819D01*
X120639071Y-88694819D02*
X120724786Y-88742438D01*
X120724786Y-88742438D02*
X120810500Y-88837676D01*
X120810500Y-88837676D02*
X120853357Y-89028152D01*
X120853357Y-89028152D02*
X120853357Y-89361485D01*
X120853357Y-89361485D02*
X120810500Y-89551961D01*
X120810500Y-89551961D02*
X120724786Y-89647200D01*
X120724786Y-89647200D02*
X120639071Y-89694819D01*
X120639071Y-89694819D02*
X120467643Y-89694819D01*
X120467643Y-89694819D02*
X120381929Y-89647200D01*
X120381929Y-89647200D02*
X120296214Y-89551961D01*
X120296214Y-89551961D02*
X120253357Y-89361485D01*
X120253357Y-89361485D02*
X120253357Y-89028152D01*
X120253357Y-89028152D02*
X120296214Y-88837676D01*
X120296214Y-88837676D02*
X120381929Y-88742438D01*
X120381929Y-88742438D02*
X120467643Y-88694819D01*
X118496214Y-91234819D02*
X119053357Y-91234819D01*
X119053357Y-91234819D02*
X118753357Y-91615771D01*
X118753357Y-91615771D02*
X118881928Y-91615771D01*
X118881928Y-91615771D02*
X118967643Y-91663390D01*
X118967643Y-91663390D02*
X119010500Y-91711009D01*
X119010500Y-91711009D02*
X119053357Y-91806247D01*
X119053357Y-91806247D02*
X119053357Y-92044342D01*
X119053357Y-92044342D02*
X119010500Y-92139580D01*
X119010500Y-92139580D02*
X118967643Y-92187200D01*
X118967643Y-92187200D02*
X118881928Y-92234819D01*
X118881928Y-92234819D02*
X118624785Y-92234819D01*
X118624785Y-92234819D02*
X118539071Y-92187200D01*
X118539071Y-92187200D02*
X118496214Y-92139580D01*
X119310500Y-91234819D02*
X119610500Y-92234819D01*
X119610500Y-92234819D02*
X119910500Y-91234819D01*
X120124786Y-91234819D02*
X120681929Y-91234819D01*
X120681929Y-91234819D02*
X120381929Y-91615771D01*
X120381929Y-91615771D02*
X120510500Y-91615771D01*
X120510500Y-91615771D02*
X120596215Y-91663390D01*
X120596215Y-91663390D02*
X120639072Y-91711009D01*
X120639072Y-91711009D02*
X120681929Y-91806247D01*
X120681929Y-91806247D02*
X120681929Y-92044342D01*
X120681929Y-92044342D02*
X120639072Y-92139580D01*
X120639072Y-92139580D02*
X120596215Y-92187200D01*
X120596215Y-92187200D02*
X120510500Y-92234819D01*
X120510500Y-92234819D02*
X120253357Y-92234819D01*
X120253357Y-92234819D02*
X120167643Y-92187200D01*
X120167643Y-92187200D02*
X120124786Y-92139580D01*
X118336786Y-87107200D02*
X118465358Y-87154819D01*
X118465358Y-87154819D02*
X118679643Y-87154819D01*
X118679643Y-87154819D02*
X118765358Y-87107200D01*
X118765358Y-87107200D02*
X118808215Y-87059580D01*
X118808215Y-87059580D02*
X118851072Y-86964342D01*
X118851072Y-86964342D02*
X118851072Y-86869104D01*
X118851072Y-86869104D02*
X118808215Y-86773866D01*
X118808215Y-86773866D02*
X118765358Y-86726247D01*
X118765358Y-86726247D02*
X118679643Y-86678628D01*
X118679643Y-86678628D02*
X118508215Y-86631009D01*
X118508215Y-86631009D02*
X118422500Y-86583390D01*
X118422500Y-86583390D02*
X118379643Y-86535771D01*
X118379643Y-86535771D02*
X118336786Y-86440533D01*
X118336786Y-86440533D02*
X118336786Y-86345295D01*
X118336786Y-86345295D02*
X118379643Y-86250057D01*
X118379643Y-86250057D02*
X118422500Y-86202438D01*
X118422500Y-86202438D02*
X118508215Y-86154819D01*
X118508215Y-86154819D02*
X118722500Y-86154819D01*
X118722500Y-86154819D02*
X118851072Y-86202438D01*
X119151072Y-86154819D02*
X119365358Y-87154819D01*
X119365358Y-87154819D02*
X119536786Y-86440533D01*
X119536786Y-86440533D02*
X119708215Y-87154819D01*
X119708215Y-87154819D02*
X119922501Y-86154819D01*
X120779643Y-87059580D02*
X120736786Y-87107200D01*
X120736786Y-87107200D02*
X120608214Y-87154819D01*
X120608214Y-87154819D02*
X120522500Y-87154819D01*
X120522500Y-87154819D02*
X120393929Y-87107200D01*
X120393929Y-87107200D02*
X120308214Y-87011961D01*
X120308214Y-87011961D02*
X120265357Y-86916723D01*
X120265357Y-86916723D02*
X120222500Y-86726247D01*
X120222500Y-86726247D02*
X120222500Y-86583390D01*
X120222500Y-86583390D02*
X120265357Y-86392914D01*
X120265357Y-86392914D02*
X120308214Y-86297676D01*
X120308214Y-86297676D02*
X120393929Y-86202438D01*
X120393929Y-86202438D02*
X120522500Y-86154819D01*
X120522500Y-86154819D02*
X120608214Y-86154819D01*
X120608214Y-86154819D02*
X120736786Y-86202438D01*
X120736786Y-86202438D02*
X120779643Y-86250057D01*
X121593929Y-87154819D02*
X121165357Y-87154819D01*
X121165357Y-87154819D02*
X121165357Y-86154819D01*
X121893928Y-87154819D02*
X121893928Y-86154819D01*
X122408214Y-87154819D02*
X122022500Y-86583390D01*
X122408214Y-86154819D02*
X121893928Y-86726247D01*
X118924786Y-83662438D02*
X118839072Y-83614819D01*
X118839072Y-83614819D02*
X118710500Y-83614819D01*
X118710500Y-83614819D02*
X118581929Y-83662438D01*
X118581929Y-83662438D02*
X118496214Y-83757676D01*
X118496214Y-83757676D02*
X118453357Y-83852914D01*
X118453357Y-83852914D02*
X118410500Y-84043390D01*
X118410500Y-84043390D02*
X118410500Y-84186247D01*
X118410500Y-84186247D02*
X118453357Y-84376723D01*
X118453357Y-84376723D02*
X118496214Y-84471961D01*
X118496214Y-84471961D02*
X118581929Y-84567200D01*
X118581929Y-84567200D02*
X118710500Y-84614819D01*
X118710500Y-84614819D02*
X118796214Y-84614819D01*
X118796214Y-84614819D02*
X118924786Y-84567200D01*
X118924786Y-84567200D02*
X118967643Y-84519580D01*
X118967643Y-84519580D02*
X118967643Y-84186247D01*
X118967643Y-84186247D02*
X118796214Y-84186247D01*
X119353357Y-84614819D02*
X119353357Y-83614819D01*
X119353357Y-83614819D02*
X119867643Y-84614819D01*
X119867643Y-84614819D02*
X119867643Y-83614819D01*
X120296214Y-84614819D02*
X120296214Y-83614819D01*
X120296214Y-83614819D02*
X120510500Y-83614819D01*
X120510500Y-83614819D02*
X120639071Y-83662438D01*
X120639071Y-83662438D02*
X120724786Y-83757676D01*
X120724786Y-83757676D02*
X120767643Y-83852914D01*
X120767643Y-83852914D02*
X120810500Y-84043390D01*
X120810500Y-84043390D02*
X120810500Y-84186247D01*
X120810500Y-84186247D02*
X120767643Y-84376723D01*
X120767643Y-84376723D02*
X120724786Y-84471961D01*
X120724786Y-84471961D02*
X120639071Y-84567200D01*
X120639071Y-84567200D02*
X120510500Y-84614819D01*
X120510500Y-84614819D02*
X120296214Y-84614819D01*
D11*
%TO.C,U4*%
X69667500Y-76595000D02*
X122817500Y-76595000D01*
X69667500Y-99345000D02*
X69667500Y-76595000D01*
X69742500Y-84117388D02*
X69905392Y-83932513D01*
X69742500Y-85120000D02*
X69742500Y-90820000D01*
X69742500Y-91822613D02*
X69905392Y-92007488D01*
X69885895Y-85120000D02*
X69742500Y-85120000D01*
X69885895Y-85120000D02*
X69885895Y-90820000D01*
X69885895Y-90820000D02*
X69742500Y-90820000D01*
X69905392Y-83932513D02*
X70221653Y-84211167D01*
X69905392Y-92007488D02*
X70221653Y-91728834D01*
X69947289Y-84870000D02*
X70292500Y-84870000D01*
X69947289Y-91070000D02*
X70292500Y-91070000D01*
X70057741Y-84395143D02*
X69742500Y-84117388D01*
X70057741Y-91544858D02*
X69742500Y-91822613D01*
X70092969Y-84097785D02*
X69930078Y-84282660D01*
X70092969Y-91842216D02*
X69930078Y-91657341D01*
X70227931Y-91070000D02*
X70227931Y-84870000D01*
X70292500Y-84510729D02*
X70292500Y-84255073D01*
X70292500Y-91429272D02*
X70292500Y-91684928D01*
X70371325Y-84831536D02*
X70371325Y-91108465D01*
X70384000Y-84273573D02*
X70392169Y-84278514D01*
X70384000Y-91666428D02*
X70392169Y-91661487D01*
X70386925Y-84273590D02*
X70384000Y-84273573D01*
X70386925Y-84273590D02*
X75392500Y-84273590D01*
X70386925Y-91666411D02*
X70384000Y-91666428D01*
X70386925Y-91666411D02*
X75392500Y-91666411D01*
X70392169Y-84278514D02*
X70392500Y-84280104D01*
X70392169Y-91661487D02*
X70392500Y-91659897D01*
X70392436Y-84773590D02*
X75402500Y-84773590D01*
X70392436Y-91166411D02*
X75402500Y-91166411D01*
X70392500Y-84280104D02*
X70392500Y-84770000D01*
X70392500Y-84519989D02*
X70388285Y-84519989D01*
X70392500Y-84770000D02*
X70392436Y-84773590D01*
X70392500Y-91170000D02*
X70392436Y-91166411D01*
X70392500Y-91420012D02*
X70388285Y-91420012D01*
X70392500Y-91659897D02*
X70392500Y-91170000D01*
X70782500Y-96920000D02*
X70782500Y-95590000D01*
X70842500Y-79080000D02*
X121642500Y-79080000D01*
X70842500Y-81620000D02*
X70842500Y-79080000D01*
X72112500Y-96920000D02*
X70782500Y-96920000D01*
X73382500Y-94260000D02*
X121702500Y-94260000D01*
X73382500Y-96920000D02*
X73382500Y-94260000D01*
X75392500Y-84273590D02*
X75392500Y-91666411D01*
X75402500Y-84519989D02*
X75402500Y-91420012D01*
X77914777Y-89832467D02*
X77914777Y-93132467D01*
X77914878Y-89827983D02*
X77914777Y-89832467D01*
X78014777Y-93232467D02*
X83814777Y-93232467D01*
X78064777Y-92382467D02*
X78064777Y-90582467D01*
X78164777Y-90482467D02*
X78814777Y-90482467D01*
X78221500Y-86258528D02*
X78221500Y-86447631D01*
X78222500Y-88240000D02*
X78222500Y-83360000D01*
X78233900Y-85700000D02*
X83302500Y-85700000D01*
X78322500Y-83260000D02*
X83202500Y-83260000D01*
X78614503Y-88341000D02*
X78803606Y-88341000D01*
X78814777Y-90482467D02*
X78914777Y-90582467D01*
X78814777Y-92482467D02*
X78164777Y-92482467D01*
X78892500Y-83930000D02*
X82632500Y-83930000D01*
X78892500Y-85130000D02*
X78892500Y-83930000D01*
X78892500Y-86470000D02*
X82632500Y-86470000D01*
X78892500Y-87670000D02*
X78892500Y-86470000D01*
X78914777Y-90582467D02*
X78914777Y-92382467D01*
X79174301Y-84211802D02*
X79810698Y-84211802D01*
X79174301Y-84848199D02*
X79174301Y-84211802D01*
X79174301Y-86751802D02*
X79810698Y-86751802D01*
X79174301Y-87388199D02*
X79174301Y-86751802D01*
X79343670Y-88341000D02*
X79377624Y-88341000D01*
X79414777Y-92382467D02*
X79414777Y-90582467D01*
X79427003Y-88341000D02*
X79471875Y-88341000D01*
X79514777Y-90482467D02*
X82314777Y-90482467D01*
X79810698Y-84211802D02*
X79810698Y-84848199D01*
X79810698Y-84848199D02*
X79174301Y-84848199D01*
X79810698Y-86751802D02*
X79810698Y-87388199D01*
X79810698Y-87388199D02*
X79174301Y-87388199D01*
X81714301Y-84211802D02*
X82350698Y-84211802D01*
X81714301Y-84848199D02*
X81714301Y-84211802D01*
X81714301Y-86751802D02*
X82350698Y-86751802D01*
X81714301Y-87388199D02*
X81714301Y-86751802D01*
X82314777Y-92482467D02*
X79514777Y-92482467D01*
X82350698Y-84211802D02*
X82350698Y-84848199D01*
X82350698Y-84848199D02*
X81714301Y-84848199D01*
X82350698Y-86751802D02*
X82350698Y-87388199D01*
X82350698Y-87388199D02*
X81714301Y-87388199D01*
X82414777Y-90582467D02*
X82414777Y-92382467D01*
X82632500Y-83930000D02*
X82632500Y-85130000D01*
X82632500Y-85130000D02*
X78892500Y-85130000D01*
X82632500Y-86470000D02*
X82632500Y-87670000D01*
X82632500Y-87670000D02*
X78892500Y-87670000D01*
X82914777Y-92382467D02*
X82914777Y-90582467D01*
X83014777Y-90482467D02*
X83664777Y-90482467D01*
X83202500Y-88340000D02*
X78322500Y-88340000D01*
X83202500Y-88340000D02*
X83602500Y-88340000D01*
X83302500Y-83360000D02*
X83302500Y-85700000D01*
X83302500Y-85900000D02*
X78233900Y-85900000D01*
X83302500Y-85900000D02*
X83302500Y-88240000D01*
X83602500Y-83260000D02*
X83202500Y-83260000D01*
X83602500Y-88340000D02*
X85542500Y-88340000D01*
X83664777Y-92482467D02*
X83014777Y-92482467D01*
X83764777Y-90582467D02*
X83764777Y-92382467D01*
X83814777Y-89732467D02*
X78014777Y-89732467D01*
X83914777Y-93132467D02*
X83914777Y-89832467D01*
X84254301Y-84211802D02*
X84890698Y-84211802D01*
X84254301Y-84848199D02*
X84254301Y-84211802D01*
X84254301Y-86751802D02*
X84890698Y-86751802D01*
X84254301Y-87388199D02*
X84254301Y-86751802D01*
X84890698Y-84211802D02*
X84890698Y-84848199D01*
X84890698Y-84848199D02*
X84254301Y-84848199D01*
X84890698Y-86751802D02*
X84890698Y-87388199D01*
X84890698Y-87388199D02*
X84254301Y-87388199D01*
X85542500Y-83260000D02*
X83602500Y-83260000D01*
X85542500Y-88340000D02*
X85842500Y-88040000D01*
X85842500Y-83560000D02*
X85542500Y-83260000D01*
X85842500Y-88040000D02*
X85842500Y-83560000D01*
X91028486Y-86704132D02*
X91735593Y-87411238D01*
X91028486Y-88966873D02*
X91240618Y-89179005D01*
X91028486Y-88966873D02*
X91735593Y-88259767D01*
X91240618Y-86492000D02*
X91028486Y-86704132D01*
X91240618Y-86492000D02*
X91947725Y-87199106D01*
X91240618Y-89179005D02*
X91947725Y-88471899D01*
X91361329Y-87785502D02*
X91361329Y-87885502D01*
X91361329Y-87885502D02*
X96211076Y-92735250D01*
X91382039Y-86350578D02*
X92089146Y-87057685D01*
X91382039Y-89320427D02*
X91594171Y-89532559D01*
X91382039Y-89320427D02*
X92089146Y-88613320D01*
X91594171Y-86138446D02*
X91382039Y-86350578D01*
X91594171Y-86138446D02*
X92301278Y-86845553D01*
X91594171Y-89532559D02*
X92301278Y-88825452D01*
X91735593Y-85997025D02*
X92442700Y-86704132D01*
X91735593Y-89673980D02*
X91947725Y-89886112D01*
X91735593Y-89673980D02*
X92442700Y-88966873D01*
X91947725Y-85784893D02*
X91735593Y-85997025D01*
X91947725Y-85784893D02*
X92654832Y-86492000D01*
X91947725Y-89886112D02*
X92654832Y-89179005D01*
X92089146Y-85643471D02*
X92796253Y-86350578D01*
X92089146Y-90027533D02*
X92301278Y-90239666D01*
X92089146Y-90027533D02*
X92796253Y-89320427D01*
X92301278Y-85431339D02*
X92089146Y-85643471D01*
X92301278Y-85431339D02*
X93008385Y-86138446D01*
X92301278Y-90239666D02*
X93008385Y-89532559D01*
X92442700Y-85289918D02*
X93149806Y-85997025D01*
X92442700Y-90381087D02*
X92654832Y-90593219D01*
X92442700Y-90381087D02*
X93149806Y-89673980D01*
X92654832Y-85077786D02*
X92442700Y-85289918D01*
X92654832Y-85077786D02*
X93361938Y-85784893D01*
X92654832Y-90593219D02*
X93361938Y-89886112D01*
X92796253Y-84936365D02*
X93503360Y-85643471D01*
X92796253Y-90734640D02*
X93008385Y-90946772D01*
X92796253Y-90734640D02*
X93503360Y-90027533D01*
X93008385Y-84724233D02*
X92796253Y-84936365D01*
X93008385Y-84724233D02*
X93715492Y-85431339D01*
X93008385Y-90946772D02*
X93715492Y-90239666D01*
X93149806Y-84582811D02*
X93856913Y-85289918D01*
X93149806Y-91088194D02*
X93361938Y-91300326D01*
X93149806Y-91088194D02*
X93856913Y-90381087D01*
X93361938Y-84370679D02*
X93149806Y-84582811D01*
X93361938Y-84370679D02*
X94069045Y-85077786D01*
X93361938Y-91300326D02*
X94069045Y-90593219D01*
X93503360Y-84229258D02*
X94210467Y-84936365D01*
X93503360Y-91441747D02*
X93715492Y-91653879D01*
X93503360Y-91441747D02*
X94210467Y-90734640D01*
X93715492Y-84017126D02*
X93503360Y-84229258D01*
X93715492Y-84017126D02*
X94422599Y-84724233D01*
X93715492Y-91653879D02*
X94422599Y-90946772D01*
X93856913Y-83875704D02*
X94564020Y-84582811D01*
X93856913Y-91795300D02*
X94069045Y-92007432D01*
X93856913Y-91795300D02*
X94564020Y-91088194D01*
X94069045Y-83663572D02*
X93856913Y-83875704D01*
X94069045Y-83663572D02*
X94776152Y-84370679D01*
X94069045Y-92007432D02*
X94776152Y-91300326D01*
X94210467Y-83522151D02*
X94917573Y-84229258D01*
X94210467Y-92148854D02*
X94422599Y-92360986D01*
X94210467Y-92148854D02*
X94917573Y-91441747D01*
X94373900Y-89702888D02*
X94419827Y-89727702D01*
X94373900Y-89702888D02*
X94419827Y-89727702D01*
X94419827Y-89727702D02*
X94472258Y-89724449D01*
X94419827Y-89727702D02*
X94472258Y-89724449D01*
X94422599Y-83310019D02*
X94210467Y-83522151D01*
X94422599Y-83310019D02*
X95129705Y-84017126D01*
X94422599Y-92360986D02*
X95129705Y-91653879D01*
X94472258Y-89724449D02*
X94542496Y-89681109D01*
X94472258Y-89724449D02*
X94542496Y-89681109D01*
X94480978Y-89509950D02*
X94375069Y-89562975D01*
X94480978Y-89509950D02*
X94375069Y-89562975D01*
X94542496Y-89681109D02*
X94637684Y-89776297D01*
X94562894Y-89171177D02*
X94651282Y-89082788D01*
X94564020Y-83168598D02*
X95271127Y-83875704D01*
X94564020Y-92502407D02*
X94776152Y-92714539D01*
X94564020Y-92502407D02*
X95271127Y-91795300D01*
X94622598Y-89357727D02*
X94741370Y-89349653D01*
X94632478Y-89494665D02*
X94480978Y-89509950D01*
X94632478Y-89494665D02*
X94480978Y-89509950D01*
X94651282Y-89082788D02*
X95004836Y-89436342D01*
X94720654Y-86904632D02*
X94994743Y-86815393D01*
X94741370Y-89349653D02*
X94562894Y-89171177D01*
X94749595Y-90250541D02*
X94683790Y-90203153D01*
X94749595Y-90250541D02*
X94683790Y-90203153D01*
X94762192Y-87031584D02*
X94720654Y-86904632D01*
X94776152Y-82956466D02*
X94564020Y-83168598D01*
X94776152Y-82956466D02*
X95483259Y-83663572D01*
X94776152Y-92714539D02*
X95483259Y-92007432D01*
X94795342Y-89991601D02*
X94776003Y-90005129D01*
X94795342Y-89991601D02*
X94776003Y-90005129D01*
X94818006Y-89984863D02*
X94795342Y-89991601D01*
X94818006Y-89984863D02*
X94795342Y-89991601D01*
X94850262Y-90271038D02*
X94749595Y-90250541D01*
X94850262Y-90271038D02*
X94749595Y-90250541D01*
X94864787Y-89989778D02*
X94818006Y-89984863D01*
X94864787Y-89989778D02*
X94818006Y-89984863D01*
X94889251Y-90123051D02*
X94984438Y-90218239D01*
X94913332Y-90258729D02*
X94850262Y-90271038D01*
X94913332Y-90258729D02*
X94850262Y-90271038D01*
X94917573Y-82815044D02*
X95624680Y-83522151D01*
X94917573Y-92855961D02*
X95129705Y-93068093D01*
X94917573Y-92855961D02*
X95624680Y-92148854D01*
X94943644Y-90041462D02*
X94864787Y-89989778D01*
X94943644Y-90041462D02*
X94864787Y-89989778D01*
X94956604Y-89484573D02*
X94632478Y-89494665D01*
X94961251Y-89791549D02*
X94966106Y-89851848D01*
X94961251Y-89791549D02*
X94966106Y-89851848D01*
X94966106Y-89851848D02*
X95032032Y-89953073D01*
X94966106Y-89851848D02*
X95032032Y-89953073D01*
X94970631Y-89762668D02*
X94961251Y-89791549D01*
X94970631Y-89762668D02*
X94961251Y-89791549D01*
X94984438Y-90218239D02*
X94913332Y-90258729D01*
X94984438Y-90218239D02*
X94913332Y-90258729D01*
X94988581Y-89738158D02*
X94970631Y-89762668D01*
X94988581Y-89738158D02*
X94970631Y-89762668D01*
X94998036Y-87240231D02*
X95093224Y-87145044D01*
X95004836Y-89436342D02*
X94956604Y-89484573D01*
X95019709Y-90511875D02*
X95460375Y-89891882D01*
X95032032Y-89953073D02*
X94943644Y-90041462D01*
X95093224Y-87145044D02*
X95188411Y-87240231D01*
X95117552Y-90609718D02*
X95019709Y-90511875D01*
X95129705Y-82602912D02*
X94917573Y-82815044D01*
X95129705Y-82602912D02*
X95836812Y-83310019D01*
X95129705Y-93068093D02*
X95836812Y-92360986D01*
X95161640Y-86901551D02*
X94762192Y-87031584D01*
X95188411Y-87240231D02*
X95623554Y-86805088D01*
X95239983Y-86872341D02*
X95161640Y-86901551D01*
X95239983Y-86872341D02*
X95161640Y-86901551D01*
X95249603Y-90007466D02*
X95154416Y-89912279D01*
X95278393Y-90379823D02*
X95723628Y-90155134D01*
X95283599Y-87335419D02*
X95378786Y-87430606D01*
X95283599Y-87525793D02*
X94998036Y-87240231D01*
X95328537Y-86814543D02*
X95239983Y-86872341D01*
X95328537Y-86814543D02*
X95239983Y-86872341D01*
X95360407Y-90852574D02*
X95609318Y-90361657D01*
X95378786Y-87430606D02*
X95283599Y-87525793D01*
X95459207Y-90951373D02*
X95360407Y-90852574D01*
X95460375Y-89891882D02*
X95556731Y-89988238D01*
X95488103Y-87457271D02*
X95568282Y-87407565D01*
X95488103Y-87457271D02*
X95568282Y-87407565D01*
X95556731Y-89988238D02*
X95278393Y-90379823D01*
X95568282Y-87407565D02*
X95641827Y-87394486D01*
X95568282Y-87407565D02*
X95641827Y-87394486D01*
X95575960Y-91068126D02*
X95671148Y-90972939D01*
X95591152Y-90692582D02*
X95982632Y-90414138D01*
X95609318Y-90361657D02*
X95117552Y-90609718D01*
X95623554Y-86805088D02*
X95718741Y-86900276D01*
X95671148Y-90972939D02*
X95766335Y-91068126D01*
X95718741Y-86900276D02*
X95283599Y-87335419D01*
X95723628Y-90155134D02*
X95816479Y-90247985D01*
X95766335Y-91068126D02*
X96201478Y-90632984D01*
X95816479Y-90247985D02*
X95591152Y-90692582D01*
X95831139Y-87889333D02*
X95967652Y-87892414D01*
X95835872Y-87703505D02*
X95792575Y-87764718D01*
X95835872Y-87703505D02*
X95792575Y-87764718D01*
X95848068Y-88047824D02*
X95831139Y-87889333D01*
X95848068Y-88047824D02*
X95831139Y-87889333D01*
X95858229Y-87610888D02*
X95835872Y-87703505D01*
X95858229Y-87610888D02*
X95835872Y-87703505D01*
X95861523Y-91163314D02*
X95956710Y-91258501D01*
X95861523Y-91353689D02*
X95575960Y-91068126D01*
X95951823Y-88221214D02*
X95848068Y-88047824D01*
X95951823Y-88221214D02*
X95848068Y-88047824D01*
X95956710Y-91258501D02*
X95861523Y-91353689D01*
X95957531Y-87607392D02*
X95858229Y-87610888D01*
X95957531Y-87607392D02*
X95858229Y-87610888D01*
X95967652Y-87892414D02*
X95988734Y-88034997D01*
X95967652Y-87892414D02*
X95988734Y-88034997D01*
X95982632Y-90414138D02*
X96079094Y-90510600D01*
X95986775Y-91337222D02*
X96123076Y-91343278D01*
X95988734Y-88034997D02*
X96050729Y-88129745D01*
X95988734Y-88034997D02*
X96050729Y-88129745D01*
X96066558Y-87545128D02*
X95957531Y-87607392D01*
X96066558Y-87545128D02*
X95957531Y-87607392D01*
X96079094Y-90510600D02*
X95459207Y-90951373D01*
X96180549Y-87679517D02*
X96183949Y-87540773D01*
X96183949Y-87540773D02*
X96381737Y-87574488D01*
X96183949Y-87540773D02*
X96381737Y-87574488D01*
X96201478Y-90632984D02*
X96296665Y-90728171D01*
X96211076Y-82935755D02*
X91361329Y-87785502D01*
X96211076Y-82935755D02*
X96311076Y-82935755D01*
X96222619Y-91482128D02*
X96234621Y-91464259D01*
X96222619Y-91482128D02*
X96234621Y-91464259D01*
X96228462Y-91177974D02*
X96247459Y-91071602D01*
X96228462Y-91177974D02*
X96247459Y-91071602D01*
X96230584Y-91235003D02*
X96228462Y-91177974D01*
X96230584Y-91235003D02*
X96228462Y-91177974D01*
X96234621Y-91464259D02*
X96239192Y-91447920D01*
X96234621Y-91464259D02*
X96239192Y-91447920D01*
X96235580Y-91307476D02*
X96230584Y-91235003D01*
X96235580Y-91307476D02*
X96230584Y-91235003D01*
X96239192Y-91447920D02*
X96239218Y-91369245D01*
X96239192Y-91447920D02*
X96239218Y-91369245D01*
X96239218Y-91369245D02*
X96235580Y-91307476D01*
X96239218Y-91369245D02*
X96235580Y-91307476D01*
X96247459Y-91071602D02*
X96295284Y-91001517D01*
X96247459Y-91071602D02*
X96295284Y-91001517D01*
X96296665Y-90728171D02*
X95861523Y-91163314D01*
X96311076Y-82935755D02*
X101160824Y-87785502D01*
X96311076Y-92735250D02*
X96211076Y-92735250D01*
X96311076Y-92735250D02*
X101160824Y-87885502D01*
X96381737Y-87574488D02*
X96510837Y-87665175D01*
X96381737Y-87574488D02*
X96510837Y-87665175D01*
X96525710Y-91256377D02*
X96536243Y-91165815D01*
X96525710Y-91256377D02*
X96536243Y-91165815D01*
X96527097Y-91131068D02*
X96506800Y-91101485D01*
X96527097Y-91131068D02*
X96506800Y-91101485D01*
X96536243Y-91165815D02*
X96527097Y-91131068D01*
X96536243Y-91165815D02*
X96527097Y-91131068D01*
X96537759Y-88788734D02*
X96471955Y-88741346D01*
X96537759Y-88788734D02*
X96471955Y-88741346D01*
X96583506Y-88529794D02*
X96564167Y-88543322D01*
X96583506Y-88529794D02*
X96564167Y-88543322D01*
X96606170Y-88523056D02*
X96583506Y-88529794D01*
X96606170Y-88523056D02*
X96583506Y-88529794D01*
X96638426Y-88809231D02*
X96537759Y-88788734D01*
X96638426Y-88809231D02*
X96537759Y-88788734D01*
X96652951Y-88527971D02*
X96606170Y-88523056D01*
X96652951Y-88527971D02*
X96606170Y-88523056D01*
X96659674Y-91289841D02*
X96525710Y-91256377D01*
X96677415Y-88661244D02*
X96772602Y-88756431D01*
X96701496Y-88796921D02*
X96638426Y-88809231D01*
X96701496Y-88796921D02*
X96638426Y-88809231D01*
X96731808Y-88579655D02*
X96652951Y-88527971D01*
X96731808Y-88579655D02*
X96652951Y-88527971D01*
X96749416Y-88329742D02*
X96754270Y-88390041D01*
X96749416Y-88329742D02*
X96754270Y-88390041D01*
X96754270Y-88390041D02*
X96820196Y-88491266D01*
X96754270Y-88390041D02*
X96820196Y-88491266D01*
X96758796Y-88300861D02*
X96749416Y-88329742D01*
X96758796Y-88300861D02*
X96749416Y-88329742D01*
X96772602Y-88756431D02*
X96701496Y-88796921D01*
X96772602Y-88756431D02*
X96701496Y-88796921D01*
X96776746Y-88276351D02*
X96758796Y-88300861D01*
X96776746Y-88276351D02*
X96758796Y-88300861D01*
X96820196Y-88491266D02*
X96731808Y-88579655D01*
X96822744Y-88982391D02*
X96837103Y-88917430D01*
X96822744Y-88982391D02*
X96837103Y-88917430D01*
X96827228Y-89048652D02*
X96822744Y-88982391D01*
X96827228Y-89048652D02*
X96822744Y-88982391D01*
X96837103Y-88917430D02*
X96901965Y-88801541D01*
X96837103Y-88917430D02*
X96901965Y-88801541D01*
X96852072Y-89110267D02*
X96827228Y-89048652D01*
X96852072Y-89110267D02*
X96827228Y-89048652D01*
X96893180Y-89162571D02*
X96852072Y-89110267D01*
X96893180Y-89162571D02*
X96852072Y-89110267D01*
X96901965Y-88801541D02*
X96990386Y-88701826D01*
X96901965Y-88801541D02*
X96990386Y-88701826D01*
X96960309Y-88992911D02*
X96964979Y-89031944D01*
X96960309Y-88992911D02*
X96964979Y-89031944D01*
X96964979Y-89031944D02*
X96986031Y-89065047D01*
X96964979Y-89031944D02*
X96986031Y-89065047D01*
X96975510Y-89217224D02*
X96893180Y-89162571D01*
X96975510Y-89217224D02*
X96893180Y-89162571D01*
X96985063Y-88918611D02*
X96960309Y-88992911D01*
X96985063Y-88918611D02*
X96960309Y-88992911D01*
X96986031Y-89065047D02*
X97020052Y-89087419D01*
X96986031Y-89065047D02*
X97020052Y-89087419D01*
X96990386Y-88701826D02*
X97089584Y-88613780D01*
X96990386Y-88701826D02*
X97089584Y-88613780D01*
X97020052Y-89087419D02*
X97060225Y-89093953D01*
X97020052Y-89087419D02*
X97060225Y-89093953D01*
X97037767Y-88545659D02*
X96942580Y-88450472D01*
X97060225Y-89093953D02*
X97136489Y-89066153D01*
X97060225Y-89093953D02*
X97136489Y-89066153D01*
X97085574Y-88797013D02*
X96985063Y-88918611D01*
X97085574Y-88797013D02*
X96985063Y-88918611D01*
X97089584Y-88613780D02*
X97204690Y-88548767D01*
X97089584Y-88613780D02*
X97204690Y-88548767D01*
X97100340Y-89225463D02*
X96975510Y-89217224D01*
X97100340Y-89225463D02*
X96975510Y-89217224D01*
X97136489Y-89066153D02*
X97261607Y-88960936D01*
X97136489Y-89066153D02*
X97261607Y-88960936D01*
X97155177Y-88734183D02*
X97085574Y-88797013D01*
X97155177Y-88734183D02*
X97085574Y-88797013D01*
X97204690Y-88548767D02*
X97269039Y-88533116D01*
X97204690Y-88548767D02*
X97269039Y-88533116D01*
X97223607Y-89169199D02*
X97100340Y-89225463D01*
X97223607Y-89169199D02*
X97100340Y-89225463D01*
X97255339Y-89497534D02*
X97785669Y-88967203D01*
X97258632Y-88676223D02*
X97155177Y-88734183D01*
X97258632Y-88676223D02*
X97155177Y-88734183D01*
X97261607Y-88960936D02*
X97358868Y-88841238D01*
X97261607Y-88960936D02*
X97358868Y-88841238D01*
X97269039Y-88533116D02*
X97335064Y-88535874D01*
X97269039Y-88533116D02*
X97335064Y-88535874D01*
X97335064Y-88535874D02*
X97396196Y-88560965D01*
X97335064Y-88535874D02*
X97396196Y-88560965D01*
X97355732Y-89057185D02*
X97223607Y-89169199D01*
X97355732Y-89057185D02*
X97223607Y-89169199D01*
X97358868Y-88841238D02*
X97380709Y-88767879D01*
X97358868Y-88841238D02*
X97380709Y-88767879D01*
X97374359Y-88729962D02*
X97353182Y-88697895D01*
X97374359Y-88729962D02*
X97353182Y-88697895D01*
X97380709Y-88767879D02*
X97374359Y-88729962D01*
X97380709Y-88767879D02*
X97374359Y-88729962D01*
X97392447Y-82602912D02*
X96685340Y-83310019D01*
X97392447Y-82602912D02*
X97604579Y-82815044D01*
X97392447Y-93068093D02*
X96685340Y-92360986D01*
X97396196Y-88560965D02*
X97447945Y-88602283D01*
X97396196Y-88560965D02*
X97447945Y-88602283D01*
X97402476Y-89644670D02*
X97255339Y-89497534D01*
X97438915Y-89504333D02*
X97547700Y-89613118D01*
X97443102Y-88958685D02*
X97355732Y-89057185D01*
X97443102Y-88958685D02*
X97355732Y-89057185D01*
X97447945Y-88602283D02*
X97489057Y-88653582D01*
X97447945Y-88602283D02*
X97489057Y-88653582D01*
X97489057Y-88653582D02*
X97514741Y-88713974D01*
X97489057Y-88653582D02*
X97514741Y-88713974D01*
X97506261Y-88843729D02*
X97443102Y-88958685D01*
X97506261Y-88843729D02*
X97443102Y-88958685D01*
X97514741Y-88713974D02*
X97519766Y-88779406D01*
X97514741Y-88713974D02*
X97519766Y-88779406D01*
X97519766Y-88779406D02*
X97506261Y-88843729D01*
X97519766Y-88779406D02*
X97506261Y-88843729D01*
X97547700Y-89613118D02*
X97402476Y-89644670D01*
X97554499Y-89796694D02*
X97649687Y-89701507D01*
X97604579Y-82815044D02*
X96897472Y-83522151D01*
X97604579Y-92855961D02*
X96897472Y-92148854D01*
X97604579Y-92855961D02*
X97392447Y-93068093D01*
X97649687Y-89701507D02*
X97812865Y-89864685D01*
X97746000Y-82956466D02*
X97038894Y-83663572D01*
X97746000Y-82956466D02*
X97958132Y-83168598D01*
X97746000Y-92714539D02*
X97038894Y-92007432D01*
X97751673Y-89599520D02*
X97846861Y-89504333D01*
X97785669Y-88967203D02*
X97880856Y-89062391D01*
X97812865Y-89864685D02*
X97914852Y-89762699D01*
X97812865Y-90055060D02*
X97554499Y-89796694D01*
X97846861Y-89504333D02*
X98010039Y-89667511D01*
X97880856Y-89062391D02*
X97438915Y-89504333D01*
X97914852Y-89762699D02*
X97751673Y-89599520D01*
X97958132Y-83168598D02*
X97251026Y-83875704D01*
X97958132Y-92502407D02*
X97251026Y-91795300D01*
X97958132Y-92502407D02*
X97746000Y-92714539D01*
X98010039Y-89667511D02*
X98248008Y-89429542D01*
X98099554Y-83310019D02*
X97392447Y-84017126D01*
X98099554Y-83310019D02*
X98311686Y-83522151D01*
X98099554Y-92360986D02*
X97392447Y-91653879D01*
X98248008Y-89429542D02*
X98343195Y-89524730D01*
X98311686Y-83522151D02*
X97604579Y-84229258D01*
X98311686Y-92148854D02*
X97604579Y-91441747D01*
X98311686Y-92148854D02*
X98099554Y-92360986D01*
X98343195Y-89524730D02*
X97812865Y-90055060D01*
X98453107Y-83663572D02*
X97746000Y-84370679D01*
X98453107Y-83663572D02*
X98665239Y-83875704D01*
X98453107Y-92007432D02*
X97746000Y-91300326D01*
X98665239Y-83875704D02*
X97958132Y-84582811D01*
X98665239Y-91795300D02*
X97958132Y-91088194D01*
X98665239Y-91795300D02*
X98453107Y-92007432D01*
X98806661Y-84017126D02*
X98099554Y-84724233D01*
X98806661Y-84017126D02*
X99018793Y-84229258D01*
X98806661Y-91653879D02*
X98099554Y-90946772D01*
X99018793Y-84229258D02*
X98311686Y-84936365D01*
X99018793Y-91441747D02*
X98311686Y-90734640D01*
X99018793Y-91441747D02*
X98806661Y-91653879D01*
X99160214Y-84370679D02*
X98453107Y-85077786D01*
X99160214Y-84370679D02*
X99372346Y-84582811D01*
X99160214Y-91300326D02*
X98453107Y-90593219D01*
X99372346Y-84582811D02*
X98665239Y-85289918D01*
X99372346Y-91088194D02*
X98665239Y-90381087D01*
X99372346Y-91088194D02*
X99160214Y-91300326D01*
X99513767Y-84724233D02*
X98806661Y-85431339D01*
X99513767Y-84724233D02*
X99725899Y-84936365D01*
X99513767Y-90946772D02*
X98806661Y-90239666D01*
X99725899Y-84936365D02*
X99018793Y-85643471D01*
X99725899Y-90734640D02*
X99018793Y-90027533D01*
X99725899Y-90734640D02*
X99513767Y-90946772D01*
X99867321Y-85077786D02*
X99160214Y-85784893D01*
X99867321Y-85077786D02*
X100079453Y-85289918D01*
X99867321Y-90593219D02*
X99160214Y-89886112D01*
X100079453Y-85289918D02*
X99372346Y-85997025D01*
X100079453Y-90381087D02*
X99372346Y-89673980D01*
X100079453Y-90381087D02*
X99867321Y-90593219D01*
X100220874Y-85431339D02*
X99513767Y-86138446D01*
X100220874Y-85431339D02*
X100433006Y-85643471D01*
X100220874Y-90239666D02*
X99513767Y-89532559D01*
X100433006Y-85643471D02*
X99725899Y-86350578D01*
X100433006Y-90027533D02*
X99725899Y-89320427D01*
X100433006Y-90027533D02*
X100220874Y-90239666D01*
X100574428Y-85784893D02*
X99867321Y-86492000D01*
X100574428Y-85784893D02*
X100786560Y-85997025D01*
X100574428Y-89886112D02*
X99867321Y-89179005D01*
X100786560Y-85997025D02*
X100079453Y-86704132D01*
X100786560Y-89673980D02*
X100079453Y-88966873D01*
X100786560Y-89673980D02*
X100574428Y-89886112D01*
X100927981Y-86138446D02*
X100220874Y-86845553D01*
X100927981Y-86138446D02*
X101140113Y-86350578D01*
X100927981Y-89532559D02*
X100220874Y-88825452D01*
X101140113Y-86350578D02*
X100433006Y-87057685D01*
X101140113Y-89320427D02*
X100433006Y-88613320D01*
X101140113Y-89320427D02*
X100927981Y-89532559D01*
X101160824Y-87885502D02*
X101160824Y-87785502D01*
X101281534Y-86492000D02*
X100574428Y-87199106D01*
X101281534Y-86492000D02*
X101493666Y-86704132D01*
X101281534Y-89179005D02*
X100574428Y-88471899D01*
X101493666Y-86704132D02*
X100786560Y-87411238D01*
X101493666Y-88966873D02*
X100786560Y-88259767D01*
X101493666Y-88966873D02*
X101281534Y-89179005D01*
X102610088Y-84782050D02*
X102610088Y-91082050D01*
X103035088Y-91082050D02*
X103035088Y-84782050D01*
X107135088Y-84782050D02*
X107135088Y-91082050D01*
X107560088Y-91082050D02*
X107560088Y-84782050D01*
X108255309Y-85362282D02*
X108255309Y-84862282D01*
X108255309Y-90362282D02*
X108255309Y-90862282D01*
X108265309Y-91762282D02*
X108265309Y-83962282D01*
X108265309Y-91762282D02*
X108265311Y-91762900D01*
X108265311Y-83961663D02*
X108265309Y-83962282D01*
X108364690Y-91862280D02*
X108365309Y-91862282D01*
X108365309Y-83862282D02*
X108364690Y-83862283D01*
X108365309Y-83862282D02*
X111665309Y-83862282D01*
X108365309Y-91862282D02*
X111665309Y-91862282D01*
X109174267Y-91569226D02*
X109174267Y-91755812D01*
X109574267Y-91169226D02*
X110456351Y-91169226D01*
X110656351Y-91778200D02*
X109374267Y-91778200D01*
X110856351Y-91755812D02*
X110856351Y-91569226D01*
X111765304Y-83961334D02*
X111765309Y-83962282D01*
X111765307Y-91762900D02*
X111765309Y-91762282D01*
X111765309Y-83962282D02*
X111765307Y-83961663D01*
X111765309Y-91762282D02*
X111765309Y-83962282D01*
X115232500Y-82830000D02*
X115232500Y-93110000D01*
X115232500Y-93110000D02*
X117892500Y-93110000D01*
X117892500Y-82830000D02*
X115232500Y-82830000D01*
X117892500Y-93110000D02*
X117892500Y-82830000D01*
X121642500Y-79080000D02*
X121642500Y-81620000D01*
X121642500Y-81620000D02*
X70842500Y-81620000D01*
X121702500Y-94260000D02*
X121702500Y-96920000D01*
X121702500Y-96920000D02*
X73382500Y-96920000D01*
X122817500Y-76595000D02*
X122817500Y-99345000D01*
X122817500Y-99345000D02*
X69667500Y-99345000D01*
X69742501Y-85120000D02*
G75*
G02*
X69947293Y-84870039I229799J20600D01*
G01*
X69885895Y-85120000D02*
G75*
G02*
X70090687Y-84870033I229805J20600D01*
G01*
X69947288Y-91070001D02*
G75*
G02*
X69742499Y-90820000I25152J229481D01*
G01*
X70057741Y-91544858D02*
G75*
G02*
X70388285Y-91420040I330459J-375042D01*
G01*
X70090682Y-91070000D02*
G75*
G02*
X69885897Y-90820000I25168J229490D01*
G01*
X70221653Y-91728834D02*
G75*
G02*
X70384000Y-91666402I165347J-187666D01*
G01*
X70292501Y-91070000D02*
G75*
G02*
X70392436Y-91166411I-1J-100000D01*
G01*
X70384000Y-84273573D02*
G75*
G02*
X70221660Y-84211159I2900J249873D01*
G01*
X70388285Y-84519989D02*
G75*
G02*
X70057733Y-84395152I15J500089D01*
G01*
X70392437Y-84773590D02*
G75*
G02*
X70292500Y-84870001I-99937J3590D01*
G01*
X77914777Y-89832467D02*
G75*
G02*
X78014777Y-89732477I100023J-33D01*
G01*
X78014777Y-93232467D02*
G75*
G02*
X77914773Y-93132467I63J100067D01*
G01*
X78064777Y-90582467D02*
G75*
G02*
X78164777Y-90482477I100023J-33D01*
G01*
X78164777Y-92482467D02*
G75*
G02*
X78064733Y-92382467I23J100067D01*
G01*
X78222500Y-83360000D02*
G75*
G02*
X78322500Y-83260000I100000J0D01*
G01*
X78322500Y-88340000D02*
G75*
G02*
X78222500Y-88240000I0J100000D01*
G01*
X78914777Y-92382467D02*
G75*
G02*
X78814777Y-92482477I-99977J-33D01*
G01*
X79414777Y-90582467D02*
G75*
G02*
X79514777Y-90482477I100023J-33D01*
G01*
X79514777Y-92482467D02*
G75*
G02*
X79414733Y-92382467I23J100067D01*
G01*
X82314777Y-90482467D02*
G75*
G02*
X82414733Y-90582467I23J-99933D01*
G01*
X82414777Y-92382467D02*
G75*
G02*
X82314777Y-92482477I-99977J-33D01*
G01*
X82914777Y-90582467D02*
G75*
G02*
X83014777Y-90482477I100023J-33D01*
G01*
X83014777Y-92482467D02*
G75*
G02*
X82914733Y-92382467I23J100067D01*
G01*
X83202500Y-83260001D02*
G75*
G02*
X83302499Y-83360000I0J-99999D01*
G01*
X83302500Y-88240000D02*
G75*
G02*
X83202500Y-88340000I-100000J0D01*
G01*
X83664777Y-90482467D02*
G75*
G02*
X83764733Y-90582467I23J-99933D01*
G01*
X83764777Y-92382467D02*
G75*
G02*
X83664777Y-92482477I-99977J-33D01*
G01*
X83814777Y-89732467D02*
G75*
G02*
X83914733Y-89832467I23J-99933D01*
G01*
X83914777Y-93132467D02*
G75*
G02*
X83814777Y-93232477I-99977J-33D01*
G01*
X94273188Y-89474480D02*
G75*
G02*
X94622599Y-89357700I326912J-397020D01*
G01*
X94273294Y-89792658D02*
G75*
G02*
X94273171Y-89474463I156006J159158D01*
G01*
X94373900Y-89702887D02*
G75*
G02*
X94375094Y-89563003I65600J69387D01*
G01*
X94637684Y-89776297D02*
G75*
G02*
X94273286Y-89792666I-189884J162897D01*
G01*
X94674761Y-89915997D02*
G75*
G02*
X94856863Y-89875802I122439J-122103D01*
G01*
X94683790Y-90203154D02*
G75*
G02*
X94674760Y-89915997I136220J148004D01*
G01*
X94779616Y-90108603D02*
G75*
G02*
X94776017Y-90005143I46284J53403D01*
G01*
X94856849Y-89875839D02*
G75*
G02*
X94894353Y-89642018I169451J92739D01*
G01*
X94889251Y-90123051D02*
G75*
G02*
X94779607Y-90108611I-45151J80651D01*
G01*
X94894351Y-89642014D02*
G75*
G02*
X95249923Y-89654231I171919J-176856D01*
G01*
X94988582Y-89738158D02*
G75*
G02*
X95149563Y-89744184I77618J-79742D01*
G01*
X94994743Y-86815393D02*
G75*
G02*
X95002925Y-86487445I163657J159993D01*
G01*
X95002923Y-86487442D02*
G75*
G02*
X95330357Y-86484667I165077J-159058D01*
G01*
X95087700Y-86731573D02*
G75*
G02*
X95092712Y-86588070I70600J69373D01*
G01*
X95092692Y-86588048D02*
G75*
G02*
X95236919Y-86581719I75208J-67352D01*
G01*
X95149529Y-89744214D02*
G75*
G02*
X95154368Y-89912235I-83529J-86486D01*
G01*
X95228674Y-86724029D02*
G75*
G02*
X95087674Y-86731601I-74174J64629D01*
G01*
X95236961Y-86581674D02*
G75*
G02*
X95228652Y-86724004I-75061J-67026D01*
G01*
X95249921Y-89654231D02*
G75*
G02*
X95249607Y-90007470I-169621J-176469D01*
G01*
X95330343Y-86484680D02*
G75*
G02*
X95328527Y-86814533I-165543J-164020D01*
G01*
X95490227Y-87759619D02*
G75*
G02*
X95488063Y-87457230I142073J152219D01*
G01*
X95587753Y-87666769D02*
G75*
G02*
X95587881Y-87547915I54147J59369D01*
G01*
X95587859Y-87547891D02*
G75*
G02*
X95708360Y-87542549I62741J-53509D01*
G01*
X95641827Y-87394485D02*
G75*
G02*
X95706211Y-87184782I223273J46185D01*
G01*
X95704188Y-87662732D02*
G75*
G02*
X95587781Y-87666740I-60088J52732D01*
G01*
X95706206Y-87184776D02*
G75*
G02*
X96047218Y-87201565I162944J-161984D01*
G01*
X95708331Y-87542579D02*
G75*
G02*
X95704209Y-87662757I-59431J-58121D01*
G01*
X95792576Y-87764718D02*
G75*
G02*
X95490250Y-87759599I-148776J143518D01*
G01*
X95794913Y-87286443D02*
G75*
G02*
X95953018Y-87297685I73987J-76857D01*
G01*
X95802244Y-87446116D02*
G75*
G02*
X95794872Y-87286405I73456J83416D01*
G01*
X95952991Y-87297705D02*
G75*
G02*
X95962762Y-87458543I-72091J-85095D01*
G01*
X95962765Y-87458546D02*
G75*
G02*
X95802209Y-87446145I-74165J85346D01*
G01*
X96047222Y-87201562D02*
G75*
G02*
X96066539Y-87545109I-137322J-180038D01*
G01*
X96048711Y-91568073D02*
G75*
G02*
X95986813Y-91337230I191889J175173D01*
G01*
X96144961Y-91473948D02*
G75*
G02*
X96123117Y-91343293I105239J84748D01*
G01*
X96180549Y-87679517D02*
G75*
G02*
X96416060Y-87760801I32251J-288383D01*
G01*
X96222619Y-91482128D02*
G75*
G02*
X96144958Y-91473949I-34719J43128D01*
G01*
X96295285Y-91001517D02*
G75*
G02*
X96605497Y-91009800I151255J-148373D01*
G01*
X96322374Y-91572748D02*
G75*
G02*
X96048705Y-91568077I-134544J136538D01*
G01*
X96374855Y-91252977D02*
G75*
G02*
X96322371Y-91572745I-338555J-108623D01*
G01*
X96374855Y-91252977D02*
G75*
G02*
X96396006Y-91091186I204245J55577D01*
G01*
X96395997Y-91091180D02*
G75*
G02*
X96506807Y-91101479I50203J-61120D01*
G01*
X96411188Y-88125177D02*
G75*
G02*
X96050730Y-88129744I-182438J172077D01*
G01*
X96416074Y-87760787D02*
G75*
G02*
X96411186Y-88125175I-172474J-179913D01*
G01*
X96462925Y-88454190D02*
G75*
G02*
X96645011Y-88414038I122375J-122010D01*
G01*
X96471955Y-88741345D02*
G75*
G02*
X96462876Y-88454143I136045J148045D01*
G01*
X96506587Y-88220151D02*
G75*
G02*
X95951832Y-88221206I-277887J267351D01*
G01*
X96510837Y-87665175D02*
G75*
G02*
X96506592Y-88220157I-259137J-275525D01*
G01*
X96567780Y-88646796D02*
G75*
G02*
X96564189Y-88543344I46320J53396D01*
G01*
X96605493Y-91009802D02*
G75*
G02*
X96659634Y-91289823I-175093J-179098D01*
G01*
X96645013Y-88414032D02*
G75*
G02*
X96682518Y-88180212I169487J92732D01*
G01*
X96677415Y-88661244D02*
G75*
G02*
X96567791Y-88646784I-45115J80744D01*
G01*
X96682515Y-88180208D02*
G75*
G02*
X97038082Y-88192428I171915J-176862D01*
G01*
X96776745Y-88276351D02*
G75*
G02*
X96937666Y-88282430I77555J-79949D01*
G01*
X96937693Y-88282407D02*
G75*
G02*
X96942538Y-88450433I-83593J-86493D01*
G01*
X97038086Y-88192425D02*
G75*
G02*
X97037778Y-88545671I-169686J-176475D01*
G01*
X97258632Y-88676224D02*
G75*
G02*
X97353181Y-88697896I29868J-86776D01*
G01*
X102610088Y-84782050D02*
G75*
G02*
X107560092Y-84782050I2475002J0D01*
G01*
X103035088Y-84782050D02*
G75*
G02*
X107135092Y-84782050I2050002J0D01*
G01*
X107135088Y-91082050D02*
G75*
G02*
X103035088Y-91082050I-2050000J0D01*
G01*
X107560088Y-91082050D02*
G75*
G02*
X102610088Y-91082050I-2475000J0D01*
G01*
X108265310Y-83961663D02*
G75*
G02*
X108364690Y-83862310I99990J-637D01*
G01*
X108364689Y-91862280D02*
G75*
G02*
X108265320Y-91762900I611J99980D01*
G01*
X109174267Y-91569226D02*
G75*
G02*
X109574267Y-91169227I399933J66D01*
G01*
X109374267Y-91778200D02*
G75*
G02*
X109174267Y-91755811I-49367J463500D01*
G01*
X110456351Y-91169226D02*
G75*
G02*
X110856354Y-91569226I-1J-400004D01*
G01*
X110856351Y-91755812D02*
G75*
G02*
X110656350Y-91778210I-148651J423212D01*
G01*
X111665928Y-83862284D02*
G75*
G02*
X111765316Y-83961663I-628J-100016D01*
G01*
X111765307Y-91762901D02*
G75*
G02*
X111665928Y-91862307I-100007J601D01*
G01*
X100511076Y-87835502D02*
G75*
G02*
X100011076Y-87835502I-250000J0D01*
G01*
X100011076Y-87835502D02*
G75*
G02*
X100511076Y-87835502I250000J0D01*
G01*
X110441185Y-84810855D02*
G75*
G02*
X109589433Y-84810855I-425876J0D01*
G01*
X109589433Y-84810855D02*
G75*
G02*
X110441185Y-84810855I425876J0D01*
G01*
D12*
X116915560Y-84406380D02*
X116407560Y-84406380D01*
X116407560Y-83898380D01*
X116915560Y-83898380D01*
X116915560Y-84406380D01*
G36*
X116915560Y-84406380D02*
G01*
X116407560Y-84406380D01*
X116407560Y-83898380D01*
X116915560Y-83898380D01*
X116915560Y-84406380D01*
G37*
X116915560Y-86946380D02*
X116407560Y-86946380D01*
X116407560Y-86438380D01*
X116915560Y-86438380D01*
X116915560Y-86946380D01*
G36*
X116915560Y-86946380D02*
G01*
X116407560Y-86946380D01*
X116407560Y-86438380D01*
X116915560Y-86438380D01*
X116915560Y-86946380D01*
G37*
X116915560Y-89486380D02*
X116407560Y-89486380D01*
X116407560Y-88978380D01*
X116915560Y-88978380D01*
X116915560Y-89486380D01*
G36*
X116915560Y-89486380D02*
G01*
X116407560Y-89486380D01*
X116407560Y-88978380D01*
X116915560Y-88978380D01*
X116915560Y-89486380D01*
G37*
X116915560Y-92026380D02*
X116407560Y-92026380D01*
X116407560Y-91518380D01*
X116915560Y-91518380D01*
X116915560Y-92026380D01*
G36*
X116915560Y-92026380D02*
G01*
X116407560Y-92026380D01*
X116407560Y-91518380D01*
X116915560Y-91518380D01*
X116915560Y-92026380D01*
G37*
%TD*%
M02*
